STARTFONT 2.1
FONT -Adobe-Utopia-Bold-I-Normal--25-180-100-100-P-139-ISO10646-1
SIZE 18 100 100
FONTBOUNDINGBOX 37 43 -4 -13
COMMENT $Xorg: $
COMMENT ISO10646-1 extension by Markus Kuhn <mkuhn@acm.org>, 2001-03-20
STARTPROPERTIES 28
FOUNDRY "Adobe"
FAMILY_NAME "Utopia"
WEIGHT_NAME "Bold"
SLANT "I"
SETWIDTH_NAME "Normal"
ADD_STYLE_NAME ""
PIXEL_SIZE 25
POINT_SIZE 180
RESOLUTION_X 100
RESOLUTION_Y 100
SPACING "P"
AVERAGE_WIDTH 139
CHARSET_REGISTRY "ISO10646"
CHARSET_ENCODING "1"
CAP_HEIGHT 17
X_HEIGHT 12
RELATIVE_SETWIDTH 50
RELATIVE_WEIGHT 70
WEIGHT 208
FACE_NAME "Utopia Bold Italic"
COPYRIGHT "Copyright (c) 1989, 1991 Adobe Systems Incorporated.  All Rights Reserved."
NOTICE "Utopia is a registered trademark of Adobe Systems Incorporated."
DESTINATION 0
FONT_ASCENT 23
FONT_DESCENT 6
DEFAULT_CHAR 0
_ADOBE_PSFONT "Utopia-BoldItalic"
_DEC_DEVICE_FONTNAMES "PS=Utopia-BoldItalic"
ENDPROPERTIES
CHARS 723
STARTCHAR char0
ENCODING 0
SWIDTH 800 0
DWIDTH 20 0
BBX 21 17 1 0
BITMAP
AAAAA8
000000
800008
000000
800008
000000
800008
000000
800008
000000
800008
000000
800008
000000
800008
000000
AAAAA8
ENDCHAR
STARTCHAR space
ENCODING 32
SWIDTH 210 0
DWIDTH 5 0
BBX 0 0 0 0
BITMAP
ENDCHAR
STARTCHAR exclam
ENCODING 33
SWIDTH 285 0
DWIDTH 7 0
BBX 8 18 2 0
BITMAP
07
0F
1E
1E
1E
1C
1C
1C
18
18
18
10
20
00
70
F8
F0
60
ENDCHAR
STARTCHAR quotedbl
ENCODING 34
SWIDTH 455 0
DWIDTH 11 0
BBX 9 7 4 11
BITMAP
7380
F780
E700
E700
C600
C600
8600
ENDCHAR
STARTCHAR numbersign
ENCODING 35
SWIDTH 560 0
DWIDTH 14 0
BBX 14 18 2 -1
BITMAP
0318
0318
0330
0630
0620
3FFC
3FF8
0C40
0CC0
18C0
7FF0
FFF0
3180
3180
3300
6300
6300
0400
ENDCHAR
STARTCHAR dollar
ENCODING 36
SWIDTH 560 0
DWIDTH 14 0
BBX 14 22 2 -3
BITMAP
0040
00C0
07E0
0CB8
199C
3998
3900
3F00
1F80
1FC0
07E0
03F0
02F0
0670
6670
E670
F460
74C0
1F80
0C00
0C00
0800
ENDCHAR
STARTCHAR percent
ENCODING 37
SWIDTH 896 0
DWIDTH 22 0
BBX 20 18 3 0
BITMAP
000080
1F00C0
39FF80
71C300
61C600
E1CC00
E18C00
E39800
673000
3C67C0
00CE60
019C70
019870
033870
063860
0C38E0
1819C0
100F00
ENDCHAR
STARTCHAR ampersand
ENCODING 38
SWIDTH 752 0
DWIDTH 19 0
BBX 18 17 2 0
BITMAP
01C000
073000
063800
0E3800
0E3000
0F7180
0FC3C0
078380
1F8380
73C700
73E600
F1FC00
F0F800
F07C00
787E00
3FDF00
1F0380
ENDCHAR
STARTCHAR quotesingle
ENCODING 39
SWIDTH 246 0
DWIDTH 6 0
BBX 4 8 4 10
BITMAP
70
70
E0
E0
E0
C0
C0
80
ENDCHAR
STARTCHAR parenleft
ENCODING 40
SWIDTH 350 0
DWIDTH 9 0
BBX 8 21 3 -3
BITMAP
03
0E
1C
38
38
30
70
60
60
60
E0
C0
C0
C0
C0
C0
C0
C0
40
60
30
ENDCHAR
STARTCHAR parenright
ENCODING 41
SWIDTH 350 0
DWIDTH 9 0
BBX 8 21 1 -3
BITMAP
0C
06
06
02
03
03
03
03
03
03
03
06
06
06
0E
0C
1C
1C
38
70
C0
ENDCHAR
STARTCHAR asterisk
ENCODING 42
SWIDTH 500 0
DWIDTH 12 0
BBX 10 10 4 8
BITMAP
0600
0600
64C0
75C0
0E00
3E00
EB80
C980
1800
1800
ENDCHAR
STARTCHAR plus
ENCODING 43
SWIDTH 600 0
DWIDTH 15 0
BBX 12 13 3 0
BITMAP
0600
0600
0600
0600
0600
0600
FFF0
FFF0
0600
0600
0600
0600
0600
ENDCHAR
STARTCHAR comma
ENCODING 44
SWIDTH 280 0
DWIDTH 7 0
BBX 5 9 1 -4
BITMAP
30
78
78
78
30
70
60
C0
80
ENDCHAR
STARTCHAR hyphen
ENCODING 45
SWIDTH 392 0
DWIDTH 10 0
BBX 7 2 3 5
BITMAP
FE
FE
ENDCHAR
STARTCHAR period
ENCODING 46
SWIDTH 280 0
DWIDTH 7 0
BBX 4 4 2 0
BITMAP
60
F0
F0
60
ENDCHAR
STARTCHAR slash
ENCODING 47
SWIDTH 260 0
DWIDTH 6 0
BBX 10 18 0 0
BITMAP
01C0
0180
0380
0300
0300
0700
0600
0E00
0C00
0C00
1C00
1800
3800
3000
3000
7000
6000
E000
ENDCHAR
STARTCHAR zero
ENCODING 48
SWIDTH 560 0
DWIDTH 14 0
BBX 14 17 2 0
BITMAP
03E0
0E30
1E38
3C3C
3C3C
783C
783C
787C
F87C
F078
F078
F078
F0F0
F0F0
71E0
31C0
1F00
ENDCHAR
STARTCHAR one
ENCODING 49
SWIDTH 560 0
DWIDTH 14 0
BBX 10 17 3 0
BITMAP
00C0
0FC0
1780
0380
0780
0780
0780
0700
0700
0F00
0F00
0E00
0E00
1E00
1E00
1E00
FF80
ENDCHAR
STARTCHAR two
ENCODING 50
SWIDTH 560 0
DWIDTH 14 0
BBX 14 17 1 0
BITMAP
03E0
0E38
1E3C
1C3C
1C3C
007C
0078
00F8
01F0
03C0
0700
1C00
3800
7018
FFF0
FFF0
FFE0
ENDCHAR
STARTCHAR three
ENCODING 51
SWIDTH 560 0
DWIDTH 14 0
BBX 14 17 1 0
BITMAP
03E0
0E38
1E3C
1C3C
083C
0078
00F0
0FC0
00F0
0070
0078
0078
6078
F078
70F0
79E0
1F80
ENDCHAR
STARTCHAR four
ENCODING 52
SWIDTH 560 0
DWIDTH 14 0
BBX 13 17 2 0
BITMAP
0038
0078
00F0
01F0
0370
02F0
06F0
0CE0
18E0
30E0
61E0
7FF8
FFF8
01C0
03C0
03C0
0FE0
ENDCHAR
STARTCHAR five
ENCODING 53
SWIDTH 560 0
DWIDTH 14 0
BBX 15 17 1 0
BITMAP
0FFE
0FFC
0FF8
0800
1800
1800
13C0
1FF0
18F0
0078
0078
0078
6078
7070
F0F0
79E0
1F80
ENDCHAR
STARTCHAR six
ENCODING 54
SWIDTH 560 0
DWIDTH 14 0
BBX 14 17 2 0
BITMAP
03F0
0F38
1E1C
3C1C
3C00
7C00
79C0
7FF0
78F0
F878
F078
F078
F078
F0F0
70F0
39E0
1F80
ENDCHAR
STARTCHAR seven
ENCODING 55
SWIDTH 560 0
DWIDTH 14 0
BBX 13 17 4 0
BITMAP
7FF8
7FF0
7FF0
8060
0040
00C0
0180
0300
0600
0E00
1C00
3C00
3800
7800
7800
7800
3000
ENDCHAR
STARTCHAR eight
ENCODING 56
SWIDTH 560 0
DWIDTH 14 0
BBX 14 17 2 0
BITMAP
07E0
1E38
1E38
3C3C
3C3C
3C3C
1C78
1C70
0FC0
3CF0
7870
F078
F078
F0F8
F0F0
79E0
1F80
ENDCHAR
STARTCHAR nine
ENCODING 57
SWIDTH 560 0
DWIDTH 14 0
BBX 13 17 2 0
BITMAP
07C0
1CE0
3C70
3870
7878
7878
7878
7878
3CF8
3F70
0EF0
00F0
00E0
E0E0
E1C0
7380
1E00
ENDCHAR
STARTCHAR colon
ENCODING 58
SWIDTH 280 0
DWIDTH 7 0
BBX 6 13 2 0
BITMAP
18
3C
3C
38
10
00
00
00
20
70
F0
F0
60
ENDCHAR
STARTCHAR semicolon
ENCODING 59
SWIDTH 280 0
DWIDTH 7 0
BBX 7 16 1 -3
BITMAP
0C
1E
1E
1C
00
00
00
30
78
78
78
30
70
60
C0
80
ENDCHAR
STARTCHAR less
ENCODING 60
SWIDTH 600 0
DWIDTH 15 0
BBX 12 13 2 0
BITMAP
0010
0070
01F0
0FC0
3F00
F800
E000
F800
3E00
07C0
01F0
0070
0010
ENDCHAR
STARTCHAR equal
ENCODING 61
SWIDTH 600 0
DWIDTH 15 0
BBX 12 7 3 3
BITMAP
FFF0
FFF0
0000
0000
0000
FFF0
FFF0
ENDCHAR
STARTCHAR greater
ENCODING 62
SWIDTH 600 0
DWIDTH 15 0
BBX 12 13 3 0
BITMAP
8000
E000
F800
3F00
0FC0
01F0
0070
01F0
07C0
3E00
F800
E000
8000
ENDCHAR
STARTCHAR question
ENCODING 63
SWIDTH 454 0
DWIDTH 11 0
BBX 10 18 4 0
BITMAP
3E00
7380
F3C0
E3C0
47C0
0780
1F00
3C00
7800
F000
F000
7C00
3000
0000
7000
F800
F000
6000
ENDCHAR
STARTCHAR at
ENCODING 64
SWIDTH 828 0
DWIDTH 21 0
BBX 19 18 3 0
BITMAP
00FC00
038300
0E0180
1C00C0
387EC0
70EE60
71CE60
638E60
639E60
E39C60
E72C40
E73CC0
675D80
738E00
700000
380000
0E0600
03F800
ENDCHAR
STARTCHAR A
ENCODING 65
SWIDTH 634 0
DWIDTH 16 0
BBX 17 18 0 0
BITMAP
001C00
003C00
003C00
007C00
007C00
00DC00
009C00
019C00
011C00
031E00
021E00
07FE00
0C1E00
0C1E00
181E00
181E00
301E00
FC7F80
ENDCHAR
STARTCHAR B
ENCODING 66
SWIDTH 680 0
DWIDTH 17 0
BBX 17 18 1 0
BITMAP
0FFC00
078F00
078780
078780
078780
078780
0F0F00
0F1E00
0FF800
0F1800
0E0E00
1E0F00
1E0F00
1E0F00
1E0F00
1C1E00
3C3E00
FFF800
ENDCHAR
STARTCHAR C
ENCODING 67
SWIDTH 672 0
DWIDTH 17 0
BBX 16 18 3 0
BITMAP
01FC
0707
1E07
3C02
3C02
7802
7800
F800
F000
F000
F000
F000
F004
700C
700C
7818
1C38
07E0
ENDCHAR
STARTCHAR D
ENCODING 68
SWIDTH 774 0
DWIDTH 19 0
BBX 19 18 1 0
BITMAP
1FFC00
078780
078380
0781C0
0701C0
0F01E0
0F01E0
0F01E0
0F01E0
1E01E0
1E03C0
1E03C0
1E03C0
1E0780
3C0780
3C0F00
3C3C00
FFF000
ENDCHAR
STARTCHAR E
ENCODING 69
SWIDTH 622 0
DWIDTH 16 0
BBX 17 18 1 0
BITMAP
1FFF80
078380
078180
078100
078100
070000
0F0400
0F0C00
0FF800
0F1800
0E0800
1E0000
1E0000
1E0200
1E0600
3C0C00
3C1C00
FFFC00
ENDCHAR
STARTCHAR F
ENCODING 70
SWIDTH 585 0
DWIDTH 15 0
BBX 17 18 1 0
BITMAP
1FFF80
078300
078300
078100
070000
0F0000
0F0400
0F0400
0F0C00
1FF800
1E0800
1E0800
1E0000
1C0000
3C0000
3C0000
3C0000
FF0000
ENDCHAR
STARTCHAR G
ENCODING 71
SWIDTH 726 0
DWIDTH 18 0
BBX 17 18 3 0
BITMAP
01FC00
070700
1E0300
3C0300
3C0300
780200
780000
780000
F00000
F00000
F07F80
F01E00
F01E00
F03C00
703C00
383C00
3C7C00
0FE000
ENDCHAR
STARTCHAR H
ENCODING 72
SWIDTH 800 0
DWIDTH 20 0
BBX 22 18 1 0
BITMAP
0FF3FC
0780F0
0780E0
0781E0
0781E0
0781E0
0F01E0
0F01C0
0FFFC0
0F03C0
0E03C0
1E03C0
1E0780
1E0780
1E0780
1C0780
3C0780
FF3FC0
ENDCHAR
STARTCHAR I
ENCODING 73
SWIDTH 386 0
DWIDTH 10 0
BBX 12 18 1 0
BITMAP
0FF0
03C0
0780
0780
0780
0780
0700
0F00
0F00
0F00
0F00
0E00
1E00
1E00
1E00
1E00
3C00
FF00
ENDCHAR
STARTCHAR J
ENCODING 74
SWIDTH 388 0
DWIDTH 10 0
BBX 13 21 0 -3
BITMAP
07F8
01E0
01E0
01C0
03C0
03C0
03C0
0380
0780
0780
0780
0780
0700
0F00
0F00
0F00
0E00
1E00
1E00
3C00
F000
ENDCHAR
STARTCHAR K
ENCODING 75
SWIDTH 688 0
DWIDTH 17 0
BBX 20 18 1 0
BITMAP
1FF3F0
0781C0
078300
078600
078C00
071800
0F3000
0F6000
0FE000
0EF000
0EF000
1EF800
1E7800
1E7C00
1C3C00
3C3E00
3C1F00
FF0380
ENDCHAR
STARTCHAR L
ENCODING 76
SWIDTH 586 0
DWIDTH 15 0
BBX 15 18 1 0
BITMAP
0FF0
07C0
0780
0780
0780
0780
0F00
0F00
0F00
0F00
0F00
1E00
1E00
1E02
1E04
3E0C
3E1C
FFFC
ENDCHAR
STARTCHAR M
ENCODING 77
SWIDTH 921 0
DWIDTH 23 0
BBX 25 18 1 0
BITMAP
1FC03F80
07C03E00
07C07C00
05C05C00
05C0FC00
0DC0BC00
0DE1BC00
09E13800
09E27800
08E67800
18E47800
18EC7000
10F87000
10F8F000
30F0F000
30F0F000
3060F000
FC63F800
ENDCHAR
STARTCHAR N
ENCODING 78
SWIDTH 741 0
DWIDTH 19 0
BBX 21 18 1 0
BITMAP
0F81F8
07C060
07C060
07E040
05E0C0
04E0C0
0CF0C0
0CF080
0C7880
087980
083980
183D80
183D00
181F00
101F00
300F00
300E00
FC0E00
ENDCHAR
STARTCHAR O
ENCODING 79
SWIDTH 761 0
DWIDTH 19 0
BBX 17 18 3 0
BITMAP
01F800
0F0E00
1E0600
3E0700
3C0780
780780
780780
780780
F80780
F00F80
F00F00
F00F00
F00F00
F01E00
703E00
383C00
187800
0FE000
ENDCHAR
STARTCHAR P
ENCODING 80
SWIDTH 660 0
DWIDTH 16 0
BBX 17 18 1 0
BITMAP
1FFC00
078F00
078700
078780
070780
0F0780
0F0780
0F0F00
0F0F00
0F1E00
1FF000
1E0000
1E0000
1E0000
3C0000
3C0000
3C0000
FF0000
ENDCHAR
STARTCHAR Q
ENCODING 81
SWIDTH 761 0
DWIDTH 19 0
BBX 17 23 3 -5
BITMAP
01F800
0F0E00
1E0700
3E0700
3C0780
780780
780780
780780
F80780
F00F80
F00F00
F00F00
F00F00
F01E00
703E00
783C00
1CF800
0FE000
03C000
03E000
01F000
00F800
003E00
ENDCHAR
STARTCHAR R
ENCODING 82
SWIDTH 681 0
DWIDTH 17 0
BBX 17 18 1 0
BITMAP
1FFC00
078F00
078780
078780
070780
0F0780
0F0F00
0F0F00
0F1E00
1FF000
1E1C00
1E1E00
1E1E00
1C1E00
3C1E00
3C1E00
3C0F00
FF0F80
ENDCHAR
STARTCHAR S
ENCODING 83
SWIDTH 551 0
DWIDTH 14 0
BBX 13 18 2 0
BITMAP
03E0
0E38
1C30
3C10
3C10
3C00
3E00
1F80
0FC0
03E0
01E0
01F0
C0F0
C0F0
C0E0
E0E0
71C0
1F00
ENDCHAR
STARTCHAR T
ENCODING 84
SWIDTH 616 0
DWIDTH 15 0
BBX 16 18 3 0
BITMAP
7FFF
63C7
43C2
C3C2
83C2
0780
0780
0780
0780
0700
0F00
0F00
0F00
0F00
0E00
1E00
1E00
7F80
ENDCHAR
STARTCHAR U
ENCODING 85
SWIDTH 776 0
DWIDTH 19 0
BBX 19 18 4 0
BITMAP
7F9FE0
3C0780
3C0700
3C0F00
3C0F00
380F00
780F00
780E00
781E00
781E00
701E00
F01C00
F03C00
F03C00
F03800
707800
78F000
1FC000
ENDCHAR
STARTCHAR V
ENCODING 86
SWIDTH 630 0
DWIDTH 16 0
BBX 17 18 3 0
BITMAP
FE1F80
780600
380C00
380C00
3C1800
3C1800
3C3000
3C3000
3C6000
3C6000
1CC000
1C8000
1D8000
1D0000
1F0000
1E0000
1E0000
1C0000
ENDCHAR
STARTCHAR W
ENCODING 87
SWIDTH 920 0
DWIDTH 23 0
BBX 24 18 3 0
BITMAP
FF003F
7C0E0C
3C1E0C
3C1E18
3C3E18
3C3E10
3C7E30
3C5E20
3C5E60
3C8E60
3C8E40
3D0EC0
3D0E80
3F0F80
3E0F00
3E0F00
3C0E00
3C0E00
ENDCHAR
STARTCHAR X
ENCODING 88
SWIDTH 630 0
DWIDTH 16 0
BBX 20 18 -1 0
BITMAP
0FF3F0
07C1C0
03C380
03C300
01E600
01EC00
00F800
00F000
00F000
00F800
00F800
01F800
033C00
063C00
0C1E00
1C1E00
381F00
FE7F80
ENDCHAR
STARTCHAR Y
ENCODING 89
SWIDTH 622 0
DWIDTH 16 0
BBX 17 18 3 0
BITMAP
FF3F80
3C0E00
3C0C00
3C1800
1C3800
1E3000
1E6000
1E4000
0EC000
0F8000
0F0000
0F0000
0F0000
0F0000
1E0000
1E0000
1E0000
FF8000
ENDCHAR
STARTCHAR Z
ENCODING 90
SWIDTH 618 0
DWIDTH 15 0
BBX 19 18 0 0
BITMAP
07FFE0
0607C0
040F80
0C1F80
081F00
003E00
007C00
00F800
01F000
01F000
03E000
07C000
0F8000
1F0100
1E0300
3E0300
7C0600
FFFE00
ENDCHAR
STARTCHAR bracketleft
ENCODING 91
SWIDTH 350 0
DWIDTH 9 0
BBX 9 21 2 -3
BITMAP
0F80
0E00
0C00
0C00
0C00
1C00
1800
1800
1800
3800
3800
3000
3000
3000
7000
7000
6000
6000
6000
E000
F800
ENDCHAR
STARTCHAR backslash
ENCODING 92
SWIDTH 460 0
DWIDTH 11 0
BBX 8 18 4 0
BITMAP
E0
60
60
70
70
30
38
38
18
18
1C
1C
0C
0E
0E
06
06
07
ENDCHAR
STARTCHAR bracketright
ENCODING 93
SWIDTH 350 0
DWIDTH 9 0
BBX 9 21 0 -3
BITMAP
0F80
0380
0300
0300
0300
0700
0700
0600
0600
0600
0E00
0E00
0C00
0C00
0C00
1C00
1800
1800
1800
3800
F800
ENDCHAR
STARTCHAR asciicircum
ENCODING 94
SWIDTH 600 0
DWIDTH 15 0
BBX 12 11 3 6
BITMAP
0600
0F00
0F00
1F80
1980
1980
39C0
30C0
70E0
6060
E070
ENDCHAR
STARTCHAR underscore
ENCODING 95
SWIDTH 500 0
DWIDTH 12 0
BBX 12 1 0 -3
BITMAP
FFF0
ENDCHAR
STARTCHAR grave
ENCODING 96
SWIDTH 400 0
DWIDTH 10 0
BBX 7 6 3 13
BITMAP
40
E0
70
38
0C
02
ENDCHAR
STARTCHAR a
ENCODING 97
SWIDTH 596 0
DWIDTH 15 0
BBX 15 13 1 0
BITMAP
03DC
073C
1E3C
3C38
3878
7878
78F8
70F0
F170
F1F2
F2F4
FCF8
7070
ENDCHAR
STARTCHAR b
ENCODING 98
SWIDTH 586 0
DWIDTH 15 0
BBX 14 19 2 0
BITMAP
0700
3E00
0E00
1E00
1E00
1C00
1C78
1CF8
3D3C
3A3C
3C3C
3C3C
7878
7878
7870
78F0
F0E0
F9C0
DF00
ENDCHAR
STARTCHAR c
ENCODING 99
SWIDTH 456 0
DWIDTH 11 0
BBX 11 13 2 0
BITMAP
03C0
0CE0
38E0
38C0
7800
7000
F000
F000
F040
F080
F180
7F00
3800
ENDCHAR
STARTCHAR d
ENCODING 100
SWIDTH 609 0
DWIDTH 15 0
BBX 16 19 2 0
BITMAP
0007
003E
001E
001E
001E
001C
03DC
0F3C
1C3C
3C38
3878
7878
78F8
F0F0
F170
F172
F2F4
7CF8
7870
ENDCHAR
STARTCHAR e
ENCODING 101
SWIDTH 476 0
DWIDTH 12 0
BBX 11 13 2 0
BITMAP
0380
0CE0
38E0
38E0
79C0
73C0
FF00
F800
F040
F080
F180
7F00
1800
ENDCHAR
STARTCHAR f
ENCODING 102
SWIDTH 348 0
DWIDTH 9 0
BBX 17 25 -2 -6
BITMAP
001E00
007380
007380
00F000
00E000
00E000
07FC00
01E000
01E000
01C000
01C000
03C000
03C000
038000
038000
038000
078000
078000
070000
070000
070000
0E0000
CE0000
EC0000
780000
ENDCHAR
STARTCHAR g
ENCODING 103
SWIDTH 522 0
DWIDTH 13 0
BBX 16 19 0 -6
BITMAP
03E7
0F3E
0F38
1E3C
1E3C
1E3C
1E38
0E70
0FC0
3C00
3F00
1FE0
0FF0
78F8
F038
F038
F038
7870
0FC0
ENDCHAR
STARTCHAR h
ENCODING 104
SWIDTH 629 0
DWIDTH 16 0
BBX 15 19 2 0
BITMAP
0700
3F00
0E00
0E00
1E00
1E00
1C38
1CFC
1D3C
3D3C
3A38
3C38
3C78
7878
7870
78F2
70F4
70F8
F070
ENDCHAR
STARTCHAR i
ENCODING 105
SWIDTH 339 0
DWIDTH 8 0
BBX 8 18 2 0
BITMAP
06
0F
0F
06
00
0E
FC
3C
3C
38
38
78
78
70
72
F4
F8
70
ENDCHAR
STARTCHAR j
ENCODING 106
SWIDTH 333 0
DWIDTH 8 0
BBX 12 24 -2 -6
BITMAP
0060
00F0
00F0
00E0
0000
0060
07E0
01E0
01E0
01C0
01C0
01C0
03C0
03C0
0380
0380
0780
0780
0700
0700
0700
4E00
EE00
7800
ENDCHAR
STARTCHAR k
ENCODING 107
SWIDTH 570 0
DWIDTH 14 0
BBX 14 19 2 0
BITMAP
0700
3E00
0E00
0E00
1E00
1E00
1C18
1C7C
3C9C
3D08
3900
3B00
3F80
7F80
7B80
73C8
73C8
F1F0
F0C0
ENDCHAR
STARTCHAR l
ENCODING 108
SWIDTH 327 0
DWIDTH 8 0
BBX 8 19 2 0
BITMAP
07
3E
0E
1E
1E
1C
1C
3C
3C
38
38
78
78
70
70
F2
F4
F8
70
ENDCHAR
STARTCHAR m
ENCODING 109
SWIDTH 914 0
DWIDTH 23 0
BBX 22 13 2 0
BITMAP
0E3070
7CF9F8
1D3A78
1D3E78
3A3470
3C78F0
3C78F0
7870F0
7870E0
78F1E4
70E1E8
F0E1F0
F1E0E0
ENDCHAR
STARTCHAR n
ENCODING 110
SWIDTH 635 0
DWIDTH 16 0
BBX 15 13 2 0
BITMAP
0E38
7CFC
1D3C
3D3C
3A38
3C78
3C78
7878
7870
78F2
70F4
F0F8
F070
ENDCHAR
STARTCHAR o
ENCODING 111
SWIDTH 562 0
DWIDTH 14 0
BBX 13 13 2 0
BITMAP
03C0
1E70
3C70
3878
7878
7878
F8F8
F0F0
F0F0
F0E0
71E0
73C0
1E00
ENDCHAR
STARTCHAR p
ENCODING 112
SWIDTH 606 0
DWIDTH 15 0
BBX 15 19 1 -6
BITMAP
0E38
7E7C
1E9E
1D1E
1E1E
1E1E
3C3C
3C3C
3C38
3878
7870
78E0
7780
7000
7000
F000
F000
E000
E000
ENDCHAR
STARTCHAR q
ENCODING 113
SWIDTH 584 0
DWIDTH 15 0
BBX 14 19 2 -6
BITMAP
03EC
0F3C
1E3C
3C3C
3838
7878
7878
F0F8
F170
F170
F2F0
7CF0
78E0
00E0
01E0
01E0
01C0
01C0
0300
ENDCHAR
STARTCHAR r
ENCODING 114
SWIDTH 440 0
DWIDTH 11 0
BBX 11 13 2 0
BITMAP
1C60
7DE0
3DE0
3A40
3C00
3C00
3800
7800
7000
7000
7000
F000
E000
ENDCHAR
STARTCHAR s
ENCODING 115
SWIDTH 417 0
DWIDTH 10 0
BBX 10 13 1 0
BITMAP
0F00
19C0
39C0
3880
3C00
1E00
1F00
0F00
0780
E380
E380
F300
3E00
ENDCHAR
STARTCHAR t
ENCODING 116
SWIDTH 359 0
DWIDTH 9 0
BBX 9 17 2 0
BITMAP
0200
0600
1E00
1C00
FF80
3C00
3C00
3800
3800
7800
7800
7000
7200
F200
F400
F800
7000
ENDCHAR
STARTCHAR u
ENCODING 117
SWIDTH 634 0
DWIDTH 16 0
BBX 15 13 2 0
BITMAP
0E1C
FC1C
3C3C
3C3C
3878
7878
7878
78F8
7170
F172
F2F4
FCF8
7070
ENDCHAR
STARTCHAR v
ENCODING 118
SWIDTH 518 0
DWIDTH 13 0
BBX 11 13 3 0
BITMAP
1C40
F8E0
38E0
38E0
38C0
78C0
70C0
7180
7180
F300
F200
FC00
7800
ENDCHAR
STARTCHAR w
ENCODING 119
SWIDTH 795 0
DWIDTH 20 0
BBX 19 13 3 0
BITMAP
1C38C0
FC78E0
3C70E0
3870E0
3870C0
78F0C0
78F080
71E180
71E100
F2E200
F2E400
FCF800
707000
ENDCHAR
STARTCHAR x
ENCODING 120
SWIDTH 516 0
DWIDTH 13 0
BBX 15 13 0 0
BITMAP
011C
0F3E
1FBC
07C0
0780
0380
0380
03C0
05C4
45C8
F9C8
F9F0
60E0
ENDCHAR
STARTCHAR y
ENCODING 121
SWIDTH 489 0
DWIDTH 12 0
BBX 14 19 0 -6
BITMAP
020C
1E1C
7E1C
0E18
0E18
0E30
0F30
0F20
0F60
0740
07C0
0780
0700
0700
0600
4400
EC00
F800
7000
ENDCHAR
STARTCHAR z
ENCODING 122
SWIDTH 466 0
DWIDTH 12 0
BBX 14 13 0 0
BITMAP
1FFC
1FF8
30F0
21E0
0380
0300
0600
0C10
1810
3E30
7FE0
EFE0
C1C0
ENDCHAR
STARTCHAR braceleft
ENCODING 123
SWIDTH 340 0
DWIDTH 8 0
BBX 9 21 3 -3
BITMAP
0380
0600
0400
0C00
0C00
0C00
0C00
1C00
1800
1800
E000
3000
3800
3800
3000
7000
7000
6000
6000
6000
3800
ENDCHAR
STARTCHAR bar
ENCODING 124
SWIDTH 265 0
DWIDTH 7 0
BBX 3 18 4 0
BITMAP
E0
E0
E0
E0
E0
E0
E0
E0
E0
E0
E0
E0
E0
E0
E0
E0
E0
E0
ENDCHAR
STARTCHAR braceright
ENCODING 125
SWIDTH 340 0
DWIDTH 8 0
BBX 9 21 0 -3
BITMAP
0E00
0300
0300
0300
0700
0700
0600
0E00
0E00
0600
0380
0C00
0C00
1C00
1800
1800
1800
1800
3000
3000
E000
ENDCHAR
STARTCHAR asciitilde
ENCODING 126
SWIDTH 600 0
DWIDTH 15 0
BBX 13 5 2 4
BITMAP
0010
3F18
7FF0
C3E0
4000
ENDCHAR
STARTCHAR space
ENCODING 160
SWIDTH 210 0
DWIDTH 5 0
BBX 0 0 0 0
BITMAP
ENDCHAR
STARTCHAR exclamdown
ENCODING 161
SWIDTH 285 0
DWIDTH 7 0
BBX 8 18 0 -5
BITMAP
06
0F
1F
0E
00
04
08
18
18
18
38
38
38
78
78
78
F0
E0
ENDCHAR
STARTCHAR cent
ENCODING 162
SWIDTH 560 0
DWIDTH 14 0
BBX 13 18 3 -1
BITMAP
0080
0080
03E0
1DF8
3D38
3930
7900
7100
F300
F200
F200
F200
7220
7E40
1F80
0400
0400
0C00
ENDCHAR
STARTCHAR sterling
ENCODING 163
SWIDTH 560 0
DWIDTH 14 0
BBX 15 17 1 0
BITMAP
00F8
039C
071E
070E
0F00
0F00
0F00
0F00
0780
3FF0
0780
0780
0700
0E0C
7FF8
FFF8
FFF0
ENDCHAR
STARTCHAR currency
ENCODING 164
SWIDTH 560 0
DWIDTH 14 0
BBX 12 13 3 2
BITMAP
4020
CF30
FFF0
70E0
70E0
E070
E070
E070
70E0
70E0
FFF0
CF30
4020
ENDCHAR
STARTCHAR yen
ENCODING 165
SWIDTH 560 0
DWIDTH 14 0
BBX 15 17 3 0
BITMAP
7F7E
3C18
1C30
1C30
1E60
1E40
0EC0
0E80
7FF0
0E00
0E00
FFE0
1C00
3C00
3C00
3C00
FF00
ENDCHAR
STARTCHAR brokenbar
ENCODING 166
SWIDTH 265 0
DWIDTH 7 0
BBX 3 18 4 0
BITMAP
E0
E0
E0
E0
E0
E0
E0
00
00
00
E0
E0
E0
E0
E0
E0
E0
E0
ENDCHAR
STARTCHAR section
ENCODING 167
SWIDTH 568 0
DWIDTH 14 0
BBX 13 21 2 -3
BITMAP
01E0
0238
0638
0600
1F00
3780
27C0
63E0
61F0
7070
3838
3C38
1E18
0F10
0730
03E0
01C0
6180
E180
7100
1E00
ENDCHAR
STARTCHAR dieresis
ENCODING 168
SWIDTH 400 0
DWIDTH 10 0
BBX 10 4 3 14
BITMAP
6180
F3C0
F3C0
6180
ENDCHAR
STARTCHAR copyright
ENCODING 169
SWIDTH 824 0
DWIDTH 21 0
BBX 18 18 3 0
BITMAP
01E000
0FF800
1C0E00
380700
71E380
671980
460880
CE00C0
CE00C0
CE00C0
CE08C0
460880
671980
61E380
300700
1C0E00
0FF800
01E000
ENDCHAR
STARTCHAR ordfeminine
ENCODING 170
SWIDTH 444 0
DWIDTH 11 0
BBX 11 8 2 7
BITMAP
07E0
19C0
31C0
73C0
6380
E5A0
EBA0
73C0
ENDCHAR
STARTCHAR guillemotleft
ENCODING 171
SWIDTH 560 0
DWIDTH 14 0
BBX 11 11 3 1
BITMAP
0420
0840
18C0
3180
7380
E700
6700
7300
3180
1080
1080
ENDCHAR
STARTCHAR logicalnot
ENCODING 172
SWIDTH 600 0
DWIDTH 15 0
BBX 12 7 3 3
BITMAP
FFF0
FFF0
0030
0030
0030
0030
0030
ENDCHAR
STARTCHAR hyphen
ENCODING 173
SWIDTH 392 0
DWIDTH 10 0
BBX 7 2 3 5
BITMAP
FE
FE
ENDCHAR
STARTCHAR registered
ENCODING 174
SWIDTH 824 0
DWIDTH 21 0
BBX 18 18 3 0
BITMAP
01E000
0FF800
1C0E00
380700
37E300
633180
633880
C338C0
C330C0
C3E0C0
C370C0
C330C0
633980
779F80
300700
1C0E00
0FFC00
01E000
ENDCHAR
STARTCHAR macron
ENCODING 175
SWIDTH 400 0
DWIDTH 10 0
BBX 8 2 4 15
BITMAP
FF
FF
ENDCHAR
STARTCHAR degree
ENCODING 176
SWIDTH 375 0
DWIDTH 9 0
BBX 9 8 3 9
BITMAP
3E00
6300
C180
C180
C180
C180
6300
3E00
ENDCHAR
STARTCHAR plusminus
ENCODING 177
SWIDTH 600 0
DWIDTH 15 0
BBX 12 13 3 0
BITMAP
0600
0600
0600
0600
FFF0
FFF0
0600
0600
0600
0600
0000
FFF0
FFF0
ENDCHAR
STARTCHAR twosuperior
ENCODING 178
SWIDTH 402 0
DWIDTH 10 0
BBX 10 10 1 7
BITMAP
0700
1D80
39C0
11C0
0380
0700
0C00
3080
7F80
FF00
ENDCHAR
STARTCHAR threesuperior
ENCODING 179
SWIDTH 402 0
DWIDTH 10 0
BBX 8 10 3 7
BITMAP
3C
E7
47
0E
7C
06
07
C7
E6
38
ENDCHAR
STARTCHAR acute
ENCODING 180
SWIDTH 400 0
DWIDTH 10 0
BBX 7 6 5 13
BITMAP
04
0E
1C
38
60
80
ENDCHAR
STARTCHAR mu
ENCODING 181
SWIDTH 634 0
DWIDTH 16 0
BBX 16 19 1 -6
BITMAP
070E
3E0E
0E1E
0E1E
1E3C
1E3C
1C3C
1C7C
3CB8
3CB9
397A
3E7C
7C38
6000
6000
6000
E000
E000
C000
ENDCHAR
STARTCHAR paragraph
ENCODING 182
SWIDTH 580 0
DWIDTH 14 0
BBX 14 21 3 -3
BITMAP
077C
1E60
3E60
7E60
7EE0
FEC0
FCC0
FCC0
FCC0
7DC0
7980
1980
0180
0380
0380
0300
0300
0300
0700
0600
3E00
ENDCHAR
STARTCHAR periodcentered
ENCODING 183
SWIDTH 280 0
DWIDTH 7 0
BBX 4 4 3 4
BITMAP
60
F0
F0
60
ENDCHAR
STARTCHAR cedilla
ENCODING 184
SWIDTH 400 0
DWIDTH 10 0
BBX 5 7 3 -6
BITMAP
10
20
60
78
38
38
E0
ENDCHAR
STARTCHAR onesuperior
ENCODING 185
SWIDTH 402 0
DWIDTH 10 0
BBX 7 10 3 7
BITMAP
0E
3E
1C
1C
1C
1C
38
38
38
FC
ENDCHAR
STARTCHAR ordmasculine
ENCODING 186
SWIDTH 412 0
DWIDTH 10 0
BBX 9 8 3 7
BITMAP
1E00
3300
7380
E380
E380
E700
6600
3C00
ENDCHAR
STARTCHAR guillemotright
ENCODING 187
SWIDTH 560 0
DWIDTH 14 0
BBX 11 11 2 1
BITMAP
2100
2100
3180
19C0
1CC0
1CE0
39C0
3180
6300
4200
8400
ENDCHAR
STARTCHAR onequarter
ENCODING 188
SWIDTH 940 0
DWIDTH 23 0
BBX 18 18 4 0
BITMAP
000100
1E0300
3C0700
1C0600
1C0C00
1C1C00
1C1800
383000
3861C0
38E380
FCC780
018B80
039380
032380
067FC0
0C0700
1C0700
181F80
ENDCHAR
STARTCHAR onehalf
ENCODING 189
SWIDTH 940 0
DWIDTH 23 0
BBX 20 19 3 -1
BITMAP
000100
1E0300
3C0300
1C0600
1C0C00
1C1C00
1C1800
183000
3863C0
386670
FCCE70
0180F0
0300E0
0301C0
060700
0C0C20
081FE0
183FC0
100000
ENDCHAR
STARTCHAR threequarters
ENCODING 190
SWIDTH 940 0
DWIDTH 23 0
BBX 19 19 4 -1
BITMAP
000080
3C0180
E70180
470300
0E0600
7C0E00
060C00
071800
C738E0
E631C0
3863C0
00C5C0
01C9C0
0191C0
033FE0
060380
060380
0C0FC0
040000
ENDCHAR
STARTCHAR questiondown
ENCODING 191
SWIDTH 454 0
DWIDTH 11 0
BBX 11 18 0 -5
BITMAP
00C0
01E0
01E0
01C0
0000
0000
0380
0FC0
01E0
01C0
0380
1E00
3C00
7880
F1C0
F1C0
7380
1F00
ENDCHAR
STARTCHAR Agrave
ENCODING 192
SWIDTH 634 0
DWIDTH 16 0
BBX 17 23 0 0
BITMAP
00E000
00F000
007800
000E00
000000
001C00
003C00
003C00
007C00
007C00
00DC00
009C00
019C00
011C00
031E00
021E00
07FE00
0C1E00
0C1E00
181E00
181E00
301E00
FC7F80
ENDCHAR
STARTCHAR Aacute
ENCODING 193
SWIDTH 634 0
DWIDTH 16 0
BBX 17 23 0 0
BITMAP
000300
000F80
001F00
003800
000000
001C00
003C00
003C00
007C00
007C00
00DC00
009C00
019C00
011C00
031E00
021E00
07FE00
0C1E00
0C1E00
181E00
181E00
301E00
FC7F80
ENDCHAR
STARTCHAR Acircumflex
ENCODING 194
SWIDTH 634 0
DWIDTH 16 0
BBX 17 23 0 0
BITMAP
000C00
001E00
007F00
00E380
000000
001C00
003C00
003C00
007C00
007C00
00DC00
009C00
019C00
011C00
031E00
021E00
07FE00
0C1E00
0C1E00
181E00
181E00
301E00
FC7F80
ENDCHAR
STARTCHAR Atilde
ENCODING 195
SWIDTH 634 0
DWIDTH 16 0
BBX 18 22 -1 0
BITMAP
007000
00F840
018F80
000300
001C00
003C00
003C00
007C00
005C00
00DE00
009E00
019E00
011E00
031E00
021E00
07FE00
041E00
0C0E00
180E00
180F00
300F00
FC3F80
ENDCHAR
STARTCHAR Adieresis
ENCODING 196
SWIDTH 634 0
DWIDTH 16 0
BBX 17 22 0 0
BITMAP
00C300
01E780
01E780
00C300
003800
003C00
007C00
007C00
00FC00
00BC00
01BC00
013C00
031C00
021C00
061C00
07FC00
0C1E00
081E00
181E00
101E00
301E00
FC7F80
ENDCHAR
STARTCHAR Aring
ENCODING 197
SWIDTH 634 0
DWIDTH 16 0
BBX 17 22 0 0
BITMAP
001E00
002300
006300
006600
003C00
003C00
007C00
007C00
00FC00
00BC00
01BC00
011C00
031C00
021C00
061C00
07FC00
0C1E00
081E00
181E00
101E00
301E00
FC7F80
ENDCHAR
STARTCHAR AE
ENCODING 198
SWIDTH 890 0
DWIDTH 22 0
BBX 27 18 -2 0
BITMAP
001FFFE0
0007E0E0
000DE0C0
0009E040
0019C040
0033C000
0063C300
0063C200
00FFFE00
01878600
01078600
03078000
06078000
0E070180
0C0F0100
180F0300
380F0700
FE3FFF00
ENDCHAR
STARTCHAR Ccedilla
ENCODING 199
SWIDTH 672 0
DWIDTH 17 0
BBX 16 24 3 -6
BITMAP
01FC
0787
1E07
3E02
3C02
7802
7800
F800
F000
F000
F000
F000
F004
7004
700C
3818
1C38
07F0
0300
0380
07C0
01C0
01C0
0F00
ENDCHAR
STARTCHAR Egrave
ENCODING 200
SWIDTH 622 0
DWIDTH 16 0
BBX 17 23 1 0
BITMAP
018000
01E000
00F000
001C00
000000
1FFF80
078380
078180
078100
078100
070000
0F0400
0F0C00
0FF800
0F1800
0E0800
1E0000
1E0000
1E0200
1E0600
3C0C00
3C1C00
FFFC00
ENDCHAR
STARTCHAR Eacute
ENCODING 201
SWIDTH 622 0
DWIDTH 16 0
BBX 17 23 1 0
BITMAP
000700
000F00
003E00
007000
000000
1FFF80
078380
078180
078100
078100
070000
0F0400
0F0C00
0FF800
0F1800
0E0800
1E0000
1E0000
1E0200
1E0600
3C0C00
3C1C00
FFFC00
ENDCHAR
STARTCHAR Ecircumflex
ENCODING 202
SWIDTH 622 0
DWIDTH 16 0
BBX 17 23 1 0
BITMAP
001000
003C00
00FE00
038700
000000
1FFF80
078380
078180
078100
078100
070000
0F0400
0F0C00
0FF800
0F1800
0E0800
1E0000
1E0000
1E0200
1E0600
3C0C00
3C1C00
FFFC00
ENDCHAR
STARTCHAR Edieresis
ENCODING 203
SWIDTH 622 0
DWIDTH 16 0
BBX 17 22 1 0
BITMAP
018600
03CF00
03CF00
018600
0FFF80
078300
078300
078100
078100
070000
0F0C00
0F0800
0FF800
0F1800
0E0800
1E0000
1E0000
1E0200
1E0400
1C0C00
3E1C00
FFFC00
ENDCHAR
STARTCHAR Igrave
ENCODING 204
SWIDTH 386 0
DWIDTH 10 0
BBX 12 23 1 0
BITMAP
0E00
0F00
07C0
00E0
0000
0FF0
03C0
0780
0780
0780
0780
0700
0F00
0F00
0F00
0F00
0E00
1E00
1E00
1E00
1E00
3C00
FF00
ENDCHAR
STARTCHAR Iacute
ENCODING 205
SWIDTH 386 0
DWIDTH 10 0
BBX 12 23 1 0
BITMAP
0070
00F0
03E0
0700
0000
1FE0
0780
0780
0780
0700
0F00
0F00
0F00
0F00
0E00
1E00
1E00
1E00
1E00
1C00
3C00
3C00
FF00
ENDCHAR
STARTCHAR Icircumflex
ENCODING 206
SWIDTH 386 0
DWIDTH 10 0
BBX 13 23 1 0
BITMAP
0080
01E0
07F0
1C38
0000
0FF0
03C0
0780
0780
0780
0780
0700
0F00
0F00
0F00
0F00
0E00
1E00
1E00
1E00
1E00
3C00
FF00
ENDCHAR
STARTCHAR Idieresis
ENCODING 207
SWIDTH 386 0
DWIDTH 10 0
BBX 13 22 1 0
BITMAP
0C30
1E78
1E78
0C30
0FE0
0780
0780
0780
0780
0700
0F00
0F00
0F00
0F00
0E00
1E00
1E00
1E00
1E00
1C00
3C00
FF00
ENDCHAR
STARTCHAR Eth
ENCODING 208
SWIDTH 780 0
DWIDTH 19 0
BBX 20 18 1 0
BITMAP
1FFE00
0783C0
0781C0
0780E0
0700E0
0F00F0
0F00F0
0F00F0
7FF0F0
1E00F0
1E01E0
1E01E0
1E03E0
1C03C0
3C07C0
3C0F80
3C3E00
FFF000
ENDCHAR
STARTCHAR Ntilde
ENCODING 209
SWIDTH 741 0
DWIDTH 19 0
BBX 21 22 1 0
BITMAP
007000
00F840
008780
000300
0F81F8
07C060
07C060
07E040
05E0C0
04E0C0
0CF0C0
0CF080
0C7880
087980
083980
183D80
183D00
181F00
101F00
300F00
300E00
FC0E00
ENDCHAR
STARTCHAR Ograve
ENCODING 210
SWIDTH 761 0
DWIDTH 19 0
BBX 17 23 3 0
BITMAP
060000
078000
07C000
00E000
001000
01F800
0F0E00
1E0600
3E0700
3C0780
780780
780780
780780
F80780
F00F80
F00F00
F00F00
F00F00
F01E00
703E00
383C00
187800
0FE000
ENDCHAR
STARTCHAR Oacute
ENCODING 211
SWIDTH 761 0
DWIDTH 19 0
BBX 17 23 3 0
BITMAP
000400
001E00
003C00
00F000
008000
01F800
0F0E00
1E0600
3E0700
3C0780
780780
780780
780780
F80780
F00F80
F00F00
F00F00
F00F00
F01E00
703E00
383C00
187800
0FE000
ENDCHAR
STARTCHAR Ocircumflex
ENCODING 212
SWIDTH 761 0
DWIDTH 19 0
BBX 17 23 3 0
BITMAP
001000
007800
00FC00
038600
020200
01F800
0F0E00
1E0600
3E0700
3C0780
780780
780780
780780
F80780
F00F80
F00F00
F00F00
F00F00
F01E00
703E00
383C00
187800
0FE000
ENDCHAR
STARTCHAR Otilde
ENCODING 213
SWIDTH 761 0
DWIDTH 19 0
BBX 17 22 3 0
BITMAP
01C000
03E300
063E00
021C00
01F800
0F0E00
1E0600
3E0700
3C0780
780780
780780
780780
F80780
F00F80
F00F00
F00F00
F00F00
F01E00
703E00
383C00
187800
0FE000
ENDCHAR
STARTCHAR Odieresis
ENCODING 214
SWIDTH 761 0
DWIDTH 19 0
BBX 17 22 3 0
BITMAP
030600
078F00
078F00
030600
01F800
0F0E00
1E0600
3E0700
3C0780
780780
780780
780780
F80780
F00F80
F00F00
F00F00
F00F00
F01E00
703E00
383C00
187800
0FE000
ENDCHAR
STARTCHAR multiply
ENCODING 215
SWIDTH 600 0
DWIDTH 15 0
BBX 11 11 4 1
BITMAP
4040
E0E0
71C0
3B80
1F00
0E00
1F00
3B80
71C0
E0E0
4040
ENDCHAR
STARTCHAR Oslash
ENCODING 216
SWIDTH 761 0
DWIDTH 19 0
BBX 17 20 3 -1
BITMAP
000100
01F300
0F0E00
1E0600
3E0F00
3C1F00
783780
782780
784780
F8C780
F18F80
F10F00
F20F00
F60F00
FC1E00
783E00
703C00
387800
67E000
400000
ENDCHAR
STARTCHAR Ugrave
ENCODING 217
SWIDTH 776 0
DWIDTH 19 0
BBX 19 23 4 0
BITMAP
0E0000
0F0000
07C000
00E000
000000
7F9FE0
3C0780
3C0700
3C0F00
3C0F00
380F00
780F00
780E00
781E00
781E00
701E00
F01C00
F03C00
F03C00
F03800
707800
78F000
1FC000
ENDCHAR
STARTCHAR Uacute
ENCODING 218
SWIDTH 776 0
DWIDTH 19 0
BBX 19 23 4 0
BITMAP
000300
000F80
001E00
007000
000000
7F9FE0
3C0780
3C0700
3C0F00
3C0F00
380F00
780F00
780E00
781E00
781E00
701E00
F01C00
F03C00
F03C00
F03800
707800
78F000
1FC000
ENDCHAR
STARTCHAR Ucircumflex
ENCODING 219
SWIDTH 776 0
DWIDTH 19 0
BBX 19 23 4 0
BITMAP
002000
00F000
01F800
070E00
000000
7F9FE0
3C0780
3C0700
3C0F00
3C0F00
380F00
780F00
780E00
781E00
781E00
701E00
F01C00
F03C00
F03C00
F03800
707800
78F000
1FC000
ENDCHAR
STARTCHAR Udieresis
ENCODING 220
SWIDTH 776 0
DWIDTH 19 0
BBX 19 22 4 0
BITMAP
030C00
079E00
079E00
030C00
7F9FE0
3E0F80
3C0F00
3C0F00
3C0F00
3C0F00
780E00
781E00
781E00
781E00
701C00
F01C00
F03C00
F03C00
F03800
707800
78F000
1FC000
ENDCHAR
STARTCHAR Yacute
ENCODING 221
SWIDTH 622 0
DWIDTH 16 0
BBX 17 23 3 0
BITMAP
000700
000F00
003E00
007000
000000
FF3F80
3C0E00
3C0C00
3C1800
1C3800
1E3000
1E6000
1E4000
0EC000
0F8000
0F0000
0F0000
0F0000
0F0000
1E0000
1E0000
1E0000
FF8000
ENDCHAR
STARTCHAR Thorn
ENCODING 222
SWIDTH 629 0
DWIDTH 16 0
BBX 16 18 1 0
BITMAP
1FE0
0780
0780
0780
07F8
0F1E
0F0F
0F0F
0F0F
1E0F
1E1F
1E1E
1E3C
1FF0
3C00
3C00
3C00
FF00
ENDCHAR
STARTCHAR germandbls
ENCODING 223
SWIDTH 628 0
DWIDTH 16 0
BBX 20 25 -2 -6
BITMAP
0007C0
0038E0
007870
00F070
00F070
00E0E0
07E1E0
01C780
01C700
03CF00
03CF00
03CF80
038780
0383C0
0783C0
0781C0
0711C0
073980
071F00
070000
0E0000
0E0000
CE0000
EC0000
F80000
ENDCHAR
STARTCHAR agrave
ENCODING 224
SWIDTH 596 0
DWIDTH 15 0
BBX 15 19 1 0
BITMAP
0600
0F00
0780
01C0
0060
0020
03DC
073C
1E3C
3C38
3878
7878
78F8
70F0
F170
F1F2
F2F4
FCF8
7070
ENDCHAR
STARTCHAR aacute
ENCODING 225
SWIDTH 596 0
DWIDTH 15 0
BBX 15 19 1 0
BITMAP
000C
003C
0078
00E0
00C0
0100
03DC
073C
1E3C
3C38
3878
7878
78F8
70F0
F170
F1F2
F2F4
FCF8
7070
ENDCHAR
STARTCHAR acircumflex
ENCODING 226
SWIDTH 596 0
DWIDTH 15 0
BBX 15 19 1 0
BITMAP
0020
00F0
01F0
0398
060C
0404
03DC
073C
1E3C
3C38
3878
7878
78F8
70F0
F170
F1F2
F2F4
FCF8
7070
ENDCHAR
STARTCHAR atilde
ENCODING 227
SWIDTH 596 0
DWIDTH 15 0
BBX 15 18 1 0
BITMAP
0002
03E6
07FC
0C38
0000
03DC
073C
1E3C
3C38
3878
7878
78F8
70F0
F170
F1F2
F2F4
FCF8
7070
ENDCHAR
STARTCHAR adieresis
ENCODING 228
SWIDTH 596 0
DWIDTH 15 0
BBX 15 18 1 0
BITMAP
030C
079E
079E
030C
0000
03DC
073C
1E3C
3C38
3878
7878
78F8
70F0
F170
F1F2
F2F4
FCF8
7070
ENDCHAR
STARTCHAR aring
ENCODING 229
SWIDTH 596 0
DWIDTH 15 0
BBX 15 19 1 0
BITMAP
00E0
0190
0318
0318
0130
00E0
03DC
073C
1E3C
3C38
3878
7878
78F8
70F0
F170
F1F2
F2F4
FCF8
7070
ENDCHAR
STARTCHAR ae
ENCODING 230
SWIDTH 789 0
DWIDTH 20 0
BBX 20 13 1 0
BITMAP
01E9C0
071E70
1E1C70
3C3C70
3838E0
7878E0
787B80
F0FC00
F1F820
F17840
F238C0
7C3F80
700C00
ENDCHAR
STARTCHAR ccedilla
ENCODING 231
SWIDTH 456 0
DWIDTH 11 0
BBX 11 19 2 -6
BITMAP
03C0
0CE0
38E0
38C0
7800
7000
F000
F000
F0C0
F080
F180
7F00
3C00
1000
3000
3C00
1C00
1C00
7000
ENDCHAR
STARTCHAR egrave
ENCODING 232
SWIDTH 476 0
DWIDTH 12 0
BBX 11 19 2 0
BITMAP
0800
1C00
0E00
0700
0180
0080
0380
0CE0
38E0
38E0
79C0
73C0
FF00
F800
F040
F080
F180
7F00
1800
ENDCHAR
STARTCHAR eacute
ENCODING 233
SWIDTH 476 0
DWIDTH 12 0
BBX 12 19 2 0
BITMAP
0020
0070
00E0
01C0
0300
0200
0380
0CE0
38E0
38E0
79C0
73C0
FF00
F800
F040
F080
F180
7F00
1800
ENDCHAR
STARTCHAR ecircumflex
ENCODING 234
SWIDTH 476 0
DWIDTH 12 0
BBX 12 19 2 0
BITMAP
0180
0380
07C0
0E60
1830
1020
0380
0CE0
38E0
38E0
79C0
73C0
FF00
F800
F040
F080
F180
7F00
1800
ENDCHAR
STARTCHAR edieresis
ENCODING 235
SWIDTH 476 0
DWIDTH 12 0
BBX 12 18 2 0
BITMAP
1860
3CF0
3CF0
1860
0000
0380
0CE0
38E0
38E0
79C0
73C0
FF00
F800
F040
F080
F180
7F00
1800
ENDCHAR
STARTCHAR igrave
ENCODING 236
SWIDTH 339 0
DWIDTH 8 0
BBX 7 19 2 0
BITMAP
40
F0
78
3C
0C
02
0E
FC
3C
3C
38
38
78
78
70
72
F4
F8
70
ENDCHAR
STARTCHAR iacute
ENCODING 237
SWIDTH 339 0
DWIDTH 8 0
BBX 9 19 2 0
BITMAP
0100
0780
0F00
1E00
3800
2000
0E00
FC00
3C00
3C00
3800
3800
7800
7800
7000
7200
F400
F800
7000
ENDCHAR
STARTCHAR icircumflex
ENCODING 238
SWIDTH 339 0
DWIDTH 8 0
BBX 10 19 1 0
BITMAP
0600
0F00
1F00
3180
E0C0
4040
0700
7E00
1E00
1E00
1C00
1C00
3C00
3C00
3800
3900
7A00
7C00
3800
ENDCHAR
STARTCHAR idieresis
ENCODING 239
SWIDTH 339 0
DWIDTH 8 0
BBX 10 18 2 0
BITMAP
6180
F3C0
F3C0
6180
0000
0E00
FE00
3C00
3C00
3C00
3800
7800
7800
7000
7200
F400
FC00
7000
ENDCHAR
STARTCHAR eth
ENCODING 240
SWIDTH 562 0
DWIDTH 14 0
BBX 13 19 2 0
BITMAP
0C00
0618
0370
01C0
1EC0
00E0
03F0
1E70
3C78
7878
7878
7878
F8F8
F0F0
F0F0
F0E0
71E0
73C0
1E00
ENDCHAR
STARTCHAR ntilde
ENCODING 241
SWIDTH 635 0
DWIDTH 16 0
BBX 15 18 2 0
BITMAP
0004
07CC
0FF8
0870
0000
0E38
7CFC
1D3C
3D3C
3A38
3C78
3C78
7878
7870
78F2
70F4
F0F8
F070
ENDCHAR
STARTCHAR ograve
ENCODING 242
SWIDTH 562 0
DWIDTH 14 0
BBX 13 19 2 0
BITMAP
0800
0E00
0F00
0380
01C0
0040
03C0
1E70
3C70
3878
7878
7878
F8F8
F0F0
F0F0
F0E0
71E0
73C0
1E00
ENDCHAR
STARTCHAR oacute
ENCODING 243
SWIDTH 562 0
DWIDTH 14 0
BBX 13 19 2 0
BITMAP
0010
0078
0070
00E0
0180
0200
03C0
1E70
3C70
3878
7878
7878
F8F8
F0F0
F0F0
F0E0
71E0
73C0
1E00
ENDCHAR
STARTCHAR ocircumflex
ENCODING 244
SWIDTH 562 0
DWIDTH 14 0
BBX 13 19 2 0
BITMAP
0080
01C0
03E0
0660
0830
1010
03C0
1E70
3C70
3878
7878
7878
F8F8
F0F0
F0F0
F0E0
71E0
73C0
1E00
ENDCHAR
STARTCHAR otilde
ENCODING 245
SWIDTH 562 0
DWIDTH 14 0
BBX 14 18 2 0
BITMAP
0008
078C
0FF8
10F0
0000
03C0
1E70
3C70
3878
7878
7878
F8F8
F0F0
F0F0
F0E0
71E0
73C0
1E00
ENDCHAR
STARTCHAR odieresis
ENCODING 246
SWIDTH 562 0
DWIDTH 14 0
BBX 14 18 2 0
BITMAP
0618
0F3C
0F3C
0618
0000
03C0
1E70
3C70
3878
7878
7878
F8F8
F0F0
F0F0
F0E0
71E0
73C0
1E00
ENDCHAR
STARTCHAR divide
ENCODING 247
SWIDTH 600 0
DWIDTH 15 0
BBX 12 12 3 0
BITMAP
0600
0F00
0F00
0600
0000
FFF0
FFF0
0000
0600
0F00
0F00
0600
ENDCHAR
STARTCHAR oslash
ENCODING 248
SWIDTH 562 0
DWIDTH 14 0
BBX 13 16 2 -2
BITMAP
0030
03A0
1E60
3CF0
38F0
7978
7978
FA78
F6F0
F4F0
F8E0
79E0
33C0
3E00
6000
2000
ENDCHAR
STARTCHAR ugrave
ENCODING 249
SWIDTH 634 0
DWIDTH 16 0
BBX 15 19 2 0
BITMAP
1800
1C00
1E00
0700
0180
0040
0E1C
FC1C
3C3C
3C3C
3878
7878
7878
78F8
7170
F172
F2F4
FCF8
7070
ENDCHAR
STARTCHAR uacute
ENCODING 250
SWIDTH 634 0
DWIDTH 16 0
BBX 15 19 2 0
BITMAP
0004
001E
003C
0078
00E0
0080
0E1C
FC1C
3C3C
3C3C
3878
7878
7878
78F8
7170
F172
F2F4
FCF8
7070
ENDCHAR
STARTCHAR ucircumflex
ENCODING 251
SWIDTH 634 0
DWIDTH 16 0
BBX 15 19 2 0
BITMAP
00C0
01E0
03E0
0630
0C18
1008
0E1C
FC1C
3C3C
3C3C
3878
7878
7878
78F8
7170
F172
F2F4
FCF8
7070
ENDCHAR
STARTCHAR udieresis
ENCODING 252
SWIDTH 634 0
DWIDTH 16 0
BBX 15 18 2 0
BITMAP
0618
0F3C
0F3C
0618
0000
0E1C
FC1C
3C3C
3C3C
3878
7878
7878
78F8
7170
F172
F2F4
FCF8
7070
ENDCHAR
STARTCHAR yacute
ENCODING 253
SWIDTH 489 0
DWIDTH 12 0
BBX 14 25 0 -6
BITMAP
0008
001C
0038
0070
00C0
0100
020C
1E1C
7E1C
0E18
0E18
0E30
0F30
0F20
0F60
0740
07C0
0780
0700
0700
0600
4400
EC00
F800
7000
ENDCHAR
STARTCHAR thorn
ENCODING 254
SWIDTH 600 0
DWIDTH 15 0
BBX 15 24 1 -6
BITMAP
0300
3F00
0F00
0F00
0E00
0E38
1E7C
1E9E
1D1E
1E1E
1E1E
3C3C
3C3C
3C38
3878
7870
78E0
7780
7000
7000
F000
F000
E000
E000
ENDCHAR
STARTCHAR ydieresis
ENCODING 255
SWIDTH 489 0
DWIDTH 12 0
BBX 14 24 0 -6
BITMAP
0618
0F3C
0F3C
0618
0000
020C
1E1C
7E1C
0E18
0E18
0E30
0F30
0F20
0F60
0740
07C0
0780
0700
0700
0600
4400
EC00
F800
7000
ENDCHAR
STARTCHAR Amacron
ENCODING 256
SWIDTH 634 0
DWIDTH 16 0
BBX 17 21 0 0
BITMAP
01FE00
01FE00
000000
001C00
003C00
003C00
007C00
007C00
00DC00
009C00
019C00
011C00
031E00
021E00
07FE00
0C1E00
0C1E00
181E00
181E00
301E00
FC7F80
ENDCHAR
STARTCHAR amacron
ENCODING 257
SWIDTH 596 0
DWIDTH 15 0
BBX 15 16 1 0
BITMAP
0FF0
0FF0
0000
03DC
073C
1E3C
3C38
3878
7878
78F8
70F0
F170
F1F2
F2F4
FCF8
7070
ENDCHAR
STARTCHAR Abreve
ENCODING 258
SWIDTH 634 0
DWIDTH 16 0
BBX 17 23 0 0
BITMAP
010200
010400
01FC00
00F000
000000
001C00
003C00
003C00
007C00
007C00
00DC00
009C00
019C00
011C00
031E00
021E00
07FE00
0C1E00
0C1E00
181E00
181E00
301E00
FC7F80
ENDCHAR
STARTCHAR abreve
ENCODING 259
SWIDTH 596 0
DWIDTH 15 0
BBX 15 18 1 0
BITMAP
0408
0410
07F0
03C0
0000
03DC
073C
1E3C
3C38
3878
7878
78F8
70F0
F170
F1F2
F2F4
FCF8
7070
ENDCHAR
STARTCHAR Aogonek
ENCODING 260
SWIDTH 634 0
DWIDTH 16 0
BBX 17 24 0 -6
BITMAP
001C00
003C00
003C00
007C00
007C00
00DC00
009C00
019C00
011C00
031E00
021E00
07FE00
0C1E00
0C1E00
181E00
181E00
301E00
FC7F80
002000
00C000
008000
018000
018000
00F000
ENDCHAR
STARTCHAR aogonek
ENCODING 261
SWIDTH 596 0
DWIDTH 15 0
BBX 15 19 1 -6
BITMAP
03DC
073C
1E3C
3C38
3878
7878
78F8
70F0
F170
F1F2
F2F4
FCF8
7070
0100
0600
0400
0C00
0C00
0780
ENDCHAR
STARTCHAR Cacute
ENCODING 262
SWIDTH 672 0
DWIDTH 17 0
BBX 16 25 3 0
BITMAP
0010
0038
0070
00E0
0180
0200
0000
01FC
0707
1E07
3C02
3C02
7802
7800
F800
F000
F000
F000
F000
F004
700C
700C
7818
1C38
07E0
ENDCHAR
STARTCHAR cacute
ENCODING 263
SWIDTH 456 0
DWIDTH 11 0
BBX 11 20 2 0
BITMAP
0040
00E0
01C0
0380
0600
0800
0000
03C0
0CE0
38E0
38C0
7800
7000
F000
F000
F040
F080
F180
7F00
3800
ENDCHAR
STARTCHAR Ccircumflex
ENCODING 264
SWIDTH 672 0
DWIDTH 17 0
BBX 16 25 3 0
BITMAP
0040
00E0
01E0
0330
0618
0808
0000
01FC
0707
1E07
3C02
3C02
7802
7800
F800
F000
F000
F000
F000
F004
700C
700C
7818
1C38
07E0
ENDCHAR
STARTCHAR ccircumflex
ENCODING 265
SWIDTH 456 0
DWIDTH 11 0
BBX 11 20 2 0
BITMAP
0100
0380
0780
0CC0
1860
2020
0000
03C0
0CE0
38E0
38C0
7800
7000
F000
F000
F040
F080
F180
7F00
3800
ENDCHAR
STARTCHAR Cdotaccent
ENCODING 266
SWIDTH 672 0
DWIDTH 17 0
BBX 16 23 3 0
BITMAP
0180
03C0
03C0
0180
0000
01FC
0707
1E07
3C02
3C02
7802
7800
F800
F000
F000
F000
F000
F004
700C
700C
7818
1C38
07E0
ENDCHAR
STARTCHAR cdotaccent
ENCODING 267
SWIDTH 456 0
DWIDTH 11 0
BBX 11 18 2 0
BITMAP
0600
0F00
0F00
0600
0000
03C0
0CE0
38E0
38C0
7800
7000
F000
F000
F040
F080
F180
7F00
3800
ENDCHAR
STARTCHAR Ccaron
ENCODING 268
SWIDTH 672 0
DWIDTH 17 0
BBX 16 25 3 0
BITMAP
0404
0618
0330
01E0
01C0
0080
0000
01FC
0707
1E07
3C02
3C02
7802
7800
F800
F000
F000
F000
F000
F004
700C
700C
7818
1C38
07E0
ENDCHAR
STARTCHAR ccaron
ENCODING 269
SWIDTH 456 0
DWIDTH 11 0
BBX 12 20 2 0
BITMAP
1010
1860
0CC0
0780
0700
0200
0000
03C0
0CE0
38E0
38C0
7800
7000
F000
F000
F040
F080
F180
7F00
3800
ENDCHAR
STARTCHAR Dcaron
ENCODING 270
SWIDTH 774 0
DWIDTH 19 0
BBX 19 25 1 0
BITMAP
020200
030C00
019800
00F000
00E000
004000
000000
1FFC00
078780
078380
0781C0
0701C0
0F01E0
0F01E0
0F01E0
0F01E0
1E01E0
1E03C0
1E03C0
1E03C0
1E0780
3C0780
3C0F00
3C3C00
FFF000
ENDCHAR
STARTCHAR dcaron
ENCODING 271
SWIDTH 825 0
DWIDTH 20 0
BBX 20 19 2 0
BITMAP
000700
003E60
001EF0
001EF0
001E70
001C60
03DCC0
0F3C80
1C3D00
3C3800
387800
787800
78F800
F0F000
F17000
F17200
F2F400
7CF800
787000
ENDCHAR
STARTCHAR Dcroat
ENCODING 272
SWIDTH 780 0
DWIDTH 19 0
BBX 20 18 1 0
BITMAP
1FFE00
0783C0
0781C0
0780E0
0700E0
0F00F0
0F00F0
0F00F0
7FF0F0
1E00F0
1E01E0
1E01E0
1E03E0
1C03C0
3C07C0
3C0F80
3C3E00
FFF000
ENDCHAR
STARTCHAR dcroat
ENCODING 273
SWIDTH 609 0
DWIDTH 15 0
BBX 18 19 2 0
BITMAP
000700
003E00
001E00
001E00
001E00
03FFC0
03DC00
0F3C00
1C3C00
3C3800
387800
787800
78F800
F0F000
F17000
F17200
F2F400
7CF800
787000
ENDCHAR
STARTCHAR Emacron
ENCODING 274
SWIDTH 622 0
DWIDTH 16 0
BBX 17 21 1 0
BITMAP
07F800
07F800
000000
1FFF80
078380
078180
078100
078100
070000
0F0400
0F0C00
0FF800
0F1800
0E0800
1E0000
1E0000
1E0200
1E0600
3C0C00
3C1C00
FFFC00
ENDCHAR
STARTCHAR emacron
ENCODING 275
SWIDTH 476 0
DWIDTH 12 0
BBX 11 16 2 0
BITMAP
3FC0
3FC0
0000
0380
0CE0
38E0
38E0
79C0
73C0
FF00
F800
F040
F080
F180
7F00
1800
ENDCHAR
STARTCHAR Ebreve
ENCODING 276
SWIDTH 622 0
DWIDTH 16 0
BBX 17 23 1 0
BITMAP
020400
020800
03F800
01E000
000000
1FFF80
078380
078180
078100
078100
070000
0F0400
0F0C00
0FF800
0F1800
0E0800
1E0000
1E0000
1E0200
1E0600
3C0C00
3C1C00
FFFC00
ENDCHAR
STARTCHAR ebreve
ENCODING 277
SWIDTH 476 0
DWIDTH 12 0
BBX 11 18 2 0
BITMAP
1020
1040
1FC0
0F00
0000
0380
0CE0
38E0
38E0
79C0
73C0
FF00
F800
F040
F080
F180
7F00
1800
ENDCHAR
STARTCHAR Edotaccent
ENCODING 278
SWIDTH 622 0
DWIDTH 16 0
BBX 17 23 1 0
BITMAP
00C000
01E000
01E000
00C000
000000
1FFF80
078380
078180
078100
078100
070000
0F0400
0F0C00
0FF800
0F1800
0E0800
1E0000
1E0000
1E0200
1E0600
3C0C00
3C1C00
FFFC00
ENDCHAR
STARTCHAR edotaccent
ENCODING 279
SWIDTH 476 0
DWIDTH 12 0
BBX 11 18 2 0
BITMAP
0600
0F00
0F00
0600
0000
0380
0CE0
38E0
38E0
79C0
73C0
FF00
F800
F040
F080
F180
7F00
1800
ENDCHAR
STARTCHAR Eogonek
ENCODING 280
SWIDTH 622 0
DWIDTH 16 0
BBX 17 24 1 -6
BITMAP
1FFF80
078380
078180
078100
078100
070000
0F0400
0F0C00
0FF800
0F1800
0E0800
1E0000
1E0000
1E0200
1E0600
3C0C00
3C1C00
FFFC00
008000
030000
020000
060000
060000
03C000
ENDCHAR
STARTCHAR eogonek
ENCODING 281
SWIDTH 476 0
DWIDTH 12 0
BBX 11 19 2 -6
BITMAP
0380
0CE0
38E0
38E0
79C0
73C0
FF00
F800
F040
F080
F180
7F00
1800
0400
1800
1000
3000
3000
1E00
ENDCHAR
STARTCHAR Ecaron
ENCODING 282
SWIDTH 622 0
DWIDTH 16 0
BBX 17 25 1 0
BITMAP
020200
030C00
019800
00F000
00E000
004000
000000
1FFF80
078380
078180
078100
078100
070000
0F0400
0F0C00
0FF800
0F1800
0E0800
1E0000
1E0000
1E0200
1E0600
3C0C00
3C1C00
FFFC00
ENDCHAR
STARTCHAR ecaron
ENCODING 283
SWIDTH 476 0
DWIDTH 12 0
BBX 12 20 2 0
BITMAP
1010
1860
0CC0
0780
0700
0200
0000
0380
0CE0
38E0
38E0
79C0
73C0
FF00
F800
F040
F080
F180
7F00
1800
ENDCHAR
STARTCHAR Gcircumflex
ENCODING 284
SWIDTH 726 0
DWIDTH 18 0
BBX 17 25 3 0
BITMAP
004000
00E000
01E000
033000
061800
080800
000000
01FC00
070700
1E0300
3C0300
3C0300
780200
780000
780000
F00000
F00000
F07F80
F01E00
F01E00
F03C00
703C00
383C00
3C7C00
0FE000
ENDCHAR
STARTCHAR gcircumflex
ENCODING 285
SWIDTH 522 0
DWIDTH 13 0
BBX 16 26 0 -6
BITMAP
0040
00E0
01E0
0330
0618
0808
0000
03E7
0F3E
0F38
1E3C
1E3C
1E3C
1E38
0E70
0FC0
3C00
3F00
1FE0
0FF0
78F8
F038
F038
F038
7870
0FC0
ENDCHAR
STARTCHAR Gbreve
ENCODING 286
SWIDTH 726 0
DWIDTH 18 0
BBX 17 23 3 0
BITMAP
040800
041000
07F000
03C000
000000
01FC00
070700
1E0300
3C0300
3C0300
780200
780000
780000
F00000
F00000
F07F80
F01E00
F01E00
F03C00
703C00
383C00
3C7C00
0FE000
ENDCHAR
STARTCHAR gbreve
ENCODING 287
SWIDTH 522 0
DWIDTH 13 0
BBX 16 24 0 -6
BITMAP
0408
0410
07F0
03C0
0000
03E7
0F3E
0F38
1E3C
1E3C
1E3C
1E38
0E70
0FC0
3C00
3F00
1FE0
0FF0
78F8
F038
F038
F038
7870
0FC0
ENDCHAR
STARTCHAR Gdotaccent
ENCODING 288
SWIDTH 726 0
DWIDTH 18 0
BBX 17 23 3 0
BITMAP
00C000
01E000
01E000
00C000
000000
01FC00
070700
1E0300
3C0300
3C0300
780200
780000
780000
F00000
F00000
F07F80
F01E00
F01E00
F03C00
703C00
383C00
3C7C00
0FE000
ENDCHAR
STARTCHAR gdotaccent
ENCODING 289
SWIDTH 522 0
DWIDTH 13 0
BBX 16 24 0 -6
BITMAP
00C0
01E0
01E0
00C0
0000
03E7
0F3E
0F38
1E3C
1E3C
1E3C
1E38
0E70
0FC0
3C00
3F00
1FE0
0FF0
78F8
F038
F038
F038
7870
0FC0
ENDCHAR
STARTCHAR Gcommaaccent
ENCODING 290
SWIDTH 726 0
DWIDTH 18 0
BBX 17 28 3 -10
BITMAP
01FC00
070700
1E0300
3C0300
3C0300
780200
780000
780000
F00000
F00000
F07F80
F01E00
F01E00
F03C00
703C00
383C00
3C7C00
0FE000
000000
018000
03C000
03C000
03C000
018000
038000
030000
060000
040000
ENDCHAR
STARTCHAR gcommaaccent
ENCODING 291
SWIDTH 522 0
DWIDTH 13 0
BBX 16 28 0 -6
BITMAP
0010
0020
0060
00C0
01C0
01E0
01E0
00C0
0000
03E7
0F3E
0F38
1E3C
1E3C
1E3C
1E38
0E70
0FC0
3C00
3F00
1FE0
0FF0
78F8
F038
F038
F038
7870
0FC0
ENDCHAR
STARTCHAR Hcircumflex
ENCODING 292
SWIDTH 800 0
DWIDTH 20 0
BBX 22 25 1 0
BITMAP
000800
001C00
003C00
006600
00C300
010100
000000
0FF3FC
0780F0
0780E0
0781E0
0781E0
0781E0
0F01E0
0F01C0
0FFFC0
0F03C0
0E03C0
1E03C0
1E0780
1E0780
1E0780
1C0780
3C0780
FF3FC0
ENDCHAR
STARTCHAR hcircumflex
ENCODING 293
SWIDTH 629 0
DWIDTH 16 0
BBX 15 26 2 0
BITMAP
0200
0700
0F00
1980
30C0
4040
0000
0700
3F00
0E00
0E00
1E00
1E00
1C38
1CFC
1D3C
3D3C
3A38
3C38
3C78
7878
7870
78F2
70F4
70F8
F070
ENDCHAR
STARTCHAR Hbar
ENCODING 294
SWIDTH 800 0
DWIDTH 20 0
BBX 22 18 1 0
BITMAP
0FF3FC
0780F0
0780E0
0781E0
0781E0
FFFFFC
0F01E0
0F01C0
0FFFC0
0F03C0
0E03C0
1E03C0
1E0780
1E0780
1E0780
1C0780
3C0780
FF3FC0
ENDCHAR
STARTCHAR hbar
ENCODING 295
SWIDTH 629 0
DWIDTH 16 0
BBX 17 19 0 0
BITMAP
01C000
0FC000
038000
038000
078000
FFF000
070E00
073F00
074F00
0F4F00
0E8E00
0F0E00
0F1E00
1E1E00
1E1C00
1E3C80
1C3D00
1C3E00
3C1C00
ENDCHAR
STARTCHAR Itilde
ENCODING 296
SWIDTH 386 0
DWIDTH 10 0
BBX 12 23 1 0
BITMAP
0410
1FE0
37E0
2080
0000
0FF0
03C0
0780
0780
0780
0780
0700
0F00
0F00
0F00
0F00
0E00
1E00
1E00
1E00
1E00
3C00
FF00
ENDCHAR
STARTCHAR itilde
ENCODING 297
SWIDTH 339 0
DWIDTH 8 0
BBX 10 18 1 0
BITMAP
1040
7F80
DF80
8200
0000
0700
7E00
1E00
1E00
1C00
1C00
3C00
3C00
3800
3900
7A00
7C00
3800
ENDCHAR
STARTCHAR Imacron
ENCODING 298
SWIDTH 386 0
DWIDTH 10 0
BBX 12 21 1 0
BITMAP
1FE0
1FE0
0000
0FF0
03C0
0780
0780
0780
0780
0700
0F00
0F00
0F00
0F00
0E00
1E00
1E00
1E00
1E00
3C00
FF00
ENDCHAR
STARTCHAR imacron
ENCODING 299
SWIDTH 339 0
DWIDTH 8 0
BBX 8 16 2 0
BITMAP
FF
FF
00
0E
FC
3C
3C
38
38
78
78
70
72
F4
F8
70
ENDCHAR
STARTCHAR Ibreve
ENCODING 300
SWIDTH 386 0
DWIDTH 10 0
BBX 12 23 1 0
BITMAP
1020
1040
1FC0
0F00
0000
0FF0
03C0
0780
0780
0780
0780
0700
0F00
0F00
0F00
0F00
0E00
1E00
1E00
1E00
1E00
3C00
FF00
ENDCHAR
STARTCHAR ibreve
ENCODING 301
SWIDTH 339 0
DWIDTH 8 0
BBX 8 18 2 0
BITMAP
81
82
FE
78
00
0E
FC
3C
3C
38
38
78
78
70
72
F4
F8
70
ENDCHAR
STARTCHAR Iogonek
ENCODING 302
SWIDTH 386 0
DWIDTH 10 0
BBX 12 24 1 -6
BITMAP
0FF0
03C0
0780
0780
0780
0780
0700
0F00
0F00
0F00
0F00
0E00
1E00
1E00
1E00
1E00
3C00
FF00
0200
0C00
0800
1800
1800
0F00
ENDCHAR
STARTCHAR iogonek
ENCODING 303
SWIDTH 339 0
DWIDTH 8 0
BBX 8 24 2 -6
BITMAP
06
0F
0F
06
00
0E
FC
3C
3C
38
38
78
78
70
72
F4
F8
70
08
30
20
60
60
3C
ENDCHAR
STARTCHAR Idotaccent
ENCODING 304
SWIDTH 386 0
DWIDTH 10 0
BBX 12 23 1 0
BITMAP
0300
0780
0780
0300
0000
0FF0
03C0
0780
0780
0780
0780
0700
0F00
0F00
0F00
0F00
0E00
1E00
1E00
1E00
1E00
3C00
FF00
ENDCHAR
STARTCHAR dotlessi
ENCODING 305
SWIDTH 339 0
DWIDTH 8 0
BBX 7 13 2 0
BITMAP
0E
FC
3C
3C
38
38
78
78
70
72
F4
F8
70
ENDCHAR
STARTCHAR IJ
ENCODING 306
SWIDTH 755 0
DWIDTH 20 0
BBX 22 21 1 -3
BITMAP
0FF3FC
03C0F0
0780F0
0780E0
0781E0
0781E0
0701E0
0F01C0
0F03C0
0F03C0
0F03C0
0E03C0
1E0380
1E0780
1E0780
1E0780
3C0700
FF0F00
000F00
001E00
007800
ENDCHAR
STARTCHAR ij
ENCODING 307
SWIDTH 655 0
DWIDTH 16 0
BBX 16 24 2 -6
BITMAP
0606
0F0F
0F0F
060E
0000
0E06
FC7E
3C1E
3C1E
381C
381C
781C
783C
703C
7238
F438
F878
7078
0070
0070
0070
04E0
0EE0
0780
ENDCHAR
STARTCHAR Jcircumflex
ENCODING 308
SWIDTH 388 0
DWIDTH 10 0
BBX 13 28 0 -3
BITMAP
0080
01C0
03C0
0660
0C30
1010
0000
07F8
01E0
01E0
01C0
03C0
03C0
03C0
0380
0780
0780
0780
0780
0700
0F00
0F00
0F00
0E00
1E00
1E00
3C00
F000
ENDCHAR
STARTCHAR jcircumflex
ENCODING 309
SWIDTH 333 0
DWIDTH 8 0
BBX 12 26 -2 -6
BITMAP
0080
01C0
03C0
0660
0C30
1010
0000
0060
07E0
01E0
01E0
01C0
01C0
01C0
03C0
03C0
0380
0380
0780
0780
0700
0700
0700
4E00
EE00
7800
ENDCHAR
STARTCHAR Kcommaaccent
ENCODING 310
SWIDTH 688 0
DWIDTH 17 0
BBX 20 28 1 -10
BITMAP
1FF3F0
0781C0
078300
078600
078C00
071800
0F3000
0F6000
0FE000
0EF000
0EF000
1EF800
1E7800
1E7C00
1C3C00
3C3E00
3C1F00
FF0380
000000
00C000
01E000
01E000
01E000
00C000
01C000
018000
030000
020000
ENDCHAR
STARTCHAR kcommaaccent
ENCODING 311
SWIDTH 570 0
DWIDTH 14 0
BBX 14 29 2 -10
BITMAP
0700
3E00
0E00
0E00
1E00
1E00
1C18
1C7C
3C9C
3D08
3900
3B00
3F80
7F80
7B80
73C8
73C8
F1F0
F0C0
0000
0600
0F00
0F00
0F00
0600
0E00
0C00
1800
1000
ENDCHAR
STARTCHAR kgreenlandic
ENCODING 312
SWIDTH 570 0
DWIDTH 14 0
BBX 14 12 2 0
BITMAP
1C7C
3C9C
3D08
3900
3B00
3F80
7F80
7B80
73C8
73C8
F1F0
F0C0
ENDCHAR
STARTCHAR Lacute
ENCODING 313
SWIDTH 586 0
DWIDTH 15 0
BBX 15 25 1 0
BITMAP
0020
0070
00E0
01C0
0300
0400
0000
0FF0
07C0
0780
0780
0780
0780
0F00
0F00
0F00
0F00
0F00
1E00
1E00
1E02
1E04
3E0C
3E1C
FFFC
ENDCHAR
STARTCHAR lacute
ENCODING 314
SWIDTH 327 0
DWIDTH 8 0
BBX 10 26 2 0
BITMAP
0080
01C0
0380
0700
0C00
1000
0000
0700
3E00
0E00
1E00
1E00
1C00
1C00
3C00
3C00
3800
3800
7800
7800
7000
7000
F200
F400
F800
7000
ENDCHAR
STARTCHAR Lcommaaccent
ENCODING 315
SWIDTH 586 0
DWIDTH 15 0
BBX 15 28 1 -10
BITMAP
0FF0
07C0
0780
0780
0780
0780
0F00
0F00
0F00
0F00
0F00
1E00
1E00
1E02
1E04
3E0C
3E1C
FFFC
0000
0300
0780
0780
0780
0300
0700
0600
0C00
0800
ENDCHAR
STARTCHAR lcommaaccent
ENCODING 316
SWIDTH 327 0
DWIDTH 8 0
BBX 8 29 2 -10
BITMAP
07
3E
0E
1E
1E
1C
1C
3C
3C
38
38
78
78
70
70
F2
F4
F8
70
00
30
78
78
78
30
70
60
C0
80
ENDCHAR
STARTCHAR Lcaron
ENCODING 317
SWIDTH 803 0
DWIDTH 20 0
BBX 21 18 1 0
BITMAP
0FF030
07C078
078078
078038
078030
078060
0F0040
0F0080
0F0000
0F0000
0F0000
1E0000
1E0000
1E0200
1E0400
3E0C00
3E1C00
FFFC00
ENDCHAR
STARTCHAR lcaron
ENCODING 318
SWIDTH 557 0
DWIDTH 14 0
BBX 14 19 2 0
BITMAP
0700
3E18
0E3C
1E3C
1E1C
1C18
1C30
3C20
3C40
3800
3800
7800
7800
7000
7000
F200
F400
F800
7000
ENDCHAR
STARTCHAR Ldot
ENCODING 319
SWIDTH 837 0
DWIDTH 21 0
BBX 20 18 1 0
BITMAP
0FF000
07C000
078000
078000
078000
078000
0F0000
0F0000
0F0000
0F0000
0F0060
1E00F0
1E00F0
1E0260
1E0400
3E0C00
3E1C00
FFFC00
ENDCHAR
STARTCHAR ldot
ENCODING 320
SWIDTH 591 0
DWIDTH 15 0
BBX 13 19 2 0
BITMAP
0700
3E00
0E00
1E00
1E00
1C00
1C00
3C00
3C00
3800
3800
7830
7878
7078
7030
F200
F400
F800
7000
ENDCHAR
STARTCHAR Lslash
ENCODING 321
SWIDTH 592 0
DWIDTH 15 0
BBX 15 18 1 0
BITMAP
0FF0
07C0
0780
0780
0788
0790
0760
0FC0
0F80
0F00
1F00
3E00
5E00
9E02
1E04
1E0C
3E1C
FFF8
ENDCHAR
STARTCHAR lslash
ENCODING 322
SWIDTH 339 0
DWIDTH 8 0
BBX 10 19 1 0
BITMAP
0380
1F00
0700
0F00
0F00
0E00
0E40
1EC0
1F00
1E00
1C00
7C00
BC00
3C00
3800
7900
7A00
7C00
3800
ENDCHAR
STARTCHAR Nacute
ENCODING 323
SWIDTH 741 0
DWIDTH 19 0
BBX 21 25 1 0
BITMAP
000200
000700
000E00
001C00
003000
004000
000000
0F81F8
07C060
07C060
07E040
05E0C0
04E0C0
0CF0C0
0CF080
0C7880
087980
083980
183D80
183D00
181F00
101F00
300F00
300E00
FC0E00
ENDCHAR
STARTCHAR nacute
ENCODING 324
SWIDTH 635 0
DWIDTH 16 0
BBX 15 20 2 0
BITMAP
0010
0038
0070
00E0
0180
0200
0000
0E38
7CFC
1D3C
3D3C
3A38
3C78
3C78
7878
7870
78F2
70F4
F0F8
F070
ENDCHAR
STARTCHAR Ncommaaccent
ENCODING 325
SWIDTH 741 0
DWIDTH 19 0
BBX 21 28 1 -10
BITMAP
0F81F8
07C060
07C060
07E040
05E0C0
04E0C0
0CF0C0
0CF080
0C7880
087980
083980
183D80
183D00
181F00
101F00
300F00
300E00
FC0E00
000000
006000
00F000
00F000
00F000
006000
00E000
00C000
018000
010000
ENDCHAR
STARTCHAR ncommaaccent
ENCODING 326
SWIDTH 635 0
DWIDTH 16 0
BBX 15 23 2 -10
BITMAP
0E38
7CFC
1D3C
3D3C
3A38
3C78
3C78
7878
7870
78F2
70F4
F0F8
F070
0000
0300
0780
0780
0780
0300
0700
0600
0C00
0800
ENDCHAR
STARTCHAR Ncaron
ENCODING 327
SWIDTH 741 0
DWIDTH 19 0
BBX 21 25 1 0
BITMAP
010100
018600
00CC00
007800
007000
002000
000000
0F81F8
07C060
07C060
07E040
05E0C0
04E0C0
0CF0C0
0CF080
0C7880
087980
083980
183D80
183D00
181F00
101F00
300F00
300E00
FC0E00
ENDCHAR
STARTCHAR ncaron
ENCODING 328
SWIDTH 635 0
DWIDTH 16 0
BBX 15 20 2 0
BITMAP
0808
0C30
0660
03C0
0380
0100
0000
0E38
7CFC
1D3C
3D3C
3A38
3C78
3C78
7878
7870
78F2
70F4
F0F8
F070
ENDCHAR
STARTCHAR napostrophe
ENCODING 329
SWIDTH 869 0
DWIDTH 22 0
BBX 20 18 3 0
BITMAP
300000
780000
780000
380000
300000
6071C0
43E7E0
80E9E0
01E9E0
01D1C0
01E3C0
01E3C0
03C3C0
03C380
03C790
0387A0
0787C0
078380
ENDCHAR
STARTCHAR Eng
ENCODING 330
SWIDTH 741 0
DWIDTH 19 0
BBX 21 24 1 -6
BITMAP
0F81F8
07C060
07C060
07E040
05E0C0
04E0C0
0CF0C0
0CF080
0C7880
087980
083980
183D80
183D00
181F00
101F00
300F00
301E00
FC1E00
001C00
001C00
001C00
013800
03B800
01E000
ENDCHAR
STARTCHAR eng
ENCODING 331
SWIDTH 635 0
DWIDTH 16 0
BBX 14 19 2 -6
BITMAP
0E38
7CFC
1D3C
3D3C
3A38
3C78
3C78
7878
78F0
78E0
70E0
F1E0
F1E0
01C0
01C0
01C0
1380
3B80
1E00
ENDCHAR
STARTCHAR Omacron
ENCODING 332
SWIDTH 761 0
DWIDTH 19 0
BBX 17 21 3 0
BITMAP
07F800
07F800
000000
01F800
0F0E00
1E0600
3E0700
3C0780
780780
780780
780780
F80780
F00F80
F00F00
F00F00
F00F00
F01E00
703E00
383C00
187800
0FE000
ENDCHAR
STARTCHAR omacron
ENCODING 333
SWIDTH 562 0
DWIDTH 14 0
BBX 13 16 2 0
BITMAP
1FE0
1FE0
0000
03C0
1E70
3C70
3878
7878
7878
F8F8
F0F0
F0F0
F0E0
71E0
73C0
1E00
ENDCHAR
STARTCHAR Obreve
ENCODING 334
SWIDTH 761 0
DWIDTH 19 0
BBX 17 23 3 0
BITMAP
040800
041000
07F000
03C000
000000
01F800
0F0E00
1E0600
3E0700
3C0780
780780
780780
780780
F80780
F00F80
F00F00
F00F00
F00F00
F01E00
703E00
383C00
187800
0FE000
ENDCHAR
STARTCHAR obreve
ENCODING 335
SWIDTH 562 0
DWIDTH 14 0
BBX 13 18 2 0
BITMAP
0810
0820
0FE0
0780
0000
03C0
1E70
3C70
3878
7878
7878
F8F8
F0F0
F0F0
F0E0
71E0
73C0
1E00
ENDCHAR
STARTCHAR Ohungarumlaut
ENCODING 336
SWIDTH 761 0
DWIDTH 19 0
BBX 17 24 3 0
BITMAP
00CC00
01DC00
019800
031000
022000
000000
01F800
0F0E00
1E0600
3E0700
3C0780
780780
780780
780780
F80780
F00F80
F00F00
F00F00
F00F00
F01E00
703E00
383C00
187800
0FE000
ENDCHAR
STARTCHAR ohungarumlaut
ENCODING 337
SWIDTH 562 0
DWIDTH 14 0
BBX 13 19 2 0
BITMAP
0330
0770
0660
0C40
0880
0000
03C0
1E70
3C70
3878
7878
7878
F8F8
F0F0
F0F0
F0E0
71E0
73C0
1E00
ENDCHAR
STARTCHAR OE
ENCODING 338
SWIDTH 1016 0
DWIDTH 25 0
BBX 25 18 3 0
BITMAP
00FFFF80
07878380
0F078100
1E078100
3C078100
78070000
780F0C00
780F0800
F00FF800
F00E1800
F01E0800
F01E0000
F01E0000
701E0200
781C0600
383C0C00
1C3E1C00
07FFFC00
ENDCHAR
STARTCHAR oe
ENCODING 339
SWIDTH 811 0
DWIDTH 20 0
BBX 20 13 2 0
BITMAP
03C3C0
1E6E70
3C7C70
387870
7878E0
7879C0
F8F780
F0F800
F0F020
F0F060
71F8C0
73BF80
1E1E00
ENDCHAR
STARTCHAR Racute
ENCODING 340
SWIDTH 681 0
DWIDTH 17 0
BBX 17 25 1 0
BITMAP
000400
000E00
001C00
003800
006000
008000
000000
1FFC00
078F00
078780
078780
070780
0F0780
0F0F00
0F0F00
0F1E00
1FF000
1E1C00
1E1E00
1E1E00
1C1E00
3C1E00
3C1E00
3C0F00
FF0F80
ENDCHAR
STARTCHAR racute
ENCODING 341
SWIDTH 440 0
DWIDTH 11 0
BBX 11 20 2 0
BITMAP
0040
00E0
01C0
0380
0600
0800
0000
1C60
7DE0
3DE0
3A40
3C00
3C00
3800
7800
7000
7000
7000
F000
E000
ENDCHAR
STARTCHAR Rcommaaccent
ENCODING 342
SWIDTH 681 0
DWIDTH 17 0
BBX 17 28 1 -10
BITMAP
1FFC00
078F00
078780
078780
070780
0F0780
0F0F00
0F0F00
0F1E00
1FF000
1E1C00
1E1E00
1E1E00
1C1E00
3C1E00
3C1E00
3C0F00
FF0F80
000000
00C000
01E000
01E000
01E000
00C000
01C000
018000
030000
020000
ENDCHAR
STARTCHAR rcommaaccent
ENCODING 343
SWIDTH 440 0
DWIDTH 11 0
BBX 11 23 2 -10
BITMAP
1C60
7DE0
3DE0
3A40
3C00
3C00
3800
7800
7000
7000
7000
F000
E000
0000
3000
7800
7800
7800
3000
7000
6000
C000
8000
ENDCHAR
STARTCHAR Rcaron
ENCODING 344
SWIDTH 681 0
DWIDTH 17 0
BBX 17 25 1 0
BITMAP
020200
030C00
019800
00F000
00E000
004000
000000
1FFC00
078F00
078780
078780
070780
0F0780
0F0F00
0F0F00
0F1E00
1FF000
1E1C00
1E1E00
1E1E00
1C1E00
3C1E00
3C1E00
3C0F00
FF0F80
ENDCHAR
STARTCHAR rcaron
ENCODING 345
SWIDTH 440 0
DWIDTH 11 0
BBX 11 20 2 0
BITMAP
2020
30C0
1980
0F00
0E00
0400
0000
1C60
7DE0
3DE0
3A40
3C00
3C00
3800
7800
7000
7000
7000
F000
E000
ENDCHAR
STARTCHAR Sacute
ENCODING 346
SWIDTH 551 0
DWIDTH 14 0
BBX 13 25 2 0
BITMAP
0020
0070
00E0
01C0
0300
0400
0000
03E0
0E38
1C30
3C10
3C10
3C00
3E00
1F80
0FC0
03E0
01E0
01F0
C0F0
C0F0
C0E0
E0E0
71C0
1F00
ENDCHAR
STARTCHAR sacute
ENCODING 347
SWIDTH 417 0
DWIDTH 10 0
BBX 10 20 1 0
BITMAP
0080
01C0
0380
0700
0C00
1000
0000
0F00
19C0
39C0
3880
3C00
1E00
1F00
0F00
0780
E380
E380
F300
3E00
ENDCHAR
STARTCHAR Scircumflex
ENCODING 348
SWIDTH 551 0
DWIDTH 14 0
BBX 13 25 2 0
BITMAP
0100
0380
0780
0CC0
1860
2020
0000
03E0
0E38
1C30
3C10
3C10
3C00
3E00
1F80
0FC0
03E0
01E0
01F0
C0F0
C0F0
C0E0
E0E0
71C0
1F00
ENDCHAR
STARTCHAR scircumflex
ENCODING 349
SWIDTH 417 0
DWIDTH 10 0
BBX 10 20 1 0
BITMAP
0200
0700
0F00
1980
30C0
4040
0000
0F00
19C0
39C0
3880
3C00
1E00
1F00
0F00
0780
E380
E380
F300
3E00
ENDCHAR
STARTCHAR Scedilla
ENCODING 350
SWIDTH 551 0
DWIDTH 14 0
BBX 13 24 2 -6
BITMAP
03E0
0E38
1C30
3C10
3C10
3C00
3E00
1F80
0FC0
03E0
01E0
01F0
C0F0
C0F0
C0E0
E0E0
71C0
1F00
0400
0C00
0F00
0700
0700
1C00
ENDCHAR
STARTCHAR scedilla
ENCODING 351
SWIDTH 417 0
DWIDTH 10 0
BBX 10 19 1 -6
BITMAP
0F00
19C0
39C0
3880
3C00
1E00
1F00
0F00
0780
E380
E380
F300
3E00
0800
1800
1E00
0E00
0E00
3800
ENDCHAR
STARTCHAR Scaron
ENCODING 352
SWIDTH 551 0
DWIDTH 14 0
BBX 15 23 2 0
BITMAP
0C06
071C
03F8
01E0
00C0
03E0
0E38
1C30
3C10
3C10
3C00
3E00
1F80
0FC0
03E0
01E0
01F0
C0F0
C0F0
C0E0
E0E0
71C0
1F00
ENDCHAR
STARTCHAR scaron
ENCODING 353
SWIDTH 417 0
DWIDTH 10 0
BBX 12 19 1 0
BITMAP
1010
0830
0CE0
07C0
0780
0200
0F00
19C0
39C0
3880
3C00
1E00
1F00
0F00
0780
E380
E380
F300
3E00
ENDCHAR
STARTCHAR Tcommaaccent
ENCODING 354
SWIDTH 616 0
DWIDTH 15 0
BBX 16 24 3 -6
BITMAP
7FFF
63C7
43C2
C3C2
83C2
0780
0780
0780
0780
0700
0F00
0F00
0F00
0F00
0E00
1E00
1E00
7F80
0400
0C00
0F00
0700
0700
1C00
ENDCHAR
STARTCHAR tcommaaccent
ENCODING 355
SWIDTH 359 0
DWIDTH 9 0
BBX 9 23 2 -6
BITMAP
0200
0600
1E00
1C00
FF80
3C00
3C00
3800
3800
7800
7800
7000
7200
F200
F400
F800
7800
1000
3000
3C00
1C00
1C00
7000
ENDCHAR
STARTCHAR Tcaron
ENCODING 356
SWIDTH 616 0
DWIDTH 15 0
BBX 16 25 3 0
BITMAP
0808
0C30
0660
03C0
0380
0100
0000
7FFF
63C7
43C2
C3C2
83C2
0780
0780
0780
0780
0700
0F00
0F00
0F00
0F00
0E00
1E00
1E00
7F80
ENDCHAR
STARTCHAR tcaron
ENCODING 357
SWIDTH 587 0
DWIDTH 15 0
BBX 15 18 2 0
BITMAP
000C
021E
061E
1E0E
1C0C
FF98
3C10
3C20
3800
3800
7800
7800
7000
7200
F200
F400
F800
7000
ENDCHAR
STARTCHAR Tbar
ENCODING 358
SWIDTH 616 0
DWIDTH 15 0
BBX 16 18 3 0
BITMAP
7FFF
63C7
43C2
C3C2
83C2
0780
0780
0780
3FFC
0700
0F00
0F00
0F00
0F00
0E00
1E00
1E00
7F80
ENDCHAR
STARTCHAR tbar
ENCODING 359
SWIDTH 359 0
DWIDTH 9 0
BBX 12 17 1 0
BITMAP
0100
0300
0F00
0E00
7FC0
1E00
1E00
1C00
1C00
3C00
3C00
FFF0
3900
7900
7A00
7C00
3800
ENDCHAR
STARTCHAR Utilde
ENCODING 360
SWIDTH 776 0
DWIDTH 19 0
BBX 19 23 4 0
BITMAP
008200
03FC00
06FC00
041000
000000
7F9FE0
3C0780
3C0700
3C0F00
3C0F00
380F00
780F00
780E00
781E00
781E00
701E00
F01C00
F03C00
F03C00
F03800
707800
78F000
1FC000
ENDCHAR
STARTCHAR utilde
ENCODING 361
SWIDTH 634 0
DWIDTH 16 0
BBX 15 18 2 0
BITMAP
0208
0FF0
1BF0
1040
0000
0E1C
FC1C
3C3C
3C3C
3878
7878
7878
78F8
7170
F172
F2F4
FCF8
7070
ENDCHAR
STARTCHAR Umacron
ENCODING 362
SWIDTH 776 0
DWIDTH 19 0
BBX 19 21 4 0
BITMAP
07F800
07F800
000000
7F9FE0
3C0780
3C0700
3C0F00
3C0F00
380F00
780F00
780E00
781E00
781E00
701E00
F01C00
F03C00
F03C00
F03800
707800
78F000
1FC000
ENDCHAR
STARTCHAR umacron
ENCODING 363
SWIDTH 634 0
DWIDTH 16 0
BBX 15 16 2 0
BITMAP
0FF0
0FF0
0000
0E1C
FC1C
3C3C
3C3C
3878
7878
7878
78F8
7170
F172
F2F4
FCF8
7070
ENDCHAR
STARTCHAR Ubreve
ENCODING 364
SWIDTH 776 0
DWIDTH 19 0
BBX 19 23 4 0
BITMAP
020400
020800
03F800
01E000
000000
7F9FE0
3C0780
3C0700
3C0F00
3C0F00
380F00
780F00
780E00
781E00
781E00
701E00
F01C00
F03C00
F03C00
F03800
707800
78F000
1FC000
ENDCHAR
STARTCHAR ubreve
ENCODING 365
SWIDTH 634 0
DWIDTH 16 0
BBX 15 18 2 0
BITMAP
0810
0820
0FE0
0780
0000
0E1C
FC1C
3C3C
3C3C
3878
7878
7878
78F8
7170
F172
F2F4
FCF8
7070
ENDCHAR
STARTCHAR Uring
ENCODING 366
SWIDTH 776 0
DWIDTH 19 0
BBX 19 25 4 0
BITMAP
00E000
019000
031800
031800
013000
00E000
000000
7F9FE0
3C0780
3C0700
3C0F00
3C0F00
380F00
780F00
780E00
781E00
781E00
701E00
F01C00
F03C00
F03C00
F03800
707800
78F000
1FC000
ENDCHAR
STARTCHAR uring
ENCODING 367
SWIDTH 634 0
DWIDTH 16 0
BBX 15 20 2 0
BITMAP
0380
0640
0C60
0C60
04C0
0380
0000
0E1C
FC1C
3C3C
3C3C
3878
7878
7878
78F8
7170
F172
F2F4
FCF8
7070
ENDCHAR
STARTCHAR Uhungarumlaut
ENCODING 368
SWIDTH 776 0
DWIDTH 19 0
BBX 19 24 4 0
BITMAP
00CC00
01DC00
019800
031000
022000
000000
7F9FE0
3C0780
3C0700
3C0F00
3C0F00
380F00
780F00
780E00
781E00
781E00
701E00
F01C00
F03C00
F03C00
F03800
707800
78F000
1FC000
ENDCHAR
STARTCHAR uhungarumlaut
ENCODING 369
SWIDTH 634 0
DWIDTH 16 0
BBX 15 19 2 0
BITMAP
0198
03B8
0330
0620
0440
0000
0E1C
FC1C
3C3C
3C3C
3878
7878
7878
78F8
7170
F172
F2F4
FCF8
7070
ENDCHAR
STARTCHAR Uogonek
ENCODING 370
SWIDTH 776 0
DWIDTH 19 0
BBX 19 24 4 -6
BITMAP
7F9FE0
3C0780
3C0700
3C0F00
3C0F00
380F00
780F00
780E00
781E00
781E00
701E00
F01C00
F03C00
F03C00
F03800
707800
78F000
1FC000
008000
030000
020000
060000
060000
03C000
ENDCHAR
STARTCHAR uogonek
ENCODING 371
SWIDTH 634 0
DWIDTH 16 0
BBX 15 19 2 -6
BITMAP
0E1C
FC1C
3C3C
3C3C
3878
7878
7878
78F8
7170
F172
F2F4
FCF8
7070
0100
0600
0400
0C00
0C00
0780
ENDCHAR
STARTCHAR Wcircumflex
ENCODING 372
SWIDTH 920 0
DWIDTH 23 0
BBX 24 25 3 0
BITMAP
001000
003800
007800
00CC00
018600
020200
000000
FF003F
7C0E0C
3C1E0C
3C1E18
3C3E18
3C3E10
3C7E30
3C5E20
3C5E60
3C8E60
3C8E40
3D0EC0
3D0E80
3F0F80
3E0F00
3E0F00
3C0E00
3C0E00
ENDCHAR
STARTCHAR wcircumflex
ENCODING 373
SWIDTH 795 0
DWIDTH 20 0
BBX 19 20 3 0
BITMAP
002000
007000
00F000
019800
030C00
040400
000000
1C38C0
FC78E0
3C70E0
3870E0
3870C0
78F0C0
78F080
71E180
71E100
F2E200
F2E400
FCF800
707000
ENDCHAR
STARTCHAR Ycircumflex
ENCODING 374
SWIDTH 622 0
DWIDTH 16 0
BBX 17 25 3 0
BITMAP
008000
01C000
03C000
066000
0C3000
101000
000000
FF3F80
3C0E00
3C0C00
3C1800
1C3800
1E3000
1E6000
1E4000
0EC000
0F8000
0F0000
0F0000
0F0000
0F0000
1E0000
1E0000
1E0000
FF8000
ENDCHAR
STARTCHAR ycircumflex
ENCODING 375
SWIDTH 489 0
DWIDTH 12 0
BBX 14 26 0 -6
BITMAP
0080
01C0
03C0
0660
0C30
1010
0000
020C
1E1C
7E1C
0E18
0E18
0E30
0F30
0F20
0F60
0740
07C0
0780
0700
0700
0600
4400
EC00
F800
7000
ENDCHAR
STARTCHAR Ydieresis
ENCODING 376
SWIDTH 622 0
DWIDTH 16 0
BBX 17 22 3 0
BITMAP
061800
0F3C00
0F3C00
061800
FF3F80
3C0E00
3C0C00
3C1800
1C3000
1E3000
1E6000
1EC000
0EC000
0F8000
0F0000
0F0000
0F0000
0E0000
0E0000
1E0000
1E0000
FF8000
ENDCHAR
STARTCHAR Zacute
ENCODING 377
SWIDTH 618 0
DWIDTH 15 0
BBX 19 25 0 0
BITMAP
000200
000700
000E00
001C00
003000
004000
000000
07FFE0
0607C0
040F80
0C1F80
081F00
003E00
007C00
00F800
01F000
01F000
03E000
07C000
0F8000
1F0100
1E0300
3E0300
7C0600
FFFE00
ENDCHAR
STARTCHAR zacute
ENCODING 378
SWIDTH 466 0
DWIDTH 12 0
BBX 14 20 0 0
BITMAP
0010
0038
0070
00E0
0180
0200
0000
1FFC
1FF8
30F0
21E0
0380
0300
0600
0C10
1810
3E30
7FE0
EFE0
C1C0
ENDCHAR
STARTCHAR Zdotaccent
ENCODING 379
SWIDTH 618 0
DWIDTH 15 0
BBX 19 23 0 0
BITMAP
003000
007800
007800
003000
000000
07FFE0
0607C0
040F80
0C1F80
081F00
003E00
007C00
00F800
01F000
01F000
03E000
07C000
0F8000
1F0100
1E0300
3E0300
7C0600
FFFE00
ENDCHAR
STARTCHAR zdotaccent
ENCODING 380
SWIDTH 466 0
DWIDTH 12 0
BBX 14 18 0 0
BITMAP
0180
03C0
03C0
0180
0000
1FFC
1FF8
30F0
21E0
0380
0300
0600
0C10
1810
3E30
7FE0
EFE0
C1C0
ENDCHAR
STARTCHAR Zcaron
ENCODING 381
SWIDTH 618 0
DWIDTH 15 0
BBX 19 23 0 0
BITMAP
008080
00C300
007E00
003C00
001000
07FFE0
0607C0
040F80
0C1F80
081F00
003E00
007C00
00F800
01F000
01F000
03E000
07C000
0F8000
1F0100
1E0300
3E0300
7C0600
FFFE00
ENDCHAR
STARTCHAR zcaron
ENCODING 382
SWIDTH 466 0
DWIDTH 12 0
BBX 14 19 0 0
BITMAP
0404
0608
0330
03E0
01C0
0080
0FFC
1FF8
1070
20E0
01C0
0300
0600
0C08
1810
3E30
7FF0
EFE0
E0E0
ENDCHAR
STARTCHAR uni0186
ENCODING 390
SWIDTH 672 0
DWIDTH 17 0
BBX 16 18 3 0
BITMAP
07E0
1C38
181E
300E
300E
200F
000F
000F
000F
000F
001F
001E
401E
403C
403C
E078
E0E0
3F80
ENDCHAR
STARTCHAR uni0189
ENCODING 393
SWIDTH 780 0
DWIDTH 19 0
BBX 20 18 1 0
BITMAP
1FFE00
0783C0
0781C0
0780E0
0700E0
0F00F0
0F00F0
0F00F0
7FF0F0
1E00F0
1E01E0
1E01E0
1E03E0
1C03C0
3C07C0
3C0F80
3C3E00
FFF000
ENDCHAR
STARTCHAR uni018E
ENCODING 398
SWIDTH 622 0
DWIDTH 16 0
BBX 17 18 1 0
BITMAP
1FFF80
1C1E00
181E00
303C00
203C00
003C00
003C00
083800
0C7800
0FF800
187800
107800
007000
40F000
40F000
C0F000
E0F000
FFFC00
ENDCHAR
STARTCHAR florin
ENCODING 402
SWIDTH 560 0
DWIDTH 14 0
BBX 16 21 1 -3
BITMAP
003C
0067
00E7
01E2
01E0
01E0
01C0
03C0
0FF8
03C0
0380
0380
0780
0780
0700
0700
0700
0E00
CE00
EC00
7800
ENDCHAR
STARTCHAR uni0197
ENCODING 407
SWIDTH 386 0
DWIDTH 10 0
BBX 12 18 1 0
BITMAP
0FF0
03C0
0780
0780
0780
0780
0700
0F00
FFF0
0F00
0F00
0E00
1E00
1E00
1E00
1E00
3C00
FF00
ENDCHAR
STARTCHAR uni019A
ENCODING 410
SWIDTH 327 0
DWIDTH 8 0
BBX 12 19 0 0
BITMAP
01C0
0F80
0380
0780
0780
0700
0700
0F00
0F00
FFF0
0E00
1E00
1E00
1C00
1C00
3C80
3D00
3E00
1C00
ENDCHAR
STARTCHAR uni019D
ENCODING 413
SWIDTH 741 0
DWIDTH 19 0
BBX 24 24 -2 -6
BITMAP
01F03F
00F80C
00F80C
00FC08
00BC18
009C18
019E18
019E10
018F10
010F30
010730
0307B0
0307A0
03C3E0
0383E0
0381E0
0781C0
0781C0
070000
070000
070000
4E0000
EE0000
780000
ENDCHAR
STARTCHAR uni019F
ENCODING 415
SWIDTH 761 0
DWIDTH 19 0
BBX 17 18 3 0
BITMAP
01F800
0F0E00
1E0600
3E0700
3C0780
780780
780780
780780
FFFF80
F00F80
F00F00
F00F00
F00F00
F01E00
703E00
383C00
187800
0FE000
ENDCHAR
STARTCHAR Ohorn
ENCODING 416
SWIDTH 761 0
DWIDTH 19 0
BBX 20 18 3 0
BITMAP
01F860
0F0EF0
1E06F0
3E0770
3C07E0
7807C0
780780
780780
F80780
F00F80
F00F00
F00F00
F00F00
F01E00
703E00
383C00
187800
0FE000
ENDCHAR
STARTCHAR ohorn
ENCODING 417
SWIDTH 562 0
DWIDTH 14 0
BBX 17 13 2 0
BITMAP
03C300
1E7780
3C7780
387B80
787B00
787E00
F8FC00
F0F800
F0F000
F0E000
71E000
73C000
1E0000
ENDCHAR
STARTCHAR Uhorn
ENCODING 431
SWIDTH 776 0
DWIDTH 19 0
BBX 22 18 4 0
BITMAP
7F9FF8
3C07BC
3C073C
3C0F1C
3C0F18
380F30
780F20
780E40
781E00
781E00
701E00
F01C00
F03C00
F03C00
F03800
707800
78F000
1FC000
ENDCHAR
STARTCHAR uhorn
ENCODING 432
SWIDTH 634 0
DWIDTH 16 0
BBX 19 13 2 0
BITMAP
0E1CC0
FC1DE0
3C3DE0
3C3CE0
3878C0
787980
787900
78FA00
717000
F17200
F2F400
FCF800
707000
ENDCHAR
STARTCHAR uni01B5
ENCODING 437
SWIDTH 618 0
DWIDTH 15 0
BBX 19 18 0 0
BITMAP
07FFE0
0607C0
040F80
0C1F80
081F00
003E00
007C00
00F800
0FFF00
01F000
03E000
07C000
0F8000
1F0100
1E0300
3E0300
7C0600
FFFE00
ENDCHAR
STARTCHAR uni01B6
ENCODING 438
SWIDTH 466 0
DWIDTH 12 0
BBX 14 13 0 0
BITMAP
1FFC
1FF8
30F0
21E0
0380
0300
7FF8
0C10
1810
3E30
7FE0
EFE0
C1C0
ENDCHAR
STARTCHAR uni01BB
ENCODING 443
SWIDTH 560 0
DWIDTH 14 0
BBX 14 17 1 0
BITMAP
03E0
0E38
1E3C
1C3C
1C3C
007C
0078
00F8
FFFC
03C0
0700
1C00
3800
7018
FFF0
FFF0
FFE0
ENDCHAR
STARTCHAR uni01BC
ENCODING 444
SWIDTH 560 0
DWIDTH 14 0
BBX 15 17 1 0
BITMAP
0FFE
0FFC
0FF8
0800
1800
1800
13C0
1FF0
18F0
0078
0078
0078
6078
7070
F0F0
79E0
1F80
ENDCHAR
STARTCHAR uni01C0
ENCODING 448
SWIDTH 265 0
DWIDTH 7 0
BBX 3 18 4 0
BITMAP
E0
E0
E0
E0
E0
E0
E0
E0
E0
E0
E0
E0
E0
E0
E0
E0
E0
E0
ENDCHAR
STARTCHAR uni01C2
ENCODING 450
SWIDTH 600 0
DWIDTH 15 0
BBX 12 18 3 -2
BITMAP
0700
0700
0700
0700
0700
0700
FFF0
FFF0
0700
0700
0700
FFF0
FFF0
0700
0700
0700
0700
0700
ENDCHAR
STARTCHAR uni01C3
ENCODING 451
SWIDTH 285 0
DWIDTH 7 0
BBX 8 18 2 0
BITMAP
07
0F
1E
1E
1E
1C
1C
1C
18
18
18
10
20
00
70
F8
F0
60
ENDCHAR
STARTCHAR uni01CD
ENCODING 461
SWIDTH 634 0
DWIDTH 16 0
BBX 17 25 0 0
BITMAP
010100
018600
00CC00
007800
007000
002000
000000
001C00
003C00
003C00
007C00
007C00
00DC00
009C00
019C00
011C00
031E00
021E00
07FE00
0C1E00
0C1E00
181E00
181E00
301E00
FC7F80
ENDCHAR
STARTCHAR uni01CE
ENCODING 462
SWIDTH 596 0
DWIDTH 15 0
BBX 15 20 1 0
BITMAP
0404
0618
0330
01E0
01C0
0080
0000
03DC
073C
1E3C
3C38
3878
7878
78F8
70F0
F170
F1F2
F2F4
FCF8
7070
ENDCHAR
STARTCHAR uni01CF
ENCODING 463
SWIDTH 386 0
DWIDTH 10 0
BBX 12 25 1 0
BITMAP
1010
1860
0CC0
0780
0700
0200
0000
0FF0
03C0
0780
0780
0780
0780
0700
0F00
0F00
0F00
0F00
0E00
1E00
1E00
1E00
1E00
3C00
FF00
ENDCHAR
STARTCHAR uni01D0
ENCODING 464
SWIDTH 339 0
DWIDTH 8 0
BBX 9 20 2 0
BITMAP
8080
C300
6600
3C00
3800
1000
0000
0E00
FC00
3C00
3C00
3800
3800
7800
7800
7000
7200
F400
F800
7000
ENDCHAR
STARTCHAR uni01D1
ENCODING 465
SWIDTH 761 0
DWIDTH 19 0
BBX 17 25 3 0
BITMAP
040400
061800
033000
01E000
01C000
008000
000000
01F800
0F0E00
1E0600
3E0700
3C0780
780780
780780
780780
F80780
F00F80
F00F00
F00F00
F00F00
F01E00
703E00
383C00
187800
0FE000
ENDCHAR
STARTCHAR uni01D2
ENCODING 466
SWIDTH 562 0
DWIDTH 14 0
BBX 13 20 2 0
BITMAP
1010
1860
0CC0
0780
0700
0200
0000
03C0
1E70
3C70
3878
7878
7878
F8F8
F0F0
F0F0
F0E0
71E0
73C0
1E00
ENDCHAR
STARTCHAR uni01D3
ENCODING 467
SWIDTH 776 0
DWIDTH 19 0
BBX 19 25 4 0
BITMAP
020200
030C00
019800
00F000
00E000
004000
000000
7F9FE0
3C0780
3C0700
3C0F00
3C0F00
380F00
780F00
780E00
781E00
781E00
701E00
F01C00
F03C00
F03C00
F03800
707800
78F000
1FC000
ENDCHAR
STARTCHAR uni01D4
ENCODING 468
SWIDTH 634 0
DWIDTH 16 0
BBX 15 20 2 0
BITMAP
0808
0C30
0660
03C0
0380
0100
0000
0E1C
FC1C
3C3C
3C3C
3878
7878
7878
78F8
7170
F172
F2F4
FCF8
7070
ENDCHAR
STARTCHAR uni01D5
ENCODING 469
SWIDTH 776 0
DWIDTH 19 0
BBX 19 25 4 0
BITMAP
03FC00
03FC00
000000
030C00
079E00
079E00
030C00
7F9FE0
3E0F80
3C0F00
3C0F00
3C0F00
3C0F00
780E00
781E00
781E00
781E00
701C00
F01C00
F03C00
F03C00
F03800
707800
78F000
1FC000
ENDCHAR
STARTCHAR uni01D6
ENCODING 470
SWIDTH 634 0
DWIDTH 16 0
BBX 15 21 2 0
BITMAP
07F8
07F8
0000
0618
0F3C
0F3C
0618
0000
0E1C
FC1C
3C3C
3C3C
3878
7878
7878
78F8
7170
F172
F2F4
FCF8
7070
ENDCHAR
STARTCHAR uni01D7
ENCODING 471
SWIDTH 776 0
DWIDTH 19 0
BBX 19 29 4 0
BITMAP
000400
000E00
001C00
003800
006000
008000
000000
030C00
079E00
079E00
030C00
7F9FE0
3E0F80
3C0F00
3C0F00
3C0F00
3C0F00
780E00
781E00
781E00
781E00
701C00
F01C00
F03C00
F03C00
F03800
707800
78F000
1FC000
ENDCHAR
STARTCHAR uni01D8
ENCODING 472
SWIDTH 634 0
DWIDTH 16 0
BBX 15 25 2 0
BITMAP
0010
0038
0070
00E0
0180
0200
0000
0618
0F3C
0F3C
0618
0000
0E1C
FC1C
3C3C
3C3C
3878
7878
7878
78F8
7170
F172
F2F4
FCF8
7070
ENDCHAR
STARTCHAR uni01D9
ENCODING 473
SWIDTH 776 0
DWIDTH 19 0
BBX 19 29 4 0
BITMAP
020200
030C00
019800
00F000
00E000
004000
000000
030C00
079E00
079E00
030C00
7F9FE0
3E0F80
3C0F00
3C0F00
3C0F00
3C0F00
780E00
781E00
781E00
781E00
701C00
F01C00
F03C00
F03C00
F03800
707800
78F000
1FC000
ENDCHAR
STARTCHAR uni01DA
ENCODING 474
SWIDTH 634 0
DWIDTH 16 0
BBX 15 25 2 0
BITMAP
0404
0618
0330
01E0
01C0
0080
0000
0618
0F3C
0F3C
0618
0000
0E1C
FC1C
3C3C
3C3C
3878
7878
7878
78F8
7170
F172
F2F4
FCF8
7070
ENDCHAR
STARTCHAR uni01DB
ENCODING 475
SWIDTH 776 0
DWIDTH 19 0
BBX 19 29 4 0
BITMAP
020000
070000
038000
01C000
006000
001000
000000
030C00
079E00
079E00
030C00
7F9FE0
3E0F80
3C0F00
3C0F00
3C0F00
3C0F00
780E00
781E00
781E00
781E00
701C00
F01C00
F03C00
F03C00
F03800
707800
78F000
1FC000
ENDCHAR
STARTCHAR uni01DC
ENCODING 476
SWIDTH 634 0
DWIDTH 16 0
BBX 15 25 2 0
BITMAP
0400
0E00
0700
0380
00C0
0020
0000
0618
0F3C
0F3C
0618
0000
0E1C
FC1C
3C3C
3C3C
3878
7878
7878
78F8
7170
F172
F2F4
FCF8
7070
ENDCHAR
STARTCHAR uni01DD
ENCODING 477
SWIDTH 476 0
DWIDTH 12 0
BBX 11 13 2 0
BITMAP
0300
1FC0
31E0
21E0
41E0
03E0
1FE0
79C0
73C0
E380
E380
E600
3800
ENDCHAR
STARTCHAR uni01DE
ENCODING 478
SWIDTH 634 0
DWIDTH 16 0
BBX 17 25 0 0
BITMAP
01FE00
01FE00
000000
00C300
01E780
01E780
00C300
003800
003C00
007C00
007C00
00FC00
00BC00
01BC00
013C00
031C00
021C00
061C00
07FC00
0C1E00
081E00
181E00
101E00
301E00
FC7F80
ENDCHAR
STARTCHAR uni01DF
ENCODING 479
SWIDTH 596 0
DWIDTH 15 0
BBX 15 21 1 0
BITMAP
07F8
07F8
0000
030C
079E
079E
030C
0000
03DC
073C
1E3C
3C38
3878
7878
78F8
70F0
F170
F1F2
F2F4
FCF8
7070
ENDCHAR
STARTCHAR uni01E0
ENCODING 480
SWIDTH 634 0
DWIDTH 16 0
BBX 17 26 0 0
BITMAP
03FC00
03FC00
000000
003000
007800
007800
003000
000000
001C00
003C00
003C00
007C00
007C00
00DC00
009C00
019C00
011C00
031E00
021E00
07FE00
0C1E00
0C1E00
181E00
181E00
301E00
FC7F80
ENDCHAR
STARTCHAR uni01E1
ENCODING 481
SWIDTH 596 0
DWIDTH 15 0
BBX 15 21 1 0
BITMAP
0FF0
0FF0
0000
0180
03C0
03C0
0180
0000
03DC
073C
1E3C
3C38
3878
7878
78F8
70F0
F170
F1F2
F2F4
FCF8
7070
ENDCHAR
STARTCHAR uni01E2
ENCODING 482
SWIDTH 890 0
DWIDTH 22 0
BBX 27 21 -2 0
BITMAP
0007F800
0007F800
00000000
001FFFE0
0007E0E0
000DE0C0
0009E040
0019C040
0033C000
0063C300
0063C200
00FFFE00
01878600
01078600
03078000
06078000
0E070180
0C0F0100
180F0300
380F0700
FE3FFF00
ENDCHAR
STARTCHAR uni01E3
ENCODING 483
SWIDTH 789 0
DWIDTH 20 0
BBX 20 16 1 0
BITMAP
01FE00
01FE00
000000
01E9C0
071E70
1E1C70
3C3C70
3838E0
7878E0
787B80
F0FC00
F1F820
F17840
F238C0
7C3F80
700C00
ENDCHAR
STARTCHAR uni01E4
ENCODING 484
SWIDTH 726 0
DWIDTH 18 0
BBX 20 18 3 0
BITMAP
01FC00
070700
1E0300
3C0300
3C0300
780200
780000
780000
F00000
F00000
F07F80
F01E00
F01E00
F03C00
70FFF0
383C00
3C7C00
0FE000
ENDCHAR
STARTCHAR uni01E5
ENCODING 485
SWIDTH 522 0
DWIDTH 13 0
BBX 16 19 0 -6
BITMAP
03E7
0F3E
0F38
1E3C
1E3C
1E3C
1E38
0E70
0FC0
3C00
3F00
1FE0
0FF0
78F8
FFFF
F038
F038
7870
0FC0
ENDCHAR
STARTCHAR Gcaron
ENCODING 486
SWIDTH 726 0
DWIDTH 18 0
BBX 17 25 3 0
BITMAP
040400
061800
033000
01E000
01C000
008000
000000
01FC00
070700
1E0300
3C0300
3C0300
780200
780000
780000
F00000
F00000
F07F80
F01E00
F01E00
F03C00
703C00
383C00
3C7C00
0FE000
ENDCHAR
STARTCHAR gcaron
ENCODING 487
SWIDTH 522 0
DWIDTH 13 0
BBX 16 26 0 -6
BITMAP
0404
0618
0330
01E0
01C0
0080
0000
03E7
0F3E
0F38
1E3C
1E3C
1E3C
1E38
0E70
0FC0
3C00
3F00
1FE0
0FF0
78F8
F038
F038
F038
7870
0FC0
ENDCHAR
STARTCHAR uni01E8
ENCODING 488
SWIDTH 688 0
DWIDTH 17 0
BBX 20 25 1 0
BITMAP
020200
030C00
019800
00F000
00E000
004000
000000
1FF3F0
0781C0
078300
078600
078C00
071800
0F3000
0F6000
0FE000
0EF000
0EF000
1EF800
1E7800
1E7C00
1C3C00
3C3E00
3C1F00
FF0380
ENDCHAR
STARTCHAR uni01E9
ENCODING 489
SWIDTH 570 0
DWIDTH 14 0
BBX 14 26 2 0
BITMAP
2020
30C0
1980
0F00
0E00
0400
0000
0700
3E00
0E00
0E00
1E00
1E00
1C18
1C7C
3C9C
3D08
3900
3B00
3F80
7F80
7B80
73C8
73C8
F1F0
F0C0
ENDCHAR
STARTCHAR uni01EA
ENCODING 490
SWIDTH 761 0
DWIDTH 19 0
BBX 17 24 3 -6
BITMAP
01F800
0F0E00
1E0600
3E0700
3C0780
780780
780780
780780
F80780
F00F80
F00F00
F00F00
F00F00
F01E00
703E00
383C00
187800
0FE000
004000
018000
010000
030000
030000
01E000
ENDCHAR
STARTCHAR uni01EB
ENCODING 491
SWIDTH 562 0
DWIDTH 14 0
BBX 13 19 2 -6
BITMAP
03C0
1E70
3C70
3878
7878
7878
F8F8
F0F0
F0F0
F0E0
71E0
73C0
1E00
0200
0C00
0800
1800
1800
0F00
ENDCHAR
STARTCHAR uni01EC
ENCODING 492
SWIDTH 761 0
DWIDTH 19 0
BBX 17 27 3 -6
BITMAP
07F800
07F800
000000
01F800
0F0E00
1E0600
3E0700
3C0780
780780
780780
780780
F80780
F00F80
F00F00
F00F00
F00F00
F01E00
703E00
383C00
187800
0FE000
004000
018000
010000
030000
030000
01E000
ENDCHAR
STARTCHAR uni01ED
ENCODING 493
SWIDTH 562 0
DWIDTH 14 0
BBX 13 22 2 -6
BITMAP
1FE0
1FE0
0000
03C0
1E70
3C70
3878
7878
7878
F8F8
F0F0
F0F0
F0E0
71E0
73C0
1E00
0200
0C00
0800
1800
1800
0F00
ENDCHAR
STARTCHAR uni01F0
ENCODING 496
SWIDTH 333 0
DWIDTH 8 0
BBX 13 26 -2 -6
BITMAP
0808
0C30
0660
03C0
0380
0100
0000
0060
07E0
01E0
01E0
01C0
01C0
01C0
03C0
03C0
0380
0380
0780
0780
0700
0700
0700
4E00
EE00
7800
ENDCHAR
STARTCHAR uni01F4
ENCODING 500
SWIDTH 726 0
DWIDTH 18 0
BBX 17 25 3 0
BITMAP
000800
001C00
003800
007000
00C000
010000
000000
01FC00
070700
1E0300
3C0300
3C0300
780200
780000
780000
F00000
F00000
F07F80
F01E00
F01E00
F03C00
703C00
383C00
3C7C00
0FE000
ENDCHAR
STARTCHAR uni01F5
ENCODING 501
SWIDTH 522 0
DWIDTH 13 0
BBX 16 26 0 -6
BITMAP
0008
001C
0038
0070
00C0
0100
0000
03E7
0F3E
0F38
1E3C
1E3C
1E3C
1E38
0E70
0FC0
3C00
3F00
1FE0
0FF0
78F8
F038
F038
F038
7870
0FC0
ENDCHAR
STARTCHAR uni01F8
ENCODING 504
SWIDTH 741 0
DWIDTH 19 0
BBX 21 25 1 0
BITMAP
010000
038000
01C000
00E000
003000
000800
000000
0F81F8
07C060
07C060
07E040
05E0C0
04E0C0
0CF0C0
0CF080
0C7880
087980
083980
183D80
183D00
181F00
101F00
300F00
300E00
FC0E00
ENDCHAR
STARTCHAR uni01F9
ENCODING 505
SWIDTH 635 0
DWIDTH 16 0
BBX 15 20 2 0
BITMAP
0800
1C00
0E00
0700
0180
0040
0000
0E38
7CFC
1D3C
3D3C
3A38
3C78
3C78
7878
7870
78F2
70F4
F0F8
F070
ENDCHAR
STARTCHAR Aringacute
ENCODING 506
SWIDTH 634 0
DWIDTH 16 0
BBX 17 29 0 0
BITMAP
000200
000700
000E00
001C00
003000
004000
000000
001E00
002300
006300
006600
003C00
003C00
007C00
007C00
00FC00
00BC00
01BC00
011C00
031C00
021C00
061C00
07FC00
0C1E00
081E00
181E00
101E00
301E00
FC7F80
ENDCHAR
STARTCHAR aringacute
ENCODING 507
SWIDTH 596 0
DWIDTH 15 0
BBX 15 26 1 0
BITMAP
0008
001C
0038
0070
00C0
0100
0000
00E0
0190
0318
0318
0130
00E0
03DC
073C
1E3C
3C38
3878
7878
78F8
70F0
F170
F1F2
F2F4
FCF8
7070
ENDCHAR
STARTCHAR AEacute
ENCODING 508
SWIDTH 890 0
DWIDTH 22 0
BBX 27 25 -2 0
BITMAP
00000800
00001C00
00003800
00007000
0000C000
00010000
00000000
001FFFE0
0007E0E0
000DE0C0
0009E040
0019C040
0033C000
0063C300
0063C200
00FFFE00
01878600
01078600
03078000
06078000
0E070180
0C0F0100
180F0300
380F0700
FE3FFF00
ENDCHAR
STARTCHAR aeacute
ENCODING 509
SWIDTH 789 0
DWIDTH 20 0
BBX 20 20 1 0
BITMAP
000200
000700
000E00
001C00
003000
004000
000000
01E9C0
071E70
1E1C70
3C3C70
3838E0
7878E0
787B80
F0FC00
F1F820
F17840
F238C0
7C3F80
700C00
ENDCHAR
STARTCHAR Oslashacute
ENCODING 510
SWIDTH 761 0
DWIDTH 19 0
BBX 17 27 3 -1
BITMAP
000800
001C00
003800
007000
00C000
010000
000000
000100
01F300
0F0E00
1E0600
3E0F00
3C1F00
783780
782780
784780
F8C780
F18F80
F10F00
F20F00
F60F00
FC1E00
783E00
703C00
387800
67E000
400000
ENDCHAR
STARTCHAR oslashacute
ENCODING 511
SWIDTH 562 0
DWIDTH 14 0
BBX 13 23 2 -2
BITMAP
0020
0070
00E0
01C0
0300
0400
0000
0030
03A0
1E60
3CF0
38F0
7978
7978
FA78
F6F0
F4F0
F8E0
79E0
33C0
3E00
6000
2000
ENDCHAR
STARTCHAR Scommaaccent
ENCODING 536
SWIDTH 551 0
DWIDTH 14 0
BBX 13 28 2 -10
BITMAP
03E0
0E38
1C30
3C10
3C10
3C00
3E00
1F80
0FC0
03E0
01E0
01F0
C0F0
C0F0
C0E0
E0E0
71C0
1F00
0000
0600
0F00
0F00
0F00
0600
0E00
0C00
1800
1000
ENDCHAR
STARTCHAR scommaaccent
ENCODING 537
SWIDTH 417 0
DWIDTH 10 0
BBX 10 23 1 -10
BITMAP
0F00
19C0
39C0
3880
3C00
1E00
1F00
0F00
0780
E380
E380
F300
3E00
0000
0C00
1E00
1E00
1E00
0C00
1C00
1800
3000
2000
ENDCHAR
STARTCHAR Tcommaaccent
ENCODING 538
SWIDTH 616 0
DWIDTH 15 0
BBX 16 28 3 -10
BITMAP
7FFF
63C7
43C2
C3C2
83C2
0780
0780
0780
0780
0700
0F00
0F00
0F00
0F00
0E00
1E00
1E00
7F80
0000
0600
0F00
0F00
0F00
0600
0E00
0C00
1800
1000
ENDCHAR
STARTCHAR tcommaaccent
ENCODING 539
SWIDTH 359 0
DWIDTH 9 0
BBX 9 27 2 -10
BITMAP
0200
0600
1E00
1C00
FF80
3C00
3C00
3800
3800
7800
7800
7000
7200
F200
F400
F800
7000
0000
1800
3C00
3C00
3C00
1800
3800
3000
6000
4000
ENDCHAR
STARTCHAR uni021E
ENCODING 542
SWIDTH 800 0
DWIDTH 20 0
BBX 22 25 1 0
BITMAP
008080
00C300
006600
003C00
003800
001000
000000
0FF3FC
0780F0
0780E0
0781E0
0781E0
0781E0
0F01E0
0F01C0
0FFFC0
0F03C0
0E03C0
1E03C0
1E0780
1E0780
1E0780
1C0780
3C0780
FF3FC0
ENDCHAR
STARTCHAR uni021F
ENCODING 543
SWIDTH 629 0
DWIDTH 16 0
BBX 15 26 2 0
BITMAP
2020
30C0
1980
0F00
0E00
0400
0000
0700
3F00
0E00
0E00
1E00
1E00
1C38
1CFC
1D3C
3D3C
3A38
3C38
3C78
7878
7870
78F2
70F4
70F8
F070
ENDCHAR
STARTCHAR uni0226
ENCODING 550
SWIDTH 634 0
DWIDTH 16 0
BBX 17 23 0 0
BITMAP
003000
007800
007800
003000
000000
001C00
003C00
003C00
007C00
007C00
00DC00
009C00
019C00
011C00
031E00
021E00
07FE00
0C1E00
0C1E00
181E00
181E00
301E00
FC7F80
ENDCHAR
STARTCHAR uni0227
ENCODING 551
SWIDTH 596 0
DWIDTH 15 0
BBX 15 18 1 0
BITMAP
0180
03C0
03C0
0180
0000
03DC
073C
1E3C
3C38
3878
7878
78F8
70F0
F170
F1F2
F2F4
FCF8
7070
ENDCHAR
STARTCHAR uni0228
ENCODING 552
SWIDTH 622 0
DWIDTH 16 0
BBX 17 24 1 -6
BITMAP
1FFF80
078380
078180
078100
078100
070000
0F0400
0F0C00
0FF800
0F1800
0E0800
1E0000
1E0000
1E0200
1E0600
3C0C00
3C1C00
FFFC00
010000
030000
03C000
01C000
01C000
070000
ENDCHAR
STARTCHAR uni0229
ENCODING 553
SWIDTH 476 0
DWIDTH 12 0
BBX 11 19 2 -6
BITMAP
0380
0CE0
38E0
38E0
79C0
73C0
FF00
F800
F040
F080
F180
7F00
1C00
0800
1800
1E00
0E00
0E00
3800
ENDCHAR
STARTCHAR uni022A
ENCODING 554
SWIDTH 761 0
DWIDTH 19 0
BBX 17 25 3 0
BITMAP
03FC00
03FC00
000000
030600
078F00
078F00
030600
01F800
0F0E00
1E0600
3E0700
3C0780
780780
780780
780780
F80780
F00F80
F00F00
F00F00
F00F00
F01E00
703E00
383C00
187800
0FE000
ENDCHAR
STARTCHAR uni022B
ENCODING 555
SWIDTH 562 0
DWIDTH 14 0
BBX 14 21 2 0
BITMAP
0FF0
0FF0
0000
0618
0F3C
0F3C
0618
0000
03C0
1E70
3C70
3878
7878
7878
F8F8
F0F0
F0F0
F0E0
71E0
73C0
1E00
ENDCHAR
STARTCHAR uni022C
ENCODING 556
SWIDTH 761 0
DWIDTH 19 0
BBX 17 25 3 0
BITMAP
03FC00
03FC00
000000
01C000
03E300
063E00
021C00
01F800
0F0E00
1E0600
3E0700
3C0780
780780
780780
780780
F80780
F00F80
F00F00
F00F00
F00F00
F01E00
703E00
383C00
187800
0FE000
ENDCHAR
STARTCHAR uni022D
ENCODING 557
SWIDTH 562 0
DWIDTH 14 0
BBX 14 21 2 0
BITMAP
0FF0
0FF0
0000
0008
078C
0FF8
10F0
0000
03C0
1E70
3C70
3878
7878
7878
F8F8
F0F0
F0F0
F0E0
71E0
73C0
1E00
ENDCHAR
STARTCHAR uni022E
ENCODING 558
SWIDTH 761 0
DWIDTH 19 0
BBX 17 23 3 0
BITMAP
00C000
01E000
01E000
00C000
000000
01F800
0F0E00
1E0600
3E0700
3C0780
780780
780780
780780
F80780
F00F80
F00F00
F00F00
F00F00
F01E00
703E00
383C00
187800
0FE000
ENDCHAR
STARTCHAR uni022F
ENCODING 559
SWIDTH 562 0
DWIDTH 14 0
BBX 13 18 2 0
BITMAP
0300
0780
0780
0300
0000
03C0
1E70
3C70
3878
7878
7878
F8F8
F0F0
F0F0
F0E0
71E0
73C0
1E00
ENDCHAR
STARTCHAR uni0230
ENCODING 560
SWIDTH 761 0
DWIDTH 19 0
BBX 17 26 3 0
BITMAP
07F800
07F800
000000
00C000
01E000
01E000
00C000
000000
01F800
0F0E00
1E0600
3E0700
3C0780
780780
780780
780780
F80780
F00F80
F00F00
F00F00
F00F00
F01E00
703E00
383C00
187800
0FE000
ENDCHAR
STARTCHAR uni0231
ENCODING 561
SWIDTH 562 0
DWIDTH 14 0
BBX 13 21 2 0
BITMAP
1FE0
1FE0
0000
0300
0780
0780
0300
0000
03C0
1E70
3C70
3878
7878
7878
F8F8
F0F0
F0F0
F0E0
71E0
73C0
1E00
ENDCHAR
STARTCHAR uni0232
ENCODING 562
SWIDTH 622 0
DWIDTH 16 0
BBX 17 21 3 0
BITMAP
0FF000
0FF000
000000
FF3F80
3C0E00
3C0C00
3C1800
1C3800
1E3000
1E6000
1E4000
0EC000
0F8000
0F0000
0F0000
0F0000
0F0000
1E0000
1E0000
1E0000
FF8000
ENDCHAR
STARTCHAR uni0233
ENCODING 563
SWIDTH 489 0
DWIDTH 12 0
BBX 14 22 0 -6
BITMAP
0FF0
0FF0
0000
020C
1E1C
7E1C
0E18
0E18
0E30
0F30
0F20
0F60
0740
07C0
0780
0700
0700
0600
4400
EC00
F800
7000
ENDCHAR
STARTCHAR uni0250
ENCODING 592
SWIDTH 596 0
DWIDTH 15 0
BBX 15 13 1 0
BITMAP
1C1C
3E7E
5E9E
9F1E
1D1E
1E1C
3E3C
3C3C
3C38
3878
78F0
79C0
7780
ENDCHAR
STARTCHAR uni0259
ENCODING 601
SWIDTH 476 0
DWIDTH 12 0
BBX 11 13 2 0
BITMAP
0300
1FC0
31E0
21E0
41E0
03E0
1FE0
79C0
73C0
E380
E380
E600
3800
ENDCHAR
STARTCHAR uni025F
ENCODING 607
SWIDTH 348 0
DWIDTH 9 0
BBX 17 25 -2 -13
BITMAP
000F00
001B80
003980
003800
007000
007000
007000
00F000
00F000
00E000
00E000
00E000
01E000
01E000
01C000
01C000
03C000
03C000
1FF000
038000
038000
078000
E70000
E70000
3C0000
ENDCHAR
STARTCHAR uni0265
ENCODING 613
SWIDTH 629 0
DWIDTH 16 0
BBX 15 19 2 -7
BITMAP
1C1E
3E1C
5E1C
9E3C
1C3C
3C3C
3C78
3878
38B8
7978
7970
7E70
3870
00F0
00F0
00E0
00E0
01F8
01C0
ENDCHAR
STARTCHAR uni0275
ENCODING 629
SWIDTH 562 0
DWIDTH 14 0
BBX 13 13 2 0
BITMAP
03C0
1E70
3C70
3878
7878
7878
FFF8
F0F0
F0F0
F0E0
71E0
73C0
1E00
ENDCHAR
STARTCHAR uni0279
ENCODING 633
SWIDTH 440 0
DWIDTH 11 0
BBX 11 13 2 0
BITMAP
00E0
01E0
01C0
01C0
01C0
03C0
0380
0780
0780
4B80
F780
F7C0
C700
ENDCHAR
STARTCHAR uni0287
ENCODING 647
SWIDTH 359 0
DWIDTH 9 0
BBX 9 17 2 0
BITMAP
0700
0F80
1780
2780
2700
0700
0F00
0F00
0E00
0E00
1E00
1E00
FF80
1C00
3C00
3000
2000
ENDCHAR
STARTCHAR uni0289
ENCODING 649
SWIDTH 634 0
DWIDTH 16 0
BBX 15 13 2 0
BITMAP
0E1C
FC1C
3C3C
3C3C
3878
7878
FFFE
78F8
7170
F172
F2F4
FCF8
7070
ENDCHAR
STARTCHAR uni028C
ENCODING 652
SWIDTH 518 0
DWIDTH 13 0
BBX 11 13 3 0
BITMAP
03C0
07E0
09E0
19E0
31C0
31C0
61C0
63C0
6380
E380
E380
E3E0
4700
ENDCHAR
STARTCHAR uni028D
ENCODING 653
SWIDTH 795 0
DWIDTH 20 0
BBX 19 13 3 0
BITMAP
01C1C0
03E7E0
04E9E0
08E9E0
10F1C0
30F1C0
21E3C0
61E3C0
61C380
E1C380
E1C780
E3C7E0
638700
ENDCHAR
STARTCHAR uni028E
ENCODING 654
SWIDTH 489 0
DWIDTH 12 0
BBX 14 19 0 0
BITMAP
0038
007C
00DC
0088
0180
0380
0380
0780
0F80
0B80
1BC0
13C0
33C0
31C0
61C0
61C0
E1F8
E1E0
C100
ENDCHAR
STARTCHAR uni029E
ENCODING 670
SWIDTH 570 0
DWIDTH 14 0
BBX 14 19 2 -7
BITMAP
0C3C
3E3C
4F38
4F38
0778
07F8
07F0
0370
0270
42F0
E4F0
F8E0
60E0
01E0
01E0
01C0
01C0
01F0
0380
ENDCHAR
STARTCHAR uni02BB
ENCODING 699
SWIDTH 246 0
DWIDTH 6 0
BBX 5 8 4 10
BITMAP
08
10
30
60
E0
F0
F0
60
ENDCHAR
STARTCHAR afii57929
ENCODING 700
SWIDTH 246 0
DWIDTH 6 0
BBX 5 8 3 10
BITMAP
30
78
78
38
30
60
40
80
ENDCHAR
STARTCHAR afii64937
ENCODING 701
SWIDTH 246 0
DWIDTH 6 0
BBX 5 8 3 10
BITMAP
60
F0
F0
E0
60
30
10
08
ENDCHAR
STARTCHAR circumflex
ENCODING 710
SWIDTH 400 0
DWIDTH 10 0
BBX 9 6 3 13
BITMAP
0400
0E00
1E00
3300
6180
8080
ENDCHAR
STARTCHAR caron
ENCODING 711
SWIDTH 400 0
DWIDTH 10 0
BBX 9 6 4 13
BITMAP
8080
C300
6600
3C00
3800
1000
ENDCHAR
STARTCHAR uni02C8
ENCODING 712
SWIDTH 246 0
DWIDTH 6 0
BBX 4 8 4 10
BITMAP
70
70
E0
E0
E0
C0
C0
80
ENDCHAR
STARTCHAR macron
ENCODING 713
SWIDTH 400 0
DWIDTH 10 0
BBX 8 2 4 15
BITMAP
FF
FF
ENDCHAR
STARTCHAR uni02CA
ENCODING 714
SWIDTH 400 0
DWIDTH 10 0
BBX 7 6 5 13
BITMAP
04
0E
1C
38
60
80
ENDCHAR
STARTCHAR uni02CB
ENCODING 715
SWIDTH 400 0
DWIDTH 10 0
BBX 7 6 3 13
BITMAP
40
E0
70
38
0C
02
ENDCHAR
STARTCHAR uni02CD
ENCODING 717
SWIDTH 400 0
DWIDTH 10 0
BBX 8 2 4 -3
BITMAP
FF
FF
ENDCHAR
STARTCHAR uni02CE
ENCODING 718
SWIDTH 400 0
DWIDTH 10 0
BBX 7 6 3 -7
BITMAP
40
E0
70
38
0C
02
ENDCHAR
STARTCHAR uni02CF
ENCODING 719
SWIDTH 400 0
DWIDTH 10 0
BBX 7 6 5 -7
BITMAP
04
0E
1C
38
60
80
ENDCHAR
STARTCHAR breve
ENCODING 728
SWIDTH 400 0
DWIDTH 10 0
BBX 8 4 5 14
BITMAP
81
82
FE
78
ENDCHAR
STARTCHAR dotaccent
ENCODING 729
SWIDTH 402 0
DWIDTH 10 0
BBX 4 4 6 14
BITMAP
60
F0
F0
60
ENDCHAR
STARTCHAR ring
ENCODING 730
SWIDTH 400 0
DWIDTH 10 0
BBX 7 6 5 13
BITMAP
38
64
C6
C6
4C
38
ENDCHAR
STARTCHAR ogonek
ENCODING 731
SWIDTH 350 0
DWIDTH 9 0
BBX 5 6 2 -6
BITMAP
10
60
40
C0
C0
78
ENDCHAR
STARTCHAR tilde
ENCODING 732
SWIDTH 400 0
DWIDTH 10 0
BBX 10 4 3 14
BITMAP
1040
7F80
DF80
8200
ENDCHAR
STARTCHAR hungarumlaut
ENCODING 733
SWIDTH 400 0
DWIDTH 10 0
BBX 8 5 5 14
BITMAP
33
77
66
C4
88
ENDCHAR
STARTCHAR uni02EE
ENCODING 750
SWIDTH 455 0
DWIDTH 11 0
BBX 10 8 3 10
BITMAP
3180
7BC0
7BC0
39C0
3180
6300
4200
8400
ENDCHAR
STARTCHAR uni037E
ENCODING 894
SWIDTH 280 0
DWIDTH 7 0
BBX 7 16 1 -3
BITMAP
0C
1E
1E
1C
00
00
00
30
78
78
78
30
70
60
C0
80
ENDCHAR
STARTCHAR tonos
ENCODING 900
SWIDTH 400 0
DWIDTH 10 0
BBX 7 6 5 13
BITMAP
04
0E
1C
38
60
80
ENDCHAR
STARTCHAR dieresistonos
ENCODING 901
SWIDTH 400 0
DWIDTH 10 0
BBX 10 11 3 14
BITMAP
0080
01C0
0380
0700
0C00
1000
0000
6180
F3C0
F3C0
6180
ENDCHAR
STARTCHAR anoteleia
ENCODING 903
SWIDTH 280 0
DWIDTH 7 0
BBX 4 4 3 4
BITMAP
60
F0
F0
60
ENDCHAR
STARTCHAR mu
ENCODING 956
SWIDTH 634 0
DWIDTH 16 0
BBX 16 19 1 -6
BITMAP
070E
3E0E
0E1E
0E1E
1E3C
1E3C
1C3C
1C7C
3CB8
3CB9
397A
3E7C
7C38
6000
6000
6000
E000
E000
C000
ENDCHAR
STARTCHAR uni1E00
ENCODING 7680
SWIDTH 634 0
DWIDTH 16 0
BBX 17 25 0 -7
BITMAP
001C00
003C00
003C00
007C00
007C00
00DC00
009C00
019C00
011C00
031E00
021E00
07FE00
0C1E00
0C1E00
181E00
181E00
301E00
FC7F80
000000
00E000
019000
031800
031800
013000
00E000
ENDCHAR
STARTCHAR uni1E01
ENCODING 7681
SWIDTH 596 0
DWIDTH 15 0
BBX 15 20 1 -7
BITMAP
03DC
073C
1E3C
3C38
3878
7878
78F8
70F0
F170
F1F2
F2F4
FCF8
7070
0000
0380
0640
0C60
0C60
04C0
0380
ENDCHAR
STARTCHAR uni1E02
ENCODING 7682
SWIDTH 680 0
DWIDTH 17 0
BBX 17 23 1 0
BITMAP
006000
00F000
00F000
006000
000000
0FFC00
078F00
078780
078780
078780
078780
0F0F00
0F1E00
0FF800
0F1800
0E0E00
1E0F00
1E0F00
1E0F00
1E0F00
1C1E00
3C3E00
FFF800
ENDCHAR
STARTCHAR uni1E03
ENCODING 7683
SWIDTH 586 0
DWIDTH 15 0
BBX 14 24 2 0
BITMAP
0600
0F00
0F00
0600
0000
0700
3E00
0E00
1E00
1E00
1C00
1C78
1CF8
3D3C
3A3C
3C3C
3C3C
7878
7878
7870
78F0
F0E0
F9C0
DF00
ENDCHAR
STARTCHAR uni1E04
ENCODING 7684
SWIDTH 680 0
DWIDTH 17 0
BBX 17 23 1 -5
BITMAP
0FFC00
078F00
078780
078780
078780
078780
0F0F00
0F1E00
0FF800
0F1800
0E0E00
1E0F00
1E0F00
1E0F00
1E0F00
1C1E00
3C3E00
FFF800
000000
018000
03C000
03C000
018000
ENDCHAR
STARTCHAR uni1E05
ENCODING 7685
SWIDTH 586 0
DWIDTH 15 0
BBX 14 24 2 -5
BITMAP
0700
3E00
0E00
1E00
1E00
1C00
1C78
1CF8
3D3C
3A3C
3C3C
3C3C
7878
7878
7870
78F0
F0E0
F9C0
DF00
0000
0600
0F00
0F00
0600
ENDCHAR
STARTCHAR uni1E06
ENCODING 7686
SWIDTH 680 0
DWIDTH 17 0
BBX 17 21 1 -3
BITMAP
0FFC00
078F00
078780
078780
078780
078780
0F0F00
0F1E00
0FF800
0F1800
0E0E00
1E0F00
1E0F00
1E0F00
1E0F00
1C1E00
3C3E00
FFF800
000000
0FF000
0FF000
ENDCHAR
STARTCHAR uni1E07
ENCODING 7687
SWIDTH 586 0
DWIDTH 15 0
BBX 14 22 2 -3
BITMAP
0700
3E00
0E00
1E00
1E00
1C00
1C78
1CF8
3D3C
3A3C
3C3C
3C3C
7878
7878
7870
78F0
F0E0
F9C0
DF00
0000
3FC0
3FC0
ENDCHAR
STARTCHAR uni1E08
ENCODING 7688
SWIDTH 672 0
DWIDTH 17 0
BBX 16 31 3 -6
BITMAP
0010
0038
0070
00E0
0180
0200
0000
01FC
0787
1E07
3E02
3C02
7802
7800
F800
F000
F000
F000
F000
F004
7004
700C
3818
1C38
07F0
0300
0380
07C0
01C0
01C0
0F00
ENDCHAR
STARTCHAR uni1E09
ENCODING 7689
SWIDTH 456 0
DWIDTH 11 0
BBX 11 26 2 -6
BITMAP
0040
00E0
01C0
0380
0600
0800
0000
03C0
0CE0
38E0
38C0
7800
7000
F000
F000
F0C0
F080
F180
7F00
3C00
1000
3000
3C00
1C00
1C00
7000
ENDCHAR
STARTCHAR uni1E0A
ENCODING 7690
SWIDTH 774 0
DWIDTH 19 0
BBX 19 23 1 0
BITMAP
006000
00F000
00F000
006000
000000
1FFC00
078780
078380
0781C0
0701C0
0F01E0
0F01E0
0F01E0
0F01E0
1E01E0
1E03C0
1E03C0
1E03C0
1E0780
3C0780
3C0F00
3C3C00
FFF000
ENDCHAR
STARTCHAR uni1E0B
ENCODING 7691
SWIDTH 609 0
DWIDTH 15 0
BBX 16 24 2 0
BITMAP
0030
0078
0078
0030
0000
0007
003E
001E
001E
001E
001C
03DC
0F3C
1C3C
3C38
3878
7878
78F8
F0F0
F170
F172
F2F4
7CF8
7870
ENDCHAR
STARTCHAR uni1E0C
ENCODING 7692
SWIDTH 774 0
DWIDTH 19 0
BBX 19 23 1 -5
BITMAP
1FFC00
078780
078380
0781C0
0701C0
0F01E0
0F01E0
0F01E0
0F01E0
1E01E0
1E03C0
1E03C0
1E03C0
1E0780
3C0780
3C0F00
3C3C00
FFF000
000000
00C000
01E000
01E000
00C000
ENDCHAR
STARTCHAR uni1E0D
ENCODING 7693
SWIDTH 609 0
DWIDTH 15 0
BBX 16 24 2 -5
BITMAP
0007
003E
001E
001E
001E
001C
03DC
0F3C
1C3C
3C38
3878
7878
78F8
F0F0
F170
F172
F2F4
7CF8
7870
0000
0300
0780
0780
0300
ENDCHAR
STARTCHAR uni1E0E
ENCODING 7694
SWIDTH 774 0
DWIDTH 19 0
BBX 19 21 1 -3
BITMAP
1FFC00
078780
078380
0781C0
0701C0
0F01E0
0F01E0
0F01E0
0F01E0
1E01E0
1E03C0
1E03C0
1E03C0
1E0780
3C0780
3C0F00
3C3C00
FFF000
000000
07F800
07F800
ENDCHAR
STARTCHAR uni1E0F
ENCODING 7695
SWIDTH 609 0
DWIDTH 15 0
BBX 16 22 2 -3
BITMAP
0007
003E
001E
001E
001E
001C
03DC
0F3C
1C3C
3C38
3878
7878
78F8
F0F0
F170
F172
F2F4
7CF8
7870
0000
1FE0
1FE0
ENDCHAR
STARTCHAR uni1E10
ENCODING 7696
SWIDTH 774 0
DWIDTH 19 0
BBX 19 24 1 -6
BITMAP
1FFC00
078780
078380
0781C0
0701C0
0F01E0
0F01E0
0F01E0
0F01E0
1E01E0
1E03C0
1E03C0
1E03C0
1E0780
3C0780
3C0F00
3C3C00
FFF000
008000
018000
01E000
00E000
00E000
038000
ENDCHAR
STARTCHAR uni1E11
ENCODING 7697
SWIDTH 609 0
DWIDTH 15 0
BBX 16 25 2 -6
BITMAP
0007
003E
001E
001E
001E
001C
03DC
0F3C
1C3C
3C38
3878
7878
78F8
F0F0
F170
F172
F2F4
7CF8
7970
0200
0600
0780
0380
0380
0E00
ENDCHAR
STARTCHAR uni1E12
ENCODING 7698
SWIDTH 774 0
DWIDTH 19 0
BBX 19 25 1 -7
BITMAP
1FFC00
078780
078380
0781C0
0701C0
0F01E0
0F01E0
0F01E0
0F01E0
1E01E0
1E03C0
1E03C0
1E03C0
1E0780
3C0780
3C0F00
3C3C00
FFF000
000000
004000
00E000
01E000
033000
061800
080800
ENDCHAR
STARTCHAR uni1E13
ENCODING 7699
SWIDTH 609 0
DWIDTH 15 0
BBX 16 26 2 -7
BITMAP
0007
003E
001E
001E
001E
001C
03DC
0F3C
1C3C
3C38
3878
7878
78F8
F0F0
F170
F172
F2F4
7CF8
7870
0000
0100
0380
0780
0CC0
1860
2020
ENDCHAR
STARTCHAR uni1E14
ENCODING 7700
SWIDTH 622 0
DWIDTH 16 0
BBX 17 28 1 0
BITMAP
040000
0E0000
070000
038000
00C000
002000
000000
07F800
07F800
000000
1FFF80
078380
078180
078100
078100
070000
0F0400
0F0C00
0FF800
0F1800
0E0800
1E0000
1E0000
1E0200
1E0600
3C0C00
3C1C00
FFFC00
ENDCHAR
STARTCHAR uni1E15
ENCODING 7701
SWIDTH 476 0
DWIDTH 12 0
BBX 11 23 2 0
BITMAP
2000
7000
3800
1C00
0600
0100
0000
3FC0
3FC0
0000
0380
0CE0
38E0
38E0
79C0
73C0
FF00
F800
F040
F080
F180
7F00
1800
ENDCHAR
STARTCHAR uni1E16
ENCODING 7702
SWIDTH 622 0
DWIDTH 16 0
BBX 17 28 1 0
BITMAP
000800
001C00
003800
007000
00C000
010000
000000
07F800
07F800
000000
1FFF80
078380
078180
078100
078100
070000
0F0400
0F0C00
0FF800
0F1800
0E0800
1E0000
1E0000
1E0200
1E0600
3C0C00
3C1C00
FFFC00
ENDCHAR
STARTCHAR uni1E17
ENCODING 7703
SWIDTH 476 0
DWIDTH 12 0
BBX 11 23 2 0
BITMAP
0040
00E0
01C0
0380
0600
0800
0000
3FC0
3FC0
0000
0380
0CE0
38E0
38E0
79C0
73C0
FF00
F800
F040
F080
F180
7F00
1800
ENDCHAR
STARTCHAR uni1E18
ENCODING 7704
SWIDTH 622 0
DWIDTH 16 0
BBX 17 25 1 -7
BITMAP
1FFF80
078380
078180
078100
078100
070000
0F0400
0F0C00
0FF800
0F1800
0E0800
1E0000
1E0000
1E0200
1E0600
3C0C00
3C1C00
FFFC00
000000
008000
01C000
03C000
066000
0C3000
101000
ENDCHAR
STARTCHAR uni1E19
ENCODING 7705
SWIDTH 476 0
DWIDTH 12 0
BBX 12 20 1 -7
BITMAP
01C0
0670
1C70
1C70
3CE0
39E0
7F80
7C00
7820
7840
78C0
3F80
0C00
0000
0400
0E00
1E00
3300
6180
8080
ENDCHAR
STARTCHAR uni1E1A
ENCODING 7706
SWIDTH 622 0
DWIDTH 16 0
BBX 17 23 1 -5
BITMAP
1FFF80
078380
078180
078100
078100
070000
0F0400
0F0C00
0FF800
0F1800
0E0800
1E0000
1E0000
1E0200
1E0600
3C0C00
3C1C00
FFFC00
000000
041000
1FE000
37E000
208000
ENDCHAR
STARTCHAR uni1E1B
ENCODING 7707
SWIDTH 476 0
DWIDTH 12 0
BBX 12 18 1 -5
BITMAP
01C0
0670
1C70
1C70
3CE0
39E0
7F80
7C00
7820
7840
78C0
3F80
0C00
0000
1040
7F80
DF80
8200
ENDCHAR
STARTCHAR uni1E1C
ENCODING 7708
SWIDTH 622 0
DWIDTH 16 0
BBX 17 29 1 -6
BITMAP
040800
041000
07F000
03C000
000000
1FFF80
078380
078180
078100
078100
070000
0F0400
0F0C00
0FF800
0F1800
0E0800
1E0000
1E0000
1E0200
1E0600
3C0C00
3C1C00
FFFC00
010000
030000
03C000
01C000
01C000
070000
ENDCHAR
STARTCHAR uni1E1D
ENCODING 7709
SWIDTH 476 0
DWIDTH 12 0
BBX 11 24 2 -6
BITMAP
1020
1040
1FC0
0F00
0000
0380
0CE0
38E0
38E0
79C0
73C0
FF00
F800
F040
F080
F180
7F00
1C00
0800
1800
1E00
0E00
0E00
3800
ENDCHAR
STARTCHAR uni1E1E
ENCODING 7710
SWIDTH 585 0
DWIDTH 15 0
BBX 17 23 1 0
BITMAP
00C000
01E000
01E000
00C000
000000
1FFF80
078300
078300
078100
070000
0F0000
0F0400
0F0400
0F0C00
1FF800
1E0800
1E0800
1E0000
1C0000
3C0000
3C0000
3C0000
FF0000
ENDCHAR
STARTCHAR uni1E1F
ENCODING 7711
SWIDTH 348 0
DWIDTH 9 0
BBX 17 30 -2 -6
BITMAP
006000
00F000
00F000
006000
000000
001E00
007380
007380
00F000
00E000
00E000
07FC00
01E000
01E000
01C000
01C000
03C000
03C000
038000
038000
038000
078000
078000
070000
070000
070000
0E0000
CE0000
EC0000
780000
ENDCHAR
STARTCHAR uni1E20
ENCODING 7712
SWIDTH 726 0
DWIDTH 18 0
BBX 17 21 3 0
BITMAP
07F800
07F800
000000
01FC00
070700
1E0300
3C0300
3C0300
780200
780000
780000
F00000
F00000
F07F80
F01E00
F01E00
F03C00
703C00
383C00
3C7C00
0FE000
ENDCHAR
STARTCHAR uni1E21
ENCODING 7713
SWIDTH 522 0
DWIDTH 13 0
BBX 16 22 0 -6
BITMAP
07F8
07F8
0000
03E7
0F3E
0F38
1E3C
1E3C
1E3C
1E38
0E70
0FC0
3C00
3F00
1FE0
0FF0
78F8
F038
F038
F038
7870
0FC0
ENDCHAR
STARTCHAR uni1E22
ENCODING 7714
SWIDTH 800 0
DWIDTH 20 0
BBX 22 23 1 0
BITMAP
001800
003C00
003C00
001800
000000
0FF3FC
0780F0
0780E0
0781E0
0781E0
0781E0
0F01E0
0F01C0
0FFFC0
0F03C0
0E03C0
1E03C0
1E0780
1E0780
1E0780
1C0780
3C0780
FF3FC0
ENDCHAR
STARTCHAR uni1E23
ENCODING 7715
SWIDTH 629 0
DWIDTH 16 0
BBX 15 24 2 0
BITMAP
0600
0F00
0F00
0600
0000
0700
3F00
0E00
0E00
1E00
1E00
1C38
1CFC
1D3C
3D3C
3A38
3C38
3C78
7878
7870
78F2
70F4
70F8
F070
ENDCHAR
STARTCHAR uni1E24
ENCODING 7716
SWIDTH 800 0
DWIDTH 20 0
BBX 22 23 1 -5
BITMAP
0FF3FC
0780F0
0780E0
0781E0
0781E0
0781E0
0F01E0
0F01C0
0FFFC0
0F03C0
0E03C0
1E03C0
1E0780
1E0780
1E0780
1C0780
3C0780
FF3FC0
000000
006000
00F000
00F000
006000
ENDCHAR
STARTCHAR uni1E25
ENCODING 7717
SWIDTH 629 0
DWIDTH 16 0
BBX 15 24 2 -5
BITMAP
0700
3F00
0E00
0E00
1E00
1E00
1C38
1CFC
1D3C
3D3C
3A38
3C38
3C78
7878
7870
78F2
70F4
70F8
F070
0000
0300
0780
0780
0300
ENDCHAR
STARTCHAR uni1E26
ENCODING 7718
SWIDTH 800 0
DWIDTH 20 0
BBX 22 23 1 0
BITMAP
00C300
01E780
01E780
00C300
000000
0FF3FC
0780F0
0780E0
0781E0
0781E0
0781E0
0F01E0
0F01C0
0FFFC0
0F03C0
0E03C0
1E03C0
1E0780
1E0780
1E0780
1C0780
3C0780
FF3FC0
ENDCHAR
STARTCHAR uni1E27
ENCODING 7719
SWIDTH 629 0
DWIDTH 16 0
BBX 15 24 2 0
BITMAP
30C0
79E0
79E0
30C0
0000
0700
3F00
0E00
0E00
1E00
1E00
1C38
1CFC
1D3C
3D3C
3A38
3C38
3C78
7878
7870
78F2
70F4
70F8
F070
ENDCHAR
STARTCHAR uni1E28
ENCODING 7720
SWIDTH 800 0
DWIDTH 20 0
BBX 22 24 1 -6
BITMAP
0FF3FC
0780F0
0780E0
0781E0
0781E0
0781E0
0F01E0
0F01C0
0FFFC0
0F03C0
0E03C0
1E03C0
1E0780
1E0780
1E0780
1C0780
3C0780
FF3FC0
004000
00C000
00F000
007000
007000
01C000
ENDCHAR
STARTCHAR uni1E29
ENCODING 7721
SWIDTH 629 0
DWIDTH 16 0
BBX 15 25 2 -6
BITMAP
0700
3F00
0E00
0E00
1E00
1E00
1C38
1CFC
1D3C
3D3C
3A38
3C38
3C78
7878
7870
78F2
70F4
70F8
F170
0200
0600
0780
0380
0380
0E00
ENDCHAR
STARTCHAR uni1E2A
ENCODING 7722
SWIDTH 800 0
DWIDTH 20 0
BBX 22 23 1 -5
BITMAP
0FF3FC
0780F0
0780E0
0781E0
0781E0
0781E0
0F01E0
0F01C0
0FFFC0
0F03C0
0E03C0
1E03C0
1E0780
1E0780
1E0780
1C0780
3C0780
FF3FC0
000000
020400
020800
03F800
01E000
ENDCHAR
STARTCHAR uni1E2B
ENCODING 7723
SWIDTH 629 0
DWIDTH 16 0
BBX 15 24 2 -5
BITMAP
0700
3F00
0E00
0E00
1E00
1E00
1C38
1CFC
1D3C
3D3C
3A38
3C38
3C78
7878
7870
78F2
70F4
70F8
F070
0000
1020
1040
1FC0
0F00
ENDCHAR
STARTCHAR uni1E2C
ENCODING 7724
SWIDTH 386 0
DWIDTH 10 0
BBX 12 23 1 -5
BITMAP
0FF0
03C0
0780
0780
0780
0780
0700
0F00
0F00
0F00
0F00
0E00
1E00
1E00
1E00
1E00
3C00
FF00
0000
1040
7F80
DF80
8200
ENDCHAR
STARTCHAR uni1E2D
ENCODING 7725
SWIDTH 339 0
DWIDTH 8 0
BBX 10 23 0 -5
BITMAP
0180
03C0
03C0
0180
0000
0380
3F00
0F00
0F00
0E00
0E00
1E00
1E00
1C00
1C80
3D00
3E00
1C00
0000
1040
7F80
DF80
8200
ENDCHAR
STARTCHAR uni1E2E
ENCODING 7726
SWIDTH 386 0
DWIDTH 10 0
BBX 13 29 1 0
BITMAP
0020
0070
00E0
01C0
0300
0400
0000
0C30
1E78
1E78
0C30
0FE0
0780
0780
0780
0780
0700
0F00
0F00
0F00
0F00
0E00
1E00
1E00
1E00
1E00
1C00
3C00
FF00
ENDCHAR
STARTCHAR uni1E2F
ENCODING 7727
SWIDTH 339 0
DWIDTH 8 0
BBX 10 25 2 0
BITMAP
0080
01C0
0380
0700
0C00
1000
0000
6180
F3C0
F3C0
6180
0000
0E00
FE00
3C00
3C00
3C00
3800
7800
7800
7000
7200
F400
FC00
7000
ENDCHAR
STARTCHAR uni1E30
ENCODING 7728
SWIDTH 688 0
DWIDTH 17 0
BBX 20 25 1 0
BITMAP
000400
000E00
001C00
003800
006000
008000
000000
1FF3F0
0781C0
078300
078600
078C00
071800
0F3000
0F6000
0FE000
0EF000
0EF000
1EF800
1E7800
1E7C00
1C3C00
3C3E00
3C1F00
FF0380
ENDCHAR
STARTCHAR uni1E31
ENCODING 7729
SWIDTH 570 0
DWIDTH 14 0
BBX 14 26 2 0
BITMAP
0040
00E0
01C0
0380
0600
0800
0000
0700
3E00
0E00
0E00
1E00
1E00
1C18
1C7C
3C9C
3D08
3900
3B00
3F80
7F80
7B80
73C8
73C8
F1F0
F0C0
ENDCHAR
STARTCHAR uni1E32
ENCODING 7730
SWIDTH 688 0
DWIDTH 17 0
BBX 20 23 1 -5
BITMAP
1FF3F0
0781C0
078300
078600
078C00
071800
0F3000
0F6000
0FE000
0EF000
0EF000
1EF800
1E7800
1E7C00
1C3C00
3C3E00
3C1F00
FF0380
000000
00C000
01E000
01E000
00C000
ENDCHAR
STARTCHAR uni1E33
ENCODING 7731
SWIDTH 570 0
DWIDTH 14 0
BBX 14 24 2 -5
BITMAP
0700
3E00
0E00
0E00
1E00
1E00
1C18
1C7C
3C9C
3D08
3900
3B00
3F80
7F80
7B80
73C8
73C8
F1F0
F0C0
0000
0600
0F00
0F00
0600
ENDCHAR
STARTCHAR uni1E34
ENCODING 7732
SWIDTH 688 0
DWIDTH 17 0
BBX 20 21 1 -3
BITMAP
1FF3F0
0781C0
078300
078600
078C00
071800
0F3000
0F6000
0FE000
0EF000
0EF000
1EF800
1E7800
1E7C00
1C3C00
3C3E00
3C1F00
FF0380
000000
07F800
07F800
ENDCHAR
STARTCHAR uni1E35
ENCODING 7733
SWIDTH 570 0
DWIDTH 14 0
BBX 14 22 2 -3
BITMAP
0700
3E00
0E00
0E00
1E00
1E00
1C18
1C7C
3C9C
3D08
3900
3B00
3F80
7F80
7B80
73C8
73C8
F1F0
F0C0
0000
3FC0
3FC0
ENDCHAR
STARTCHAR uni1E36
ENCODING 7734
SWIDTH 586 0
DWIDTH 15 0
BBX 15 23 1 -5
BITMAP
0FF0
07C0
0780
0780
0780
0780
0F00
0F00
0F00
0F00
0F00
1E00
1E00
1E02
1E04
3E0C
3E1C
FFFC
0000
0300
0780
0780
0300
ENDCHAR
STARTCHAR uni1E37
ENCODING 7735
SWIDTH 327 0
DWIDTH 8 0
BBX 8 24 2 -5
BITMAP
07
3E
0E
1E
1E
1C
1C
3C
3C
38
38
78
78
70
70
F2
F4
F8
70
00
30
78
78
30
ENDCHAR
STARTCHAR uni1E38
ENCODING 7736
SWIDTH 586 0
DWIDTH 15 0
BBX 15 26 1 -5
BITMAP
1FE0
1FE0
0000
0FF0
07C0
0780
0780
0780
0780
0F00
0F00
0F00
0F00
0F00
1E00
1E00
1E02
1E04
3E0C
3E1C
FFFC
0000
0300
0780
0780
0300
ENDCHAR
STARTCHAR uni1E39
ENCODING 7737
SWIDTH 327 0
DWIDTH 8 0
BBX 9 27 2 -5
BITMAP
7F80
7F80
0000
0700
3E00
0E00
1E00
1E00
1C00
1C00
3C00
3C00
3800
3800
7800
7800
7000
7000
F200
F400
F800
7000
0000
3000
7800
7800
3000
ENDCHAR
STARTCHAR uni1E3A
ENCODING 7738
SWIDTH 586 0
DWIDTH 15 0
BBX 15 21 1 -3
BITMAP
0FF0
07C0
0780
0780
0780
0780
0F00
0F00
0F00
0F00
0F00
1E00
1E00
1E02
1E04
3E0C
3E1C
FFFC
0000
1FE0
1FE0
ENDCHAR
STARTCHAR uni1E3B
ENCODING 7739
SWIDTH 327 0
DWIDTH 8 0
BBX 9 22 1 -3
BITMAP
0380
1F00
0700
0F00
0F00
0E00
0E00
1E00
1E00
1C00
1C00
3C00
3C00
3800
3800
7900
7A00
7C00
3800
0000
FF00
FF00
ENDCHAR
STARTCHAR uni1E3C
ENCODING 7740
SWIDTH 586 0
DWIDTH 15 0
BBX 15 25 1 -7
BITMAP
0FF0
07C0
0780
0780
0780
0780
0F00
0F00
0F00
0F00
0F00
1E00
1E00
1E02
1E04
3E0C
3E1C
FFFC
0000
0100
0380
0780
0CC0
1860
2020
ENDCHAR
STARTCHAR uni1E3D
ENCODING 7741
SWIDTH 327 0
DWIDTH 8 0
BBX 10 26 0 -7
BITMAP
01C0
0F80
0380
0780
0780
0700
0700
0F00
0F00
0E00
0E00
1E00
1E00
1C00
1C00
3C80
3D00
3E00
1C00
0000
0400
0E00
1E00
3300
6180
8080
ENDCHAR
STARTCHAR uni1E3E
ENCODING 7742
SWIDTH 921 0
DWIDTH 23 0
BBX 25 25 1 0
BITMAP
00008000
0001C000
00038000
00070000
000C0000
00100000
00000000
1FC03F80
07C03E00
07C07C00
05C05C00
05C0FC00
0DC0BC00
0DE1BC00
09E13800
09E27800
08E67800
18E47800
18EC7000
10F87000
10F8F000
30F0F000
30F0F000
3060F000
FC63F800
ENDCHAR
STARTCHAR uni1E3F
ENCODING 7743
SWIDTH 914 0
DWIDTH 23 0
BBX 22 20 2 0
BITMAP
000200
000700
000E00
001C00
003000
004000
000000
0E3070
7CF9F8
1D3A78
1D3E78
3A3470
3C78F0
3C78F0
7870F0
7870E0
78F1E4
70E1E8
F0E1F0
F1E0E0
ENDCHAR
STARTCHAR uni1E40
ENCODING 7744
SWIDTH 921 0
DWIDTH 23 0
BBX 25 23 1 0
BITMAP
000C0000
001E0000
001E0000
000C0000
00000000
1FC03F80
07C03E00
07C07C00
05C05C00
05C0FC00
0DC0BC00
0DE1BC00
09E13800
09E27800
08E67800
18E47800
18EC7000
10F87000
10F8F000
30F0F000
30F0F000
3060F000
FC63F800
ENDCHAR
STARTCHAR uni1E41
ENCODING 7745
SWIDTH 914 0
DWIDTH 23 0
BBX 22 18 2 0
BITMAP
001800
003C00
003C00
001800
000000
0E3070
7CF9F8
1D3A78
1D3E78
3A3470
3C78F0
3C78F0
7870F0
7870E0
78F1E4
70E1E8
F0E1F0
F1E0E0
ENDCHAR
STARTCHAR uni1E42
ENCODING 7746
SWIDTH 921 0
DWIDTH 23 0
BBX 25 23 1 -5
BITMAP
1FC03F80
07C03E00
07C07C00
05C05C00
05C0FC00
0DC0BC00
0DE1BC00
09E13800
09E27800
08E67800
18E47800
18EC7000
10F87000
10F8F000
30F0F000
30F0F000
3060F000
FC63F800
00000000
00180000
003C0000
003C0000
00180000
ENDCHAR
STARTCHAR uni1E43
ENCODING 7747
SWIDTH 914 0
DWIDTH 23 0
BBX 22 18 2 -5
BITMAP
0E3070
7CF9F8
1D3A78
1D3E78
3A3470
3C78F0
3C78F0
7870F0
7870E0
78F1E4
70E1E8
F0E1F0
F1E0E0
000000
003000
007800
007800
003000
ENDCHAR
STARTCHAR uni1E44
ENCODING 7748
SWIDTH 741 0
DWIDTH 19 0
BBX 21 23 1 0
BITMAP
003000
007800
007800
003000
000000
0F81F8
07C060
07C060
07E040
05E0C0
04E0C0
0CF0C0
0CF080
0C7880
087980
083980
183D80
183D00
181F00
101F00
300F00
300E00
FC0E00
ENDCHAR
STARTCHAR uni1E45
ENCODING 7749
SWIDTH 635 0
DWIDTH 16 0
BBX 15 18 2 0
BITMAP
0180
03C0
03C0
0180
0000
0E38
7CFC
1D3C
3D3C
3A38
3C78
3C78
7878
7870
78F2
70F4
F0F8
F070
ENDCHAR
STARTCHAR uni1E46
ENCODING 7750
SWIDTH 741 0
DWIDTH 19 0
BBX 21 23 1 -5
BITMAP
0F81F8
07C060
07C060
07E040
05E0C0
04E0C0
0CF0C0
0CF080
0C7880
087980
083980
183D80
183D00
181F00
101F00
300F00
300E00
FC0E00
000000
006000
00F000
00F000
006000
ENDCHAR
STARTCHAR uni1E47
ENCODING 7751
SWIDTH 635 0
DWIDTH 16 0
BBX 15 18 2 -5
BITMAP
0E38
7CFC
1D3C
3D3C
3A38
3C78
3C78
7878
7870
78F2
70F4
F0F8
F070
0000
0300
0780
0780
0300
ENDCHAR
STARTCHAR uni1E48
ENCODING 7752
SWIDTH 741 0
DWIDTH 19 0
BBX 21 21 1 -3
BITMAP
0F81F8
07C060
07C060
07E040
05E0C0
04E0C0
0CF0C0
0CF080
0C7880
087980
083980
183D80
183D00
181F00
101F00
300F00
300E00
FC0E00
000000
03FC00
03FC00
ENDCHAR
STARTCHAR uni1E49
ENCODING 7753
SWIDTH 635 0
DWIDTH 16 0
BBX 15 16 2 -3
BITMAP
0E38
7CFC
1D3C
3D3C
3A38
3C78
3C78
7878
7870
78F2
70F4
F0F8
F070
0000
1FE0
1FE0
ENDCHAR
STARTCHAR uni1E4A
ENCODING 7754
SWIDTH 741 0
DWIDTH 19 0
BBX 21 25 1 -7
BITMAP
0F81F8
07C060
07C060
07E040
05E0C0
04E0C0
0CF0C0
0CF080
0C7880
087980
083980
183D80
183D00
181F00
101F00
300F00
300E00
FC0E00
000000
002000
007000
00F000
019800
030C00
040400
ENDCHAR
STARTCHAR uni1E4B
ENCODING 7755
SWIDTH 635 0
DWIDTH 16 0
BBX 15 20 2 -7
BITMAP
0E38
7CFC
1D3C
3D3C
3A38
3C78
3C78
7878
7870
78F2
70F4
F0F8
F070
0000
0100
0380
0780
0CC0
1860
2020
ENDCHAR
STARTCHAR uni1E4C
ENCODING 7756
SWIDTH 761 0
DWIDTH 19 0
BBX 17 29 3 0
BITMAP
000800
001C00
003800
007000
00C000
010000
000000
01C000
03E300
063E00
021C00
01F800
0F0E00
1E0600
3E0700
3C0780
780780
780780
780780
F80780
F00F80
F00F00
F00F00
F00F00
F01E00
703E00
383C00
187800
0FE000
ENDCHAR
STARTCHAR uni1E4D
ENCODING 7757
SWIDTH 562 0
DWIDTH 14 0
BBX 14 25 2 0
BITMAP
0010
0038
0070
00E0
0180
0200
0000
0008
078C
0FF8
10F0
0000
03C0
1E70
3C70
3878
7878
7878
F8F8
F0F0
F0F0
F0E0
71E0
73C0
1E00
ENDCHAR
STARTCHAR uni1E4E
ENCODING 7758
SWIDTH 761 0
DWIDTH 19 0
BBX 17 27 3 0
BITMAP
030C00
079E00
079E00
030C00
000000
01C000
03E300
063E00
021C00
01F800
0F0E00
1E0600
3E0700
3C0780
780780
780780
780780
F80780
F00F80
F00F00
F00F00
F00F00
F01E00
703E00
383C00
187800
0FE000
ENDCHAR
STARTCHAR uni1E4F
ENCODING 7759
SWIDTH 562 0
DWIDTH 14 0
BBX 14 23 2 0
BITMAP
0C30
1E78
1E78
0C30
0000
0008
078C
0FF8
10F0
0000
03C0
1E70
3C70
3878
7878
7878
F8F8
F0F0
F0F0
F0E0
71E0
73C0
1E00
ENDCHAR
STARTCHAR uni1E50
ENCODING 7760
SWIDTH 761 0
DWIDTH 19 0
BBX 17 28 3 0
BITMAP
040000
0E0000
070000
038000
00C000
002000
000000
07F800
07F800
000000
01F800
0F0E00
1E0600
3E0700
3C0780
780780
780780
780780
F80780
F00F80
F00F00
F00F00
F00F00
F01E00
703E00
383C00
187800
0FE000
ENDCHAR
STARTCHAR uni1E51
ENCODING 7761
SWIDTH 562 0
DWIDTH 14 0
BBX 13 23 2 0
BITMAP
1000
3800
1C00
0E00
0300
0080
0000
1FE0
1FE0
0000
03C0
1E70
3C70
3878
7878
7878
F8F8
F0F0
F0F0
F0E0
71E0
73C0
1E00
ENDCHAR
STARTCHAR uni1E52
ENCODING 7762
SWIDTH 761 0
DWIDTH 19 0
BBX 17 28 3 0
BITMAP
000800
001C00
003800
007000
00C000
010000
000000
07F800
07F800
000000
01F800
0F0E00
1E0600
3E0700
3C0780
780780
780780
780780
F80780
F00F80
F00F00
F00F00
F00F00
F01E00
703E00
383C00
187800
0FE000
ENDCHAR
STARTCHAR uni1E53
ENCODING 7763
SWIDTH 562 0
DWIDTH 14 0
BBX 13 23 2 0
BITMAP
0020
0070
00E0
01C0
0300
0400
0000
1FE0
1FE0
0000
03C0
1E70
3C70
3878
7878
7878
F8F8
F0F0
F0F0
F0E0
71E0
73C0
1E00
ENDCHAR
STARTCHAR uni1E54
ENCODING 7764
SWIDTH 660 0
DWIDTH 16 0
BBX 17 25 1 0
BITMAP
000800
001C00
003800
007000
00C000
010000
000000
1FFC00
078F00
078700
078780
070780
0F0780
0F0780
0F0F00
0F0F00
0F1E00
1FF000
1E0000
1E0000
1E0000
3C0000
3C0000
3C0000
FF0000
ENDCHAR
STARTCHAR uni1E55
ENCODING 7765
SWIDTH 606 0
DWIDTH 15 0
BBX 15 26 1 -6
BITMAP
0010
0038
0070
00E0
0180
0200
0000
0E38
7E7C
1E9E
1D1E
1E1E
1E1E
3C3C
3C3C
3C38
3878
7870
78E0
7780
7000
7000
F000
F000
E000
E000
ENDCHAR
STARTCHAR uni1E56
ENCODING 7766
SWIDTH 660 0
DWIDTH 16 0
BBX 17 23 1 0
BITMAP
006000
00F000
00F000
006000
000000
1FFC00
078F00
078700
078780
070780
0F0780
0F0780
0F0F00
0F0F00
0F1E00
1FF000
1E0000
1E0000
1E0000
3C0000
3C0000
3C0000
FF0000
ENDCHAR
STARTCHAR uni1E57
ENCODING 7767
SWIDTH 606 0
DWIDTH 15 0
BBX 15 24 1 -6
BITMAP
0180
03C0
03C0
0180
0000
0E38
7E7C
1E9E
1D1E
1E1E
1E1E
3C3C
3C3C
3C38
3878
7870
78E0
7780
7000
7000
F000
F000
E000
E000
ENDCHAR
STARTCHAR uni1E58
ENCODING 7768
SWIDTH 681 0
DWIDTH 17 0
BBX 17 23 1 0
BITMAP
006000
00F000
00F000
006000
000000
1FFC00
078F00
078780
078780
070780
0F0780
0F0F00
0F0F00
0F1E00
1FF000
1E1C00
1E1E00
1E1E00
1C1E00
3C1E00
3C1E00
3C0F00
FF0F80
ENDCHAR
STARTCHAR uni1E59
ENCODING 7769
SWIDTH 440 0
DWIDTH 11 0
BBX 11 18 2 0
BITMAP
0600
0F00
0F00
0600
0000
1C60
7DE0
3DE0
3A40
3C00
3C00
3800
7800
7000
7000
7000
F000
E000
ENDCHAR
STARTCHAR uni1E5A
ENCODING 7770
SWIDTH 681 0
DWIDTH 17 0
BBX 17 23 1 -5
BITMAP
1FFC00
078F00
078780
078780
070780
0F0780
0F0F00
0F0F00
0F1E00
1FF000
1E1C00
1E1E00
1E1E00
1C1E00
3C1E00
3C1E00
3C0F00
FF0F80
000000
00C000
01E000
01E000
00C000
ENDCHAR
STARTCHAR uni1E5B
ENCODING 7771
SWIDTH 440 0
DWIDTH 11 0
BBX 11 18 2 -5
BITMAP
1C60
7DE0
3DE0
3A40
3C00
3C00
3800
7800
7000
7000
7000
F000
E000
0000
3000
7800
7800
3000
ENDCHAR
STARTCHAR uni1E5C
ENCODING 7772
SWIDTH 681 0
DWIDTH 17 0
BBX 17 26 1 -5
BITMAP
03FC00
03FC00
000000
1FFC00
078F00
078780
078780
070780
0F0780
0F0F00
0F0F00
0F1E00
1FF000
1E1C00
1E1E00
1E1E00
1C1E00
3C1E00
3C1E00
3C0F00
FF0F80
000000
00C000
01E000
01E000
00C000
ENDCHAR
STARTCHAR uni1E5D
ENCODING 7773
SWIDTH 440 0
DWIDTH 11 0
BBX 11 21 2 -5
BITMAP
3FC0
3FC0
0000
1C60
7DE0
3DE0
3A40
3C00
3C00
3800
7800
7000
7000
7000
F000
E000
0000
3000
7800
7800
3000
ENDCHAR
STARTCHAR uni1E5E
ENCODING 7774
SWIDTH 681 0
DWIDTH 17 0
BBX 17 21 1 -3
BITMAP
1FFC00
078F00
078780
078780
070780
0F0780
0F0F00
0F0F00
0F1E00
1FF000
1E1C00
1E1E00
1E1E00
1C1E00
3C1E00
3C1E00
3C0F00
FF0F80
000000
07F800
07F800
ENDCHAR
STARTCHAR uni1E5F
ENCODING 7775
SWIDTH 440 0
DWIDTH 11 0
BBX 12 16 1 -3
BITMAP
0E30
3EF0
1EF0
1D20
1E00
1E00
1C00
3C00
3800
3800
3800
7800
7000
0000
FF00
FF00
ENDCHAR
STARTCHAR uni1E60
ENCODING 7776
SWIDTH 551 0
DWIDTH 14 0
BBX 13 23 2 0
BITMAP
0300
0780
0780
0300
0000
03E0
0E38
1C30
3C10
3C10
3C00
3E00
1F80
0FC0
03E0
01E0
01F0
C0F0
C0F0
C0E0
E0E0
71C0
1F00
ENDCHAR
STARTCHAR uni1E61
ENCODING 7777
SWIDTH 417 0
DWIDTH 10 0
BBX 10 18 1 0
BITMAP
0600
0F00
0F00
0600
0000
0F00
19C0
39C0
3880
3C00
1E00
1F00
0F00
0780
E380
E380
F300
3E00
ENDCHAR
STARTCHAR uni1E62
ENCODING 7778
SWIDTH 551 0
DWIDTH 14 0
BBX 13 23 2 -5
BITMAP
03E0
0E38
1C30
3C10
3C10
3C00
3E00
1F80
0FC0
03E0
01E0
01F0
C0F0
C0F0
C0E0
E0E0
71C0
1F00
0000
0600
0F00
0F00
0600
ENDCHAR
STARTCHAR uni1E63
ENCODING 7779
SWIDTH 417 0
DWIDTH 10 0
BBX 10 18 1 -5
BITMAP
0F00
19C0
39C0
3880
3C00
1E00
1F00
0F00
0780
E380
E380
F300
3E00
0000
0C00
1E00
1E00
0C00
ENDCHAR
STARTCHAR uni1E64
ENCODING 7780
SWIDTH 551 0
DWIDTH 14 0
BBX 13 30 2 0
BITMAP
0180
03C0
03C0
0180
0000
0020
0070
00E0
01C0
0300
0400
0000
03E0
0E38
1C30
3C10
3C10
3C00
3E00
1F80
0FC0
03E0
01E0
01F0
C0F0
C0F0
C0E0
E0E0
71C0
1F00
ENDCHAR
STARTCHAR uni1E65
ENCODING 7781
SWIDTH 417 0
DWIDTH 10 0
BBX 10 25 1 0
BITMAP
0600
0F00
0F00
0600
0000
0080
01C0
0380
0700
0C00
1000
0000
0F00
19C0
39C0
3880
3C00
1E00
1F00
0F00
0780
E380
E380
F300
3E00
ENDCHAR
STARTCHAR uni1E66
ENCODING 7782
SWIDTH 551 0
DWIDTH 14 0
BBX 15 28 2 0
BITMAP
00C0
01E0
01E0
00C0
0000
0C06
071C
03F8
01E0
00C0
03E0
0E38
1C30
3C10
3C10
3C00
3E00
1F80
0FC0
03E0
01E0
01F0
C0F0
C0F0
C0E0
E0E0
71C0
1F00
ENDCHAR
STARTCHAR uni1E67
ENCODING 7783
SWIDTH 417 0
DWIDTH 10 0
BBX 12 24 1 0
BITMAP
0300
0780
0780
0300
0000
1010
0830
0CE0
07C0
0780
0200
0F00
19C0
39C0
3880
3C00
1E00
1F00
0F00
0780
E380
E380
F300
3E00
ENDCHAR
STARTCHAR uni1E68
ENCODING 7784
SWIDTH 551 0
DWIDTH 14 0
BBX 13 28 2 -5
BITMAP
0300
0780
0780
0300
0000
03E0
0E38
1C30
3C10
3C10
3C00
3E00
1F80
0FC0
03E0
01E0
01F0
C0F0
C0F0
C0E0
E0E0
71C0
1F00
0000
0600
0F00
0F00
0600
ENDCHAR
STARTCHAR uni1E69
ENCODING 7785
SWIDTH 417 0
DWIDTH 10 0
BBX 10 23 1 -5
BITMAP
0C00
1E00
1E00
0C00
0000
0F00
19C0
39C0
3880
3C00
1E00
1F00
0F00
0780
E380
E380
F300
3E00
0000
0C00
1E00
1E00
0C00
ENDCHAR
STARTCHAR uni1E6A
ENCODING 7786
SWIDTH 616 0
DWIDTH 15 0
BBX 16 23 3 0
BITMAP
0180
03C0
03C0
0180
0000
7FFF
63C7
43C2
C3C2
83C2
0780
0780
0780
0780
0700
0F00
0F00
0F00
0F00
0E00
1E00
1E00
7F80
ENDCHAR
STARTCHAR uni1E6B
ENCODING 7787
SWIDTH 359 0
DWIDTH 9 0
BBX 9 22 2 0
BITMAP
0C00
1E00
1E00
0C00
0000
0200
0600
1E00
1C00
FF80
3C00
3C00
3800
3800
7800
7800
7000
7200
F200
F400
F800
7000
ENDCHAR
STARTCHAR uni1E6C
ENCODING 7788
SWIDTH 616 0
DWIDTH 15 0
BBX 16 23 3 -5
BITMAP
7FFF
63C7
43C2
C3C2
83C2
0780
0780
0780
0780
0700
0F00
0F00
0F00
0F00
0E00
1E00
1E00
7F80
0000
0600
0F00
0F00
0600
ENDCHAR
STARTCHAR uni1E6D
ENCODING 7789
SWIDTH 359 0
DWIDTH 9 0
BBX 9 22 2 -5
BITMAP
0200
0600
1E00
1C00
FF80
3C00
3C00
3800
3800
7800
7800
7000
7200
F200
F400
F800
7000
0000
3000
7800
7800
3000
ENDCHAR
STARTCHAR uni1E6E
ENCODING 7790
SWIDTH 616 0
DWIDTH 15 0
BBX 16 21 3 -3
BITMAP
7FFF
63C7
43C2
C3C2
83C2
0780
0780
0780
0780
0700
0F00
0F00
0F00
0F00
0E00
1E00
1E00
7F80
0000
3FC0
3FC0
ENDCHAR
STARTCHAR uni1E6F
ENCODING 7791
SWIDTH 359 0
DWIDTH 9 0
BBX 10 20 1 -3
BITMAP
0100
0300
0F00
0E00
7FC0
1E00
1E00
1C00
1C00
3C00
3C00
3800
3900
7900
7A00
7C00
3800
0000
FF00
FF00
ENDCHAR
STARTCHAR uni1E70
ENCODING 7792
SWIDTH 616 0
DWIDTH 15 0
BBX 16 25 3 -7
BITMAP
7FFF
63C7
43C2
C3C2
83C2
0780
0780
0780
0780
0700
0F00
0F00
0F00
0F00
0E00
1E00
1E00
7F80
0000
0200
0700
0F00
1980
30C0
4040
ENDCHAR
STARTCHAR uni1E71
ENCODING 7793
SWIDTH 359 0
DWIDTH 9 0
BBX 11 24 0 -7
BITMAP
0080
0180
0780
0700
3FE0
0F00
0F00
0E00
0E00
1E00
1E00
1C00
1C80
3C80
3D00
3E00
1C00
0000
0400
0E00
1E00
3300
6180
8080
ENDCHAR
STARTCHAR uni1E72
ENCODING 7794
SWIDTH 776 0
DWIDTH 19 0
BBX 19 23 4 -5
BITMAP
7F9FE0
3C0780
3C0700
3C0F00
3C0F00
380F00
780F00
780E00
781E00
781E00
701E00
F01C00
F03C00
F03C00
F03800
707800
78F000
1FC000
000000
0C3000
1E7800
1E7800
0C3000
ENDCHAR
STARTCHAR uni1E73
ENCODING 7795
SWIDTH 634 0
DWIDTH 16 0
BBX 15 18 2 -5
BITMAP
0E1C
FC1C
3C3C
3C3C
3878
7878
7878
78F8
7170
F172
F2F4
FCF8
7070
0000
1860
3CF0
3CF0
1860
ENDCHAR
STARTCHAR uni1E74
ENCODING 7796
SWIDTH 776 0
DWIDTH 19 0
BBX 19 23 4 -5
BITMAP
7F9FE0
3C0780
3C0700
3C0F00
3C0F00
380F00
780F00
780E00
781E00
781E00
701E00
F01C00
F03C00
F03C00
F03800
707800
78F000
1FC000
000000
041000
1FE000
37E000
208000
ENDCHAR
STARTCHAR uni1E75
ENCODING 7797
SWIDTH 634 0
DWIDTH 16 0
BBX 15 18 2 -5
BITMAP
0E1C
FC1C
3C3C
3C3C
3878
7878
7878
78F8
7170
F172
F2F4
FCF8
7070
0000
0410
1FE0
37E0
2080
ENDCHAR
STARTCHAR uni1E76
ENCODING 7798
SWIDTH 776 0
DWIDTH 19 0
BBX 19 25 4 -7
BITMAP
7F9FE0
3C0780
3C0700
3C0F00
3C0F00
380F00
780F00
780E00
781E00
781E00
701E00
F01C00
F03C00
F03C00
F03800
707800
78F000
1FC000
000000
010000
038000
078000
0CC000
186000
202000
ENDCHAR
STARTCHAR uni1E77
ENCODING 7799
SWIDTH 634 0
DWIDTH 16 0
BBX 15 20 2 -7
BITMAP
0E1C
FC1C
3C3C
3C3C
3878
7878
7878
78F8
7170
F172
F2F4
FCF8
7070
0000
0100
0380
0780
0CC0
1860
2020
ENDCHAR
STARTCHAR uni1E78
ENCODING 7800
SWIDTH 776 0
DWIDTH 19 0
BBX 19 30 4 0
BITMAP
000400
000E00
001C00
003800
006000
008000
000000
008200
03FC00
06FC00
041000
000000
7F9FE0
3C0780
3C0700
3C0F00
3C0F00
380F00
780F00
780E00
781E00
781E00
701E00
F01C00
F03C00
F03C00
F03800
707800
78F000
1FC000
ENDCHAR
STARTCHAR uni1E79
ENCODING 7801
SWIDTH 634 0
DWIDTH 16 0
BBX 15 25 2 0
BITMAP
0010
0038
0070
00E0
0180
0200
0000
0208
0FF0
1BF0
1040
0000
0E1C
FC1C
3C3C
3C3C
3878
7878
7878
78F8
7170
F172
F2F4
FCF8
7070
ENDCHAR
STARTCHAR uni1E7A
ENCODING 7802
SWIDTH 776 0
DWIDTH 19 0
BBX 19 26 4 0
BITMAP
061800
0F3C00
0F3C00
061800
000000
07F800
07F800
000000
7F9FE0
3C0780
3C0700
3C0F00
3C0F00
380F00
780F00
780E00
781E00
781E00
701E00
F01C00
F03C00
F03C00
F03800
707800
78F000
1FC000
ENDCHAR
STARTCHAR uni1E7B
ENCODING 7803
SWIDTH 634 0
DWIDTH 16 0
BBX 15 21 2 0
BITMAP
0C30
1E78
1E78
0C30
0000
0FF0
0FF0
0000
0E1C
FC1C
3C3C
3C3C
3878
7878
7878
78F8
7170
F172
F2F4
FCF8
7070
ENDCHAR
STARTCHAR uni1E7C
ENCODING 7804
SWIDTH 630 0
DWIDTH 16 0
BBX 17 23 3 0
BITMAP
020800
0FF000
1BF000
104000
000000
FE1F80
780600
380C00
380C00
3C1800
3C1800
3C3000
3C3000
3C6000
3C6000
1CC000
1C8000
1D8000
1D0000
1F0000
1E0000
1E0000
1C0000
ENDCHAR
STARTCHAR uni1E7D
ENCODING 7805
SWIDTH 518 0
DWIDTH 13 0
BBX 11 18 3 0
BITMAP
0820
3FC0
6FC0
4100
0000
1C40
F8E0
38E0
38E0
38C0
78C0
70C0
7180
7180
F300
F200
FC00
7800
ENDCHAR
STARTCHAR uni1E7E
ENCODING 7806
SWIDTH 630 0
DWIDTH 16 0
BBX 17 23 3 -5
BITMAP
FE1F80
780600
380C00
380C00
3C1800
3C1800
3C3000
3C3000
3C6000
3C6000
1CC000
1C8000
1D8000
1D0000
1F0000
1E0000
1E0000
1C0000
000000
060000
0F0000
0F0000
060000
ENDCHAR
STARTCHAR uni1E7F
ENCODING 7807
SWIDTH 518 0
DWIDTH 13 0
BBX 11 18 3 -5
BITMAP
1C40
F8E0
38E0
38E0
38C0
78C0
70C0
7180
7180
F300
F200
FC00
7800
0000
1800
3C00
3C00
1800
ENDCHAR
STARTCHAR Wgrave
ENCODING 7808
SWIDTH 920 0
DWIDTH 23 0
BBX 24 25 3 0
BITMAP
010000
038000
01C000
00E000
003000
000800
000000
FF003F
7C0E0C
3C1E0C
3C1E18
3C3E18
3C3E10
3C7E30
3C5E20
3C5E60
3C8E60
3C8E40
3D0EC0
3D0E80
3F0F80
3E0F00
3E0F00
3C0E00
3C0E00
ENDCHAR
STARTCHAR wgrave
ENCODING 7809
SWIDTH 795 0
DWIDTH 20 0
BBX 19 20 3 0
BITMAP
020000
070000
038000
01C000
006000
001000
000000
1C38C0
FC78E0
3C70E0
3870E0
3870C0
78F0C0
78F080
71E180
71E100
F2E200
F2E400
FCF800
707000
ENDCHAR
STARTCHAR Wacute
ENCODING 7810
SWIDTH 920 0
DWIDTH 23 0
BBX 24 25 3 0
BITMAP
000200
000700
000E00
001C00
003000
004000
000000
FF003F
7C0E0C
3C1E0C
3C1E18
3C3E18
3C3E10
3C7E30
3C5E20
3C5E60
3C8E60
3C8E40
3D0EC0
3D0E80
3F0F80
3E0F00
3E0F00
3C0E00
3C0E00
ENDCHAR
STARTCHAR wacute
ENCODING 7811
SWIDTH 795 0
DWIDTH 20 0
BBX 19 20 3 0
BITMAP
000400
000E00
001C00
003800
006000
008000
000000
1C38C0
FC78E0
3C70E0
3870E0
3870C0
78F0C0
78F080
71E180
71E100
F2E200
F2E400
FCF800
707000
ENDCHAR
STARTCHAR Wdieresis
ENCODING 7812
SWIDTH 920 0
DWIDTH 23 0
BBX 24 23 3 0
BITMAP
018600
03CF00
03CF00
018600
000000
FF003F
7C0E0C
3C1E0C
3C1E18
3C3E18
3C3E10
3C7E30
3C5E20
3C5E60
3C8E60
3C8E40
3D0EC0
3D0E80
3F0F80
3E0F00
3E0F00
3C0E00
3C0E00
ENDCHAR
STARTCHAR wdieresis
ENCODING 7813
SWIDTH 795 0
DWIDTH 20 0
BBX 19 18 3 0
BITMAP
030C00
079E00
079E00
030C00
000000
1C38C0
FC78E0
3C70E0
3870E0
3870C0
78F0C0
78F080
71E180
71E100
F2E200
F2E400
FCF800
707000
ENDCHAR
STARTCHAR uni1E86
ENCODING 7814
SWIDTH 920 0
DWIDTH 23 0
BBX 24 23 3 0
BITMAP
003000
007800
007800
003000
000000
FF003F
7C0E0C
3C1E0C
3C1E18
3C3E18
3C3E10
3C7E30
3C5E20
3C5E60
3C8E60
3C8E40
3D0EC0
3D0E80
3F0F80
3E0F00
3E0F00
3C0E00
3C0E00
ENDCHAR
STARTCHAR uni1E87
ENCODING 7815
SWIDTH 795 0
DWIDTH 20 0
BBX 19 18 3 0
BITMAP
006000
00F000
00F000
006000
000000
1C38C0
FC78E0
3C70E0
3870E0
3870C0
78F0C0
78F080
71E180
71E100
F2E200
F2E400
FCF800
707000
ENDCHAR
STARTCHAR uni1E88
ENCODING 7816
SWIDTH 920 0
DWIDTH 23 0
BBX 24 23 3 -5
BITMAP
FF003F
7C0E0C
3C1E0C
3C1E18
3C3E18
3C3E10
3C7E30
3C5E20
3C5E60
3C8E60
3C8E40
3D0EC0
3D0E80
3F0F80
3E0F00
3E0F00
3C0E00
3C0E00
000000
006000
00F000
00F000
006000
ENDCHAR
STARTCHAR uni1E89
ENCODING 7817
SWIDTH 795 0
DWIDTH 20 0
BBX 19 18 3 -5
BITMAP
1C38C0
FC78E0
3C70E0
3870E0
3870C0
78F0C0
78F080
71E180
71E100
F2E200
F2E400
FCF800
707000
000000
030000
078000
078000
030000
ENDCHAR
STARTCHAR uni1E8A
ENCODING 7818
SWIDTH 630 0
DWIDTH 16 0
BBX 20 23 -1 0
BITMAP
003000
007800
007800
003000
000000
0FF3F0
07C1C0
03C380
03C300
01E600
01EC00
00F800
00F000
00F000
00F800
00F800
01F800
033C00
063C00
0C1E00
1C1E00
381F00
FE7F80
ENDCHAR
STARTCHAR uni1E8B
ENCODING 7819
SWIDTH 516 0
DWIDTH 13 0
BBX 15 18 0 0
BITMAP
00C0
01E0
01E0
00C0
0000
011C
0F3E
1FBC
07C0
0780
0380
0380
03C0
05C4
45C8
F9C8
F9F0
60E0
ENDCHAR
STARTCHAR uni1E8C
ENCODING 7820
SWIDTH 630 0
DWIDTH 16 0
BBX 20 23 -1 0
BITMAP
018600
03CF00
03CF00
018600
000000
0FF3F0
07C1C0
03C380
03C300
01E600
01EC00
00F800
00F000
00F000
00F800
00F800
01F800
033C00
063C00
0C1E00
1C1E00
381F00
FE7F80
ENDCHAR
STARTCHAR uni1E8D
ENCODING 7821
SWIDTH 516 0
DWIDTH 13 0
BBX 15 18 0 0
BITMAP
0618
0F3C
0F3C
0618
0000
011C
0F3E
1FBC
07C0
0780
0380
0380
03C0
05C4
45C8
F9C8
F9F0
60E0
ENDCHAR
STARTCHAR uni1E8E
ENCODING 7822
SWIDTH 622 0
DWIDTH 16 0
BBX 17 23 3 0
BITMAP
018000
03C000
03C000
018000
000000
FF3F80
3C0E00
3C0C00
3C1800
1C3800
1E3000
1E6000
1E4000
0EC000
0F8000
0F0000
0F0000
0F0000
0F0000
1E0000
1E0000
1E0000
FF8000
ENDCHAR
STARTCHAR uni1E8F
ENCODING 7823
SWIDTH 489 0
DWIDTH 12 0
BBX 14 24 0 -6
BITMAP
0180
03C0
03C0
0180
0000
020C
1E1C
7E1C
0E18
0E18
0E30
0F30
0F20
0F60
0740
07C0
0780
0700
0700
0600
4400
EC00
F800
7000
ENDCHAR
STARTCHAR uni1E90
ENCODING 7824
SWIDTH 618 0
DWIDTH 15 0
BBX 19 25 0 0
BITMAP
000800
001C00
003C00
006600
00C300
010100
000000
07FFE0
0607C0
040F80
0C1F80
081F00
003E00
007C00
00F800
01F000
01F000
03E000
07C000
0F8000
1F0100
1E0300
3E0300
7C0600
FFFE00
ENDCHAR
STARTCHAR uni1E91
ENCODING 7825
SWIDTH 466 0
DWIDTH 12 0
BBX 14 20 0 0
BITMAP
0080
01C0
03C0
0660
0C30
1010
0000
1FFC
1FF8
30F0
21E0
0380
0300
0600
0C10
1810
3E30
7FE0
EFE0
C1C0
ENDCHAR
STARTCHAR uni1E92
ENCODING 7826
SWIDTH 618 0
DWIDTH 15 0
BBX 19 23 0 -5
BITMAP
07FFE0
0607C0
040F80
0C1F80
081F00
003E00
007C00
00F800
01F000
01F000
03E000
07C000
0F8000
1F0100
1E0300
3E0300
7C0600
FFFE00
000000
018000
03C000
03C000
018000
ENDCHAR
STARTCHAR uni1E93
ENCODING 7827
SWIDTH 466 0
DWIDTH 12 0
BBX 14 18 0 -5
BITMAP
1FFC
1FF8
30F0
21E0
0380
0300
0600
0C10
1810
3E30
7FE0
EFE0
C1C0
0000
0600
0F00
0F00
0600
ENDCHAR
STARTCHAR uni1E94
ENCODING 7828
SWIDTH 618 0
DWIDTH 15 0
BBX 19 21 0 -3
BITMAP
07FFE0
0607C0
040F80
0C1F80
081F00
003E00
007C00
00F800
01F000
01F000
03E000
07C000
0F8000
1F0100
1E0300
3E0300
7C0600
FFFE00
000000
0FF000
0FF000
ENDCHAR
STARTCHAR uni1E95
ENCODING 7829
SWIDTH 466 0
DWIDTH 12 0
BBX 14 16 0 -3
BITMAP
1FFC
1FF8
30F0
21E0
0380
0300
0600
0C10
1810
3E30
7FE0
EFE0
C1C0
0000
3FC0
3FC0
ENDCHAR
STARTCHAR uni1E96
ENCODING 7830
SWIDTH 629 0
DWIDTH 16 0
BBX 15 22 2 -3
BITMAP
0700
3F00
0E00
0E00
1E00
1E00
1C38
1CFC
1D3C
3D3C
3A38
3C38
3C78
7878
7870
78F2
70F4
70F8
F070
0000
1FE0
1FE0
ENDCHAR
STARTCHAR uni1E97
ENCODING 7831
SWIDTH 359 0
DWIDTH 9 0
BBX 10 22 2 0
BITMAP
6180
F3C0
F3C0
6180
0000
0200
0600
1E00
1C00
FF80
3C00
3C00
3800
3800
7800
7800
7000
7200
F200
F400
F800
7000
ENDCHAR
STARTCHAR uni1E98
ENCODING 7832
SWIDTH 795 0
DWIDTH 20 0
BBX 19 20 3 0
BITMAP
00E000
019000
031800
031800
013000
00E000
000000
1C38C0
FC78E0
3C70E0
3870E0
3870C0
78F0C0
78F080
71E180
71E100
F2E200
F2E400
FCF800
707000
ENDCHAR
STARTCHAR uni1E99
ENCODING 7833
SWIDTH 489 0
DWIDTH 12 0
BBX 14 26 0 -6
BITMAP
0380
0640
0C60
0C60
04C0
0380
0000
020C
1E1C
7E1C
0E18
0E18
0E30
0F30
0F20
0F60
0740
07C0
0780
0700
0700
0600
4400
EC00
F800
7000
ENDCHAR
STARTCHAR uni1EA0
ENCODING 7840
SWIDTH 634 0
DWIDTH 16 0
BBX 17 23 0 -5
BITMAP
001C00
003C00
003C00
007C00
007C00
00DC00
009C00
019C00
011C00
031E00
021E00
07FE00
0C1E00
0C1E00
181E00
181E00
301E00
FC7F80
000000
00C000
01E000
01E000
00C000
ENDCHAR
STARTCHAR uni1EA1
ENCODING 7841
SWIDTH 596 0
DWIDTH 15 0
BBX 15 18 1 -5
BITMAP
03DC
073C
1E3C
3C38
3878
7878
78F8
70F0
F170
F1F2
F2F4
FCF8
7070
0000
0300
0780
0780
0300
ENDCHAR
STARTCHAR uni1EA4
ENCODING 7844
SWIDTH 634 0
DWIDTH 16 0
BBX 17 30 0 0
BITMAP
000200
000700
000E00
001C00
003000
004000
000000
000C00
001E00
007F00
00E380
000000
001C00
003C00
003C00
007C00
007C00
00DC00
009C00
019C00
011C00
031E00
021E00
07FE00
0C1E00
0C1E00
181E00
181E00
301E00
FC7F80
ENDCHAR
STARTCHAR uni1EA5
ENCODING 7845
SWIDTH 596 0
DWIDTH 15 0
BBX 15 26 1 0
BITMAP
0008
001C
0038
0070
00C0
0100
0000
0020
00F0
01F0
0398
060C
0404
03DC
073C
1E3C
3C38
3878
7878
78F8
70F0
F170
F1F2
F2F4
FCF8
7070
ENDCHAR
STARTCHAR uni1EA6
ENCODING 7846
SWIDTH 634 0
DWIDTH 16 0
BBX 17 30 0 0
BITMAP
010000
038000
01C000
00E000
003000
000800
000000
000C00
001E00
007F00
00E380
000000
001C00
003C00
003C00
007C00
007C00
00DC00
009C00
019C00
011C00
031E00
021E00
07FE00
0C1E00
0C1E00
181E00
181E00
301E00
FC7F80
ENDCHAR
STARTCHAR uni1EA7
ENCODING 7847
SWIDTH 596 0
DWIDTH 15 0
BBX 15 26 1 0
BITMAP
0400
0E00
0700
0380
00C0
0020
0000
0020
00F0
01F0
0398
060C
0404
03DC
073C
1E3C
3C38
3878
7878
78F8
70F0
F170
F1F2
F2F4
FCF8
7070
ENDCHAR
STARTCHAR uni1EAA
ENCODING 7850
SWIDTH 634 0
DWIDTH 16 0
BBX 17 28 0 0
BITMAP
002080
00FF00
01BF00
010400
000000
000C00
001E00
007F00
00E380
000000
001C00
003C00
003C00
007C00
007C00
00DC00
009C00
019C00
011C00
031E00
021E00
07FE00
0C1E00
0C1E00
181E00
181E00
301E00
FC7F80
ENDCHAR
STARTCHAR uni1EAB
ENCODING 7851
SWIDTH 596 0
DWIDTH 15 0
BBX 15 24 1 0
BITMAP
0104
07F8
0DF8
0820
0000
0020
00F0
01F0
0398
060C
0404
03DC
073C
1E3C
3C38
3878
7878
78F8
70F0
F170
F1F2
F2F4
FCF8
7070
ENDCHAR
STARTCHAR uni1EAC
ENCODING 7852
SWIDTH 634 0
DWIDTH 16 0
BBX 17 30 0 -5
BITMAP
001000
003800
007800
00CC00
018600
020200
000000
001C00
003C00
003C00
007C00
007C00
00DC00
009C00
019C00
011C00
031E00
021E00
07FE00
0C1E00
0C1E00
181E00
181E00
301E00
FC7F80
000000
00C000
01E000
01E000
00C000
ENDCHAR
STARTCHAR uni1EAD
ENCODING 7853
SWIDTH 596 0
DWIDTH 15 0
BBX 15 25 1 -5
BITMAP
0040
00E0
01E0
0330
0618
0808
0000
03DC
073C
1E3C
3C38
3878
7878
78F8
70F0
F170
F1F2
F2F4
FCF8
7070
0000
0300
0780
0780
0300
ENDCHAR
STARTCHAR uni1EAE
ENCODING 7854
SWIDTH 634 0
DWIDTH 16 0
BBX 17 30 0 0
BITMAP
000400
000E00
001C00
003800
006000
008000
000000
010200
010400
01FC00
00F000
000000
001C00
003C00
003C00
007C00
007C00
00DC00
009C00
019C00
011C00
031E00
021E00
07FE00
0C1E00
0C1E00
181E00
181E00
301E00
FC7F80
ENDCHAR
STARTCHAR uni1EAF
ENCODING 7855
SWIDTH 596 0
DWIDTH 15 0
BBX 15 25 1 0
BITMAP
0010
0038
0070
00E0
0180
0200
0000
0408
0410
07F0
03C0
0000
03DC
073C
1E3C
3C38
3878
7878
78F8
70F0
F170
F1F2
F2F4
FCF8
7070
ENDCHAR
STARTCHAR uni1EB0
ENCODING 7856
SWIDTH 634 0
DWIDTH 16 0
BBX 17 30 0 0
BITMAP
020000
070000
038000
01C000
006000
001000
000000
010200
010400
01FC00
00F000
000000
001C00
003C00
003C00
007C00
007C00
00DC00
009C00
019C00
011C00
031E00
021E00
07FE00
0C1E00
0C1E00
181E00
181E00
301E00
FC7F80
ENDCHAR
STARTCHAR uni1EB1
ENCODING 7857
SWIDTH 596 0
DWIDTH 15 0
BBX 15 25 1 0
BITMAP
0800
1C00
0E00
0700
0180
0040
0000
0408
0410
07F0
03C0
0000
03DC
073C
1E3C
3C38
3878
7878
78F8
70F0
F170
F1F2
F2F4
FCF8
7070
ENDCHAR
STARTCHAR uni1EB4
ENCODING 7860
SWIDTH 634 0
DWIDTH 16 0
BBX 17 28 0 0
BITMAP
008200
03FC00
06FC00
041000
000000
010200
010400
01FC00
00F000
000000
001C00
003C00
003C00
007C00
007C00
00DC00
009C00
019C00
011C00
031E00
021E00
07FE00
0C1E00
0C1E00
181E00
181E00
301E00
FC7F80
ENDCHAR
STARTCHAR uni1EB5
ENCODING 7861
SWIDTH 596 0
DWIDTH 15 0
BBX 15 23 1 0
BITMAP
0208
0FF0
1BF0
1040
0000
0408
0410
07F0
03C0
0000
03DC
073C
1E3C
3C38
3878
7878
78F8
70F0
F170
F1F2
F2F4
FCF8
7070
ENDCHAR
STARTCHAR uni1EB6
ENCODING 7862
SWIDTH 634 0
DWIDTH 16 0
BBX 17 28 0 -5
BITMAP
010200
010400
01FC00
00F000
000000
001C00
003C00
003C00
007C00
007C00
00DC00
009C00
019C00
011C00
031E00
021E00
07FE00
0C1E00
0C1E00
181E00
181E00
301E00
FC7F80
000000
00C000
01E000
01E000
00C000
ENDCHAR
STARTCHAR uni1EB7
ENCODING 7863
SWIDTH 596 0
DWIDTH 15 0
BBX 15 23 1 -5
BITMAP
0408
0410
07F0
03C0
0000
03DC
073C
1E3C
3C38
3878
7878
78F8
70F0
F170
F1F2
F2F4
FCF8
7070
0000
0300
0780
0780
0300
ENDCHAR
STARTCHAR uni1EB8
ENCODING 7864
SWIDTH 622 0
DWIDTH 16 0
BBX 17 23 1 -5
BITMAP
1FFF80
078380
078180
078100
078100
070000
0F0400
0F0C00
0FF800
0F1800
0E0800
1E0000
1E0000
1E0200
1E0600
3C0C00
3C1C00
FFFC00
000000
018000
03C000
03C000
018000
ENDCHAR
STARTCHAR uni1EB9
ENCODING 7865
SWIDTH 476 0
DWIDTH 12 0
BBX 11 18 2 -5
BITMAP
0380
0CE0
38E0
38E0
79C0
73C0
FF00
F800
F040
F080
F180
7F00
1800
0000
0C00
1E00
1E00
0C00
ENDCHAR
STARTCHAR uni1EBC
ENCODING 7868
SWIDTH 622 0
DWIDTH 16 0
BBX 17 23 1 0
BITMAP
008200
03FC00
06FC00
041000
000000
1FFF80
078380
078180
078100
078100
070000
0F0400
0F0C00
0FF800
0F1800
0E0800
1E0000
1E0000
1E0200
1E0600
3C0C00
3C1C00
FFFC00
ENDCHAR
STARTCHAR uni1EBD
ENCODING 7869
SWIDTH 476 0
DWIDTH 12 0
BBX 12 18 2 0
BITMAP
0410
1FE0
37E0
2080
0000
0380
0CE0
38E0
38E0
79C0
73C0
FF00
F800
F040
F080
F180
7F00
1800
ENDCHAR
STARTCHAR uni1EBE
ENCODING 7870
SWIDTH 622 0
DWIDTH 16 0
BBX 17 30 1 0
BITMAP
000400
000E00
001C00
003800
006000
008000
000000
001000
003C00
00FE00
038700
000000
1FFF80
078380
078180
078100
078100
070000
0F0400
0F0C00
0FF800
0F1800
0E0800
1E0000
1E0000
1E0200
1E0600
3C0C00
3C1C00
FFFC00
ENDCHAR
STARTCHAR uni1EBF
ENCODING 7871
SWIDTH 476 0
DWIDTH 12 0
BBX 12 26 2 0
BITMAP
0020
0070
00E0
01C0
0300
0400
0000
0180
0380
07C0
0E60
1830
1020
0380
0CE0
38E0
38E0
79C0
73C0
FF00
F800
F040
F080
F180
7F00
1800
ENDCHAR
STARTCHAR uni1EC0
ENCODING 7872
SWIDTH 622 0
DWIDTH 16 0
BBX 17 30 1 0
BITMAP
020000
070000
038000
01C000
006000
001000
000000
001000
003C00
00FE00
038700
000000
1FFF80
078380
078180
078100
078100
070000
0F0400
0F0C00
0FF800
0F1800
0E0800
1E0000
1E0000
1E0200
1E0600
3C0C00
3C1C00
FFFC00
ENDCHAR
STARTCHAR uni1EC1
ENCODING 7873
SWIDTH 476 0
DWIDTH 12 0
BBX 12 26 2 0
BITMAP
1000
3800
1C00
0E00
0300
0080
0000
0180
0380
07C0
0E60
1830
1020
0380
0CE0
38E0
38E0
79C0
73C0
FF00
F800
F040
F080
F180
7F00
1800
ENDCHAR
STARTCHAR uni1EC4
ENCODING 7876
SWIDTH 622 0
DWIDTH 16 0
BBX 17 28 1 0
BITMAP
008200
03FC00
06FC00
041000
000000
001000
003C00
00FE00
038700
000000
1FFF80
078380
078180
078100
078100
070000
0F0400
0F0C00
0FF800
0F1800
0E0800
1E0000
1E0000
1E0200
1E0600
3C0C00
3C1C00
FFFC00
ENDCHAR
STARTCHAR uni1EC5
ENCODING 7877
SWIDTH 476 0
DWIDTH 12 0
BBX 12 24 2 0
BITMAP
0410
1FE0
37E0
2080
0000
0180
0380
07C0
0E60
1830
1020
0380
0CE0
38E0
38E0
79C0
73C0
FF00
F800
F040
F080
F180
7F00
1800
ENDCHAR
STARTCHAR uni1EC6
ENCODING 7878
SWIDTH 622 0
DWIDTH 16 0
BBX 17 30 1 -5
BITMAP
004000
00E000
01E000
033000
061800
080800
000000
1FFF80
078380
078180
078100
078100
070000
0F0400
0F0C00
0FF800
0F1800
0E0800
1E0000
1E0000
1E0200
1E0600
3C0C00
3C1C00
FFFC00
000000
018000
03C000
03C000
018000
ENDCHAR
STARTCHAR uni1EC7
ENCODING 7879
SWIDTH 476 0
DWIDTH 12 0
BBX 11 25 2 -5
BITMAP
0200
0700
0F00
1980
30C0
4040
0000
0380
0CE0
38E0
38E0
79C0
73C0
FF00
F800
F040
F080
F180
7F00
1800
0000
0C00
1E00
1E00
0C00
ENDCHAR
STARTCHAR uni1ECA
ENCODING 7882
SWIDTH 386 0
DWIDTH 10 0
BBX 12 23 1 -5
BITMAP
0FF0
03C0
0780
0780
0780
0780
0700
0F00
0F00
0F00
0F00
0E00
1E00
1E00
1E00
1E00
3C00
FF00
0000
0C00
1E00
1E00
0C00
ENDCHAR
STARTCHAR uni1ECB
ENCODING 7883
SWIDTH 339 0
DWIDTH 8 0
BBX 8 23 2 -5
BITMAP
06
0F
0F
06
00
0E
FC
3C
3C
38
38
78
78
70
72
F4
F8
70
00
30
78
78
30
ENDCHAR
STARTCHAR uni1ECC
ENCODING 7884
SWIDTH 761 0
DWIDTH 19 0
BBX 17 23 3 -5
BITMAP
01F800
0F0E00
1E0600
3E0700
3C0780
780780
780780
780780
F80780
F00F80
F00F00
F00F00
F00F00
F01E00
703E00
383C00
187800
0FE000
000000
018000
03C000
03C000
018000
ENDCHAR
STARTCHAR uni1ECD
ENCODING 7885
SWIDTH 562 0
DWIDTH 14 0
BBX 13 18 2 -5
BITMAP
03C0
1E70
3C70
3878
7878
7878
F8F8
F0F0
F0F0
F0E0
71E0
73C0
1E00
0000
0600
0F00
0F00
0600
ENDCHAR
STARTCHAR uni1ED0
ENCODING 7888
SWIDTH 761 0
DWIDTH 19 0
BBX 17 30 3 0
BITMAP
000400
000E00
001C00
003800
006000
008000
000000
001000
007800
00FC00
038600
020200
01F800
0F0E00
1E0600
3E0700
3C0780
780780
780780
780780
F80780
F00F80
F00F00
F00F00
F00F00
F01E00
703E00
383C00
187800
0FE000
ENDCHAR
STARTCHAR uni1ED1
ENCODING 7889
SWIDTH 562 0
DWIDTH 14 0
BBX 13 26 2 0
BITMAP
0010
0038
0070
00E0
0180
0200
0000
0080
01C0
03E0
0660
0830
1010
03C0
1E70
3C70
3878
7878
7878
F8F8
F0F0
F0F0
F0E0
71E0
73C0
1E00
ENDCHAR
STARTCHAR uni1ED2
ENCODING 7890
SWIDTH 761 0
DWIDTH 19 0
BBX 17 30 3 0
BITMAP
020000
070000
038000
01C000
006000
001000
000000
001000
007800
00FC00
038600
020200
01F800
0F0E00
1E0600
3E0700
3C0780
780780
780780
780780
F80780
F00F80
F00F00
F00F00
F00F00
F01E00
703E00
383C00
187800
0FE000
ENDCHAR
STARTCHAR uni1ED3
ENCODING 7891
SWIDTH 562 0
DWIDTH 14 0
BBX 13 26 2 0
BITMAP
0800
1C00
0E00
0700
0180
0040
0000
0080
01C0
03E0
0660
0830
1010
03C0
1E70
3C70
3878
7878
7878
F8F8
F0F0
F0F0
F0E0
71E0
73C0
1E00
ENDCHAR
STARTCHAR uni1ED6
ENCODING 7894
SWIDTH 761 0
DWIDTH 19 0
BBX 17 28 3 0
BITMAP
008200
03FC00
06FC00
041000
000000
001000
007800
00FC00
038600
020200
01F800
0F0E00
1E0600
3E0700
3C0780
780780
780780
780780
F80780
F00F80
F00F00
F00F00
F00F00
F01E00
703E00
383C00
187800
0FE000
ENDCHAR
STARTCHAR uni1ED7
ENCODING 7895
SWIDTH 562 0
DWIDTH 14 0
BBX 13 24 2 0
BITMAP
0208
0FF0
1BF0
1040
0000
0080
01C0
03E0
0660
0830
1010
03C0
1E70
3C70
3878
7878
7878
F8F8
F0F0
F0F0
F0E0
71E0
73C0
1E00
ENDCHAR
STARTCHAR uni1ED8
ENCODING 7896
SWIDTH 761 0
DWIDTH 19 0
BBX 17 30 3 -5
BITMAP
004000
00E000
01E000
033000
061800
080800
000000
01F800
0F0E00
1E0600
3E0700
3C0780
780780
780780
780780
F80780
F00F80
F00F00
F00F00
F00F00
F01E00
703E00
383C00
187800
0FE000
000000
018000
03C000
03C000
018000
ENDCHAR
STARTCHAR uni1ED9
ENCODING 7897
SWIDTH 562 0
DWIDTH 14 0
BBX 13 25 2 -5
BITMAP
0100
0380
0780
0CC0
1860
2020
0000
03C0
1E70
3C70
3878
7878
7878
F8F8
F0F0
F0F0
F0E0
71E0
73C0
1E00
0000
0600
0F00
0F00
0600
ENDCHAR
STARTCHAR uni1EDA
ENCODING 7898
SWIDTH 761 0
DWIDTH 19 0
BBX 20 25 3 0
BITMAP
000200
000700
000E00
001C00
003000
004000
000000
01F860
0F0EF0
1E06F0
3E0770
3C07E0
7807C0
780780
780780
F80780
F00F80
F00F00
F00F00
F00F00
F01E00
703E00
383C00
187800
0FE000
ENDCHAR
STARTCHAR uni1EDB
ENCODING 7899
SWIDTH 562 0
DWIDTH 14 0
BBX 17 20 2 0
BITMAP
000800
001C00
003800
007000
00C000
010000
000000
03C300
1E7780
3C7780
387B80
787B00
787E00
F8FC00
F0F800
F0F000
F0E000
71E000
73C000
1E0000
ENDCHAR
STARTCHAR uni1EDC
ENCODING 7900
SWIDTH 761 0
DWIDTH 19 0
BBX 20 25 3 0
BITMAP
010000
038000
01C000
00E000
003000
000800
000000
01F860
0F0EF0
1E06F0
3E0770
3C07E0
7807C0
780780
780780
F80780
F00F80
F00F00
F00F00
F00F00
F01E00
703E00
383C00
187800
0FE000
ENDCHAR
STARTCHAR uni1EDD
ENCODING 7901
SWIDTH 562 0
DWIDTH 14 0
BBX 17 20 2 0
BITMAP
020000
070000
038000
01C000
006000
001000
000000
03C300
1E7780
3C7780
387B80
787B00
787E00
F8FC00
F0F800
F0F000
F0E000
71E000
73C000
1E0000
ENDCHAR
STARTCHAR uni1EE0
ENCODING 7904
SWIDTH 761 0
DWIDTH 19 0
BBX 20 23 3 0
BITMAP
004100
01FE00
037E00
020800
000000
01F860
0F0EF0
1E06F0
3E0770
3C07E0
7807C0
780780
780780
F80780
F00F80
F00F00
F00F00
F00F00
F01E00
703E00
383C00
187800
0FE000
ENDCHAR
STARTCHAR uni1EE1
ENCODING 7905
SWIDTH 562 0
DWIDTH 14 0
BBX 17 18 2 0
BITMAP
008200
03FC00
06FC00
041000
000000
03C300
1E7780
3C7780
387B80
787B00
787E00
F8FC00
F0F800
F0F000
F0E000
71E000
73C000
1E0000
ENDCHAR
STARTCHAR uni1EE2
ENCODING 7906
SWIDTH 761 0
DWIDTH 19 0
BBX 20 23 3 -5
BITMAP
01F860
0F0EF0
1E06F0
3E0770
3C07E0
7807C0
780780
780780
F80780
F00F80
F00F00
F00F00
F00F00
F01E00
703E00
383C00
187800
0FE000
000000
00C000
01E000
01E000
00C000
ENDCHAR
STARTCHAR uni1EE3
ENCODING 7907
SWIDTH 562 0
DWIDTH 14 0
BBX 17 18 2 -5
BITMAP
03C300
1E7780
3C7780
387B80
787B00
787E00
F8FC00
F0F800
F0F000
F0E000
71E000
73C000
1E0000
000000
030000
078000
078000
030000
ENDCHAR
STARTCHAR uni1EE4
ENCODING 7908
SWIDTH 776 0
DWIDTH 19 0
BBX 19 23 4 -5
BITMAP
7F9FE0
3C0780
3C0700
3C0F00
3C0F00
380F00
780F00
780E00
781E00
781E00
701E00
F01C00
F03C00
F03C00
F03800
707800
78F000
1FC000
000000
018000
03C000
03C000
018000
ENDCHAR
STARTCHAR uni1EE5
ENCODING 7909
SWIDTH 634 0
DWIDTH 16 0
BBX 15 18 2 -5
BITMAP
0E1C
FC1C
3C3C
3C3C
3878
7878
7878
78F8
7170
F172
F2F4
FCF8
7070
0000
0300
0780
0780
0300
ENDCHAR
STARTCHAR uni1EE8
ENCODING 7912
SWIDTH 776 0
DWIDTH 19 0
BBX 22 25 4 0
BITMAP
000200
000700
000E00
001C00
003000
004000
000000
7F9FF8
3C07BC
3C073C
3C0F1C
3C0F18
380F30
780F20
780E40
781E00
781E00
701E00
F01C00
F03C00
F03C00
F03800
707800
78F000
1FC000
ENDCHAR
STARTCHAR uni1EE9
ENCODING 7913
SWIDTH 634 0
DWIDTH 16 0
BBX 19 20 2 0
BITMAP
000400
000E00
001C00
003800
006000
008000
000000
0E1CC0
FC1DE0
3C3DE0
3C3CE0
3878C0
787980
787900
78FA00
717000
F17200
F2F400
FCF800
707000
ENDCHAR
STARTCHAR uni1EEA
ENCODING 7914
SWIDTH 776 0
DWIDTH 19 0
BBX 22 25 4 0
BITMAP
008000
01C000
00E000
007000
001800
000400
000000
7F9FF8
3C07BC
3C073C
3C0F1C
3C0F18
380F30
780F20
780E40
781E00
781E00
701E00
F01C00
F03C00
F03C00
F03800
707800
78F000
1FC000
ENDCHAR
STARTCHAR uni1EEB
ENCODING 7915
SWIDTH 634 0
DWIDTH 16 0
BBX 19 20 2 0
BITMAP
020000
070000
038000
01C000
006000
001000
000000
0E1CC0
FC1DE0
3C3DE0
3C3CE0
3878C0
787980
787900
78FA00
717000
F17200
F2F400
FCF800
707000
ENDCHAR
STARTCHAR uni1EEE
ENCODING 7918
SWIDTH 776 0
DWIDTH 19 0
BBX 22 23 4 0
BITMAP
002080
00FF00
01BF00
010400
000000
7F9FF8
3C07BC
3C073C
3C0F1C
3C0F18
380F30
780F20
780E40
781E00
781E00
701E00
F01C00
F03C00
F03C00
F03800
707800
78F000
1FC000
ENDCHAR
STARTCHAR uni1EEF
ENCODING 7919
SWIDTH 634 0
DWIDTH 16 0
BBX 19 18 2 0
BITMAP
008200
03FC00
06FC00
041000
000000
0E1CC0
FC1DE0
3C3DE0
3C3CE0
3878C0
787980
787900
78FA00
717000
F17200
F2F400
FCF800
707000
ENDCHAR
STARTCHAR uni1EF0
ENCODING 7920
SWIDTH 776 0
DWIDTH 19 0
BBX 22 23 4 -5
BITMAP
7F9FF8
3C07BC
3C073C
3C0F1C
3C0F18
380F30
780F20
780E40
781E00
781E00
701E00
F01C00
F03C00
F03C00
F03800
707800
78F000
1FC000
000000
018000
03C000
03C000
018000
ENDCHAR
STARTCHAR uni1EF1
ENCODING 7921
SWIDTH 634 0
DWIDTH 16 0
BBX 19 18 2 -5
BITMAP
0E1CC0
FC1DE0
3C3DE0
3C3CE0
3878C0
787980
787900
78FA00
717000
F17200
F2F400
FCF800
707000
000000
018000
03C000
03C000
018000
ENDCHAR
STARTCHAR Ygrave
ENCODING 7922
SWIDTH 622 0
DWIDTH 16 0
BBX 17 25 3 0
BITMAP
080000
1C0000
0E0000
070000
018000
004000
000000
FF3F80
3C0E00
3C0C00
3C1800
1C3800
1E3000
1E6000
1E4000
0EC000
0F8000
0F0000
0F0000
0F0000
0F0000
1E0000
1E0000
1E0000
FF8000
ENDCHAR
STARTCHAR ygrave
ENCODING 7923
SWIDTH 489 0
DWIDTH 12 0
BBX 14 26 0 -6
BITMAP
0800
1C00
0E00
0700
0180
0040
0000
020C
1E1C
7E1C
0E18
0E18
0E30
0F30
0F20
0F60
0740
07C0
0780
0700
0700
0600
4400
EC00
F800
7000
ENDCHAR
STARTCHAR uni1EF4
ENCODING 7924
SWIDTH 622 0
DWIDTH 16 0
BBX 17 23 3 -5
BITMAP
FF3F80
3C0E00
3C0C00
3C1800
1C3800
1E3000
1E6000
1E4000
0EC000
0F8000
0F0000
0F0000
0F0000
0F0000
1E0000
1E0000
1E0000
FF8000
000000
060000
0F0000
0F0000
060000
ENDCHAR
STARTCHAR uni1EF5
ENCODING 7925
SWIDTH 489 0
DWIDTH 12 0
BBX 14 24 0 -11
BITMAP
020C
1E1C
7E1C
0E18
0E18
0E30
0F30
0F20
0F60
0740
07C0
0780
0700
0700
0600
4400
EC00
F800
7000
0000
1800
3C00
3C00
1800
ENDCHAR
STARTCHAR uni1EF8
ENCODING 7928
SWIDTH 622 0
DWIDTH 16 0
BBX 17 23 3 0
BITMAP
020800
0FF000
1BF000
104000
000000
FF3F80
3C0E00
3C0C00
3C1800
1C3800
1E3000
1E6000
1E4000
0EC000
0F8000
0F0000
0F0000
0F0000
0F0000
1E0000
1E0000
1E0000
FF8000
ENDCHAR
STARTCHAR uni1EF9
ENCODING 7929
SWIDTH 489 0
DWIDTH 12 0
BBX 14 24 0 -6
BITMAP
0208
0FF0
1BF0
1040
0000
020C
1E1C
7E1C
0E18
0E18
0E30
0F30
0F20
0F60
0740
07C0
0780
0700
0700
0600
4400
EC00
F800
7000
ENDCHAR
STARTCHAR uni2000
ENCODING 8192
SWIDTH 500 0
DWIDTH 13 0
BBX 1 1 0 0
BITMAP
00
ENDCHAR
STARTCHAR uni2001
ENCODING 8193
SWIDTH 1000 0
DWIDTH 25 0
BBX 1 1 0 0
BITMAP
00
ENDCHAR
STARTCHAR uni2002
ENCODING 8194
SWIDTH 500 0
DWIDTH 13 0
BBX 1 1 0 0
BITMAP
00
ENDCHAR
STARTCHAR uni2003
ENCODING 8195
SWIDTH 1000 0
DWIDTH 25 0
BBX 1 1 0 0
BITMAP
00
ENDCHAR
STARTCHAR uni2004
ENCODING 8196
SWIDTH 333 0
DWIDTH 8 0
BBX 1 1 0 0
BITMAP
00
ENDCHAR
STARTCHAR uni2005
ENCODING 8197
SWIDTH 250 0
DWIDTH 6 0
BBX 1 1 0 0
BITMAP
00
ENDCHAR
STARTCHAR uni2006
ENCODING 8198
SWIDTH 167 0
DWIDTH 4 0
BBX 1 1 0 0
BITMAP
00
ENDCHAR
STARTCHAR uni2007
ENCODING 8199
SWIDTH 560 0
DWIDTH 14 0
BBX 1 1 0 0
BITMAP
00
ENDCHAR
STARTCHAR uni2008
ENCODING 8200
SWIDTH 280 0
DWIDTH 7 0
BBX 1 1 0 0
BITMAP
00
ENDCHAR
STARTCHAR uni2009
ENCODING 8201
SWIDTH 200 0
DWIDTH 5 0
BBX 1 1 0 0
BITMAP
00
ENDCHAR
STARTCHAR uni200A
ENCODING 8202
SWIDTH 100 0
DWIDTH 3 0
BBX 1 1 0 0
BITMAP
00
ENDCHAR
STARTCHAR uni200B
ENCODING 8203
SWIDTH 0 0
DWIDTH 0 0
BBX 1 1 0 0
BITMAP
00
ENDCHAR
STARTCHAR uni2010
ENCODING 8208
SWIDTH 392 0
DWIDTH 10 0
BBX 7 2 3 5
BITMAP
FE
FE
ENDCHAR
STARTCHAR uni2011
ENCODING 8209
SWIDTH 392 0
DWIDTH 10 0
BBX 7 2 3 5
BITMAP
FE
FE
ENDCHAR
STARTCHAR figuredash
ENCODING 8210
SWIDTH 500 0
DWIDTH 12 0
BBX 13 2 1 5
BITMAP
FFF8
FFF8
ENDCHAR
STARTCHAR endash
ENCODING 8211
SWIDTH 500 0
DWIDTH 12 0
BBX 13 2 1 5
BITMAP
FFF8
FFF8
ENDCHAR
STARTCHAR emdash
ENCODING 8212
SWIDTH 1000 0
DWIDTH 25 0
BBX 25 2 1 5
BITMAP
FFFFFF80
FFFFFF80
ENDCHAR
STARTCHAR afii00208
ENCODING 8213
SWIDTH 1000 0
DWIDTH 25 0
BBX 25 2 1 5
BITMAP
FFFFFF80
FFFFFF80
ENDCHAR
STARTCHAR quoteleft
ENCODING 8216
SWIDTH 246 0
DWIDTH 6 0
BBX 5 8 4 10
BITMAP
08
10
30
60
E0
F0
F0
60
ENDCHAR
STARTCHAR quoteright
ENCODING 8217
SWIDTH 246 0
DWIDTH 6 0
BBX 5 8 3 10
BITMAP
30
78
78
38
30
60
40
80
ENDCHAR
STARTCHAR quotesinglbase
ENCODING 8218
SWIDTH 246 0
DWIDTH 6 0
BBX 5 8 0 -4
BITMAP
30
78
78
38
30
60
40
80
ENDCHAR
STARTCHAR quotereversed
ENCODING 8219
SWIDTH 246 0
DWIDTH 6 0
BBX 5 8 3 10
BITMAP
60
F0
F0
E0
60
30
10
08
ENDCHAR
STARTCHAR quotedblleft
ENCODING 8220
SWIDTH 455 0
DWIDTH 11 0
BBX 10 8 4 10
BITMAP
0840
1080
3180
6300
E700
F780
F780
6300
ENDCHAR
STARTCHAR quotedblright
ENCODING 8221
SWIDTH 455 0
DWIDTH 11 0
BBX 10 8 3 10
BITMAP
3180
7BC0
7BC0
39C0
3180
6300
4200
8400
ENDCHAR
STARTCHAR quotedblbase
ENCODING 8222
SWIDTH 455 0
DWIDTH 11 0
BBX 10 8 1 -4
BITMAP
3180
7BC0
7BC0
39C0
3180
6300
4200
8400
ENDCHAR
STARTCHAR uni201F
ENCODING 8223
SWIDTH 455 0
DWIDTH 11 0
BBX 10 8 3 10
BITMAP
6300
F780
F780
E700
6300
3180
1080
0840
ENDCHAR
STARTCHAR dagger
ENCODING 8224
SWIDTH 514 0
DWIDTH 13 0
BBX 11 20 3 -2
BITMAP
0300
0780
0700
0700
0600
67E0
FFE0
0E00
0E00
0E00
1C00
1C00
1C00
1800
1800
1800
1000
3000
3000
2000
ENDCHAR
STARTCHAR daggerdbl
ENCODING 8225
SWIDTH 490 0
DWIDTH 12 0
BBX 11 21 2 -3
BITMAP
0380
0380
0300
0300
0300
3FE0
3FE0
0600
0600
0E00
0E00
0C00
0C00
FF80
FF80
1800
1800
1800
3800
3800
1000
ENDCHAR
STARTCHAR bullet
ENCODING 8226
SWIDTH 465 0
DWIDTH 12 0
BBX 9 9 3 4
BITMAP
1C00
7F00
7F00
FF80
FF80
FF80
7F00
7F00
1C00
ENDCHAR
STARTCHAR ellipsis
ENCODING 8230
SWIDTH 1000 0
DWIDTH 25 0
BBX 20 4 3 0
BITMAP
606060
F0F0F0
F0F0F0
606060
ENDCHAR
STARTCHAR perthousand
ENCODING 8240
SWIDTH 1297 0
DWIDTH 32 0
BBX 30 18 3 0
BITMAP
00008000
1F00C000
39FF8000
71C30000
61C60000
E1CC0000
E18C0000
E3980000
67300000
3C67C1F0
00CE6398
019C771C
0198761C
03387E1C
06386E18
0C38EE38
1819C670
100F03C0
ENDCHAR
STARTCHAR guilsinglleft
ENCODING 8249
SWIDTH 360 0
DWIDTH 9 0
BBX 6 11 3 1
BITMAP
04
08
18
30
70
E0
60
60
30
10
10
ENDCHAR
STARTCHAR guilsinglright
ENCODING 8250
SWIDTH 360 0
DWIDTH 9 0
BBX 6 11 2 1
BITMAP
20
20
30
18
18
1C
38
30
60
40
80
ENDCHAR
STARTCHAR fraction
ENCODING 8260
SWIDTH 100 0
DWIDTH 2 0
BBX 14 18 -4 0
BITMAP
0008
000C
0018
0030
0020
0060
00C0
0180
0180
0300
0600
0400
0C00
1800
3000
2000
6000
C000
ENDCHAR
STARTCHAR oneinferior
ENCODING 8321
SWIDTH 402 0
DWIDTH 10 0
BBX 7 10 3 -6
BITMAP
0E
3E
1C
1C
1C
1C
38
38
38
FC
ENDCHAR
STARTCHAR twoinferior
ENCODING 8322
SWIDTH 402 0
DWIDTH 10 0
BBX 10 10 1 -6
BITMAP
0700
1D80
39C0
11C0
0380
0700
0C00
3080
7F80
FF00
ENDCHAR
STARTCHAR threeinferior
ENCODING 8323
SWIDTH 402 0
DWIDTH 10 0
BBX 8 10 3 -6
BITMAP
3C
E7
47
0E
7C
06
07
C7
E6
38
ENDCHAR
STARTCHAR uni20A5
ENCODING 8357
SWIDTH 914 0
DWIDTH 23 0
BBX 22 18 2 -2
BITMAP
000700
000600
000E00
0E3C70
7CFDF8
1D3E78
1D3E78
3A3C70
3C78F0
3C78F0
7870F0
7870E0
78F1E4
70E1E8
F0E1F0
F1E0E0
018000
038000
ENDCHAR
STARTCHAR uni20A6
ENCODING 8358
SWIDTH 741 0
DWIDTH 19 0
BBX 21 18 1 0
BITMAP
0F81F8
07C060
07C060
07E040
05E0C0
07FFC0
0FFFC0
0CF080
0C7880
087980
0FFF80
1FFF80
183D00
181F00
101F00
300F00
300E00
FC0E00
ENDCHAR
STARTCHAR uni20A9
ENCODING 8361
SWIDTH 920 0
DWIDTH 23 0
BBX 24 18 3 0
BITMAP
FF003F
7C0E0C
3C1E0C
3C1E18
3C3E18
3FFFD0
3FFFF0
3C5E20
3C5E60
3C8E60
3FFFC0
3FFFC0
3D0E80
3F0F80
3E0F00
3E0F00
3C0E00
3C0E00
ENDCHAR
STARTCHAR Euro
ENCODING 8364
SWIDTH 672 0
DWIDTH 17 0
BBX 19 18 0 0
BITMAP
003F80
00E0E0
03C0E0
078040
078040
FFF040
FFF000
1F0000
1E0000
1E0000
FFF000
FFF000
1E0080
0E0180
0E0180
0F0300
038700
00FC00
ENDCHAR
STARTCHAR uni20AD
ENCODING 8365
SWIDTH 688 0
DWIDTH 17 0
BBX 20 18 1 0
BITMAP
1FF3F0
0781C0
078300
078600
078C00
071800
0F3000
0F6000
FFFFF0
0EF000
0EF000
1EF800
1E7800
1E7C00
1C3C00
3C3E00
3C1F00
FF0380
ENDCHAR
STARTCHAR uni2103
ENCODING 8451
SWIDTH 1028 0
DWIDTH 26 0
BBX 25 18 3 0
BITMAP
0000FE00
3E038380
630F0380
C19E0100
C19E0100
C1BC0100
C1BC0000
637C0000
3E780000
00780000
00780000
00780000
00780200
00380600
00380600
003C0C00
000E1C00
0003F000
ENDCHAR
STARTCHAR uni2109
ENCODING 8457
SWIDTH 941 0
DWIDTH 24 0
BBX 24 18 3 0
BITMAP
003FFF
3E0F06
630F06
C18F02
C18E00
C19E00
C19E08
631E08
3E1E18
003FF0
003C10
003C10
003C00
003800
007800
007800
007800
01FE00
ENDCHAR
STARTCHAR trademark
ENCODING 8482
SWIDTH 1100 0
DWIDTH 27 0
BBX 25 11 3 7
BITMAP
FFDE0F80
CE4F0F00
8E4F1F00
0E0B9700
0E0B9700
0E0BB700
0E09E700
0E09E700
0E08E700
0E08C700
3F1ECF80
ENDCHAR
STARTCHAR uni212A
ENCODING 8490
SWIDTH 688 0
DWIDTH 17 0
BBX 20 18 1 0
BITMAP
1FF3F0
0781C0
078300
078600
078C00
071800
0F3000
0F6000
0FE000
0EF000
0EF000
1EF800
1E7800
1E7C00
1C3C00
3C3E00
3C1F00
FF0380
ENDCHAR
STARTCHAR uni212B
ENCODING 8491
SWIDTH 634 0
DWIDTH 16 0
BBX 17 22 0 0
BITMAP
001E00
002300
006300
006600
003C00
003C00
007C00
007C00
00FC00
00BC00
01BC00
011C00
031C00
021C00
061C00
07FC00
0C1E00
081E00
181E00
101E00
301E00
FC7F80
ENDCHAR
STARTCHAR uni2132
ENCODING 8498
SWIDTH 585 0
DWIDTH 15 0
BBX 17 18 1 0
BITMAP
007F80
001E00
001E00
001E00
001C00
003C00
083C00
083C00
0FFC00
187800
107800
107800
007800
007000
40F000
60F000
60F000
FFFC00
ENDCHAR
STARTCHAR minus
ENCODING 8722
SWIDTH 600 0
DWIDTH 15 0
BBX 12 2 3 5
BITMAP
FFF0
FFF0
ENDCHAR
STARTCHAR fraction
ENCODING 8725
SWIDTH 100 0
DWIDTH 2 0
BBX 14 18 -4 0
BITMAP
0008
000C
0018
0030
0020
0060
00C0
0180
0180
0300
0600
0400
0C00
1800
3000
2000
6000
C000
ENDCHAR
STARTCHAR periodcentered
ENCODING 8729
SWIDTH 280 0
DWIDTH 7 0
BBX 4 4 3 4
BITMAP
60
F0
F0
60
ENDCHAR
STARTCHAR uni2236
ENCODING 8758
SWIDTH 280 0
DWIDTH 7 0
BBX 6 13 2 0
BITMAP
18
3C
3C
38
10
00
00
00
20
70
F0
F0
60
ENDCHAR
STARTCHAR uni2259
ENCODING 8793
SWIDTH 600 0
DWIDTH 15 0
BBX 12 14 3 3
BITMAP
0100
0380
0780
0CC0
1860
2020
0000
FFF0
FFF0
0000
0000
0000
FFF0
FFF0
ENDCHAR
STARTCHAR uni225A
ENCODING 8794
SWIDTH 600 0
DWIDTH 15 0
BBX 12 14 3 3
BITMAP
2020
30C0
1980
0F00
0E00
0400
0000
FFF0
FFF0
0000
0000
0000
FFF0
FFF0
ENDCHAR
STARTCHAR notequal
ENCODING 8800
SWIDTH 600 0
DWIDTH 15 0
BBX 12 18 3 -2
BITMAP
00E0
00C0
01C0
0180
0180
0380
FFF0
FFF0
0600
0600
0E00
FFF0
FFF0
1800
1800
3800
3000
7000
ENDCHAR
STARTCHAR equivalence
ENCODING 8801
SWIDTH 600 0
DWIDTH 15 0
BBX 12 5 0 4
BITMAP
FFF0
0000
FFF0
0000
FFF0
ENDCHAR
STARTCHAR uni2262
ENCODING 8802
SWIDTH 600 0
DWIDTH 15 0
BBX 12 18 0 -2
BITMAP
00E0
00C0
01C0
0180
0180
0380
0300
FFF0
0600
FFF0
0E00
FFF0
1C00
1800
1800
3800
3000
7000
ENDCHAR
STARTCHAR lessequal
ENCODING 8804
SWIDTH 600 0
DWIDTH 15 0
BBX 12 15 2 -2
BITMAP
0010
0070
01F0
0FC0
3F00
F800
E000
F800
3E00
07C0
01F0
0070
0010
0000
FFF0
ENDCHAR
STARTCHAR greaterequal
ENCODING 8805
SWIDTH 600 0
DWIDTH 15 0
BBX 12 15 3 -2
BITMAP
8000
E000
F800
3F00
0FC0
01F0
0070
01F0
07C0
3E00
F800
E000
8000
0000
FFF0
ENDCHAR
STARTCHAR uni226E
ENCODING 8814
SWIDTH 600 0
DWIDTH 15 0
BBX 12 18 2 -2
BITMAP
00E0
00C0
01C0
0190
01F0
03F0
0FC0
3F00
FE00
E600
FE00
3E00
1FC0
19F0
1870
3810
3000
7000
ENDCHAR
STARTCHAR uni226F
ENCODING 8815
SWIDTH 600 0
DWIDTH 15 0
BBX 12 18 3 -2
BITMAP
00E0
00C0
01C0
8180
E180
FB80
3F00
0FC0
07F0
0670
0FF0
0FC0
3E00
F800
F800
B800
3000
7000
ENDCHAR
STARTCHAR uni2270
ENCODING 8816
SWIDTH 600 0
DWIDTH 15 0
BBX 12 18 2 -3
BITMAP
00E0
00C0
01D0
01F0
01F0
0FC0
3F00
FF00
E600
FE00
3E00
0FC0
1DF0
1870
1810
3800
FFF0
7000
ENDCHAR
STARTCHAR uni2271
ENCODING 8817
SWIDTH 600 0
DWIDTH 15 0
BBX 12 18 3 -3
BITMAP
00E0
00C0
81C0
E180
F980
3F80
0FC0
07F0
0670
07F0
0FC0
3E00
FC00
F800
9800
3800
FFF0
7000
ENDCHAR
STARTCHAR fi
ENCODING -1
SWIDTH 651 0
DWIDTH 16 0
BBX 20 25 -3 -6
BITMAP
000F80
0039E0
0078F0
0070E0
00F000
00F010
07FFE0
01E1E0
01E1E0
01E1E0
01C1C0
01C3C0
03C3C0
03C3C0
038390
038790
0387A0
0787C0
078380
070000
070000
070000
6E0000
EC0000
780000
ENDCHAR
STARTCHAR fl
ENCODING -1
SWIDTH 652 0
DWIDTH 16 0
BBX 21 25 -3 -6
BITMAP
000F90
0038F8
0078F0
0070F0
00F0F0
00E0F0
07FCE0
01E1E0
01E1E0
01E1E0
01C1C0
01C3C0
03C3C0
03C3C0
038390
038790
0387A0
0787C0
078380
070000
070000
070000
660000
EC0000
780000
ENDCHAR
ENDFONT
